<svg width="347" height="354" viewBox="0 0 347 354" fill="none" xmlns="http://www.w3.org/2000/svg">
<g opacity="0.3">
<path d="M0.5 293.5L292.5 1.5" stroke="white" stroke-opacity="0.7" stroke-width="1.5"/>
<path d="M-22 293.5L270 1.5" stroke="white" stroke-opacity="0.7" stroke-width="1.5"/>
<path d="M-46 293.5L246 1.5" stroke="white" stroke-opacity="0.7" stroke-width="1.5"/>
<path d="M-70 293.5L222 1.5" stroke="white" stroke-opacity="0.7" stroke-width="1.5"/>
<path d="M-96 293.5L196 1.5" stroke="white" stroke-opacity="0.7" stroke-width="1.5"/>
<path d="M-96 271L196 -21" stroke="white" stroke-opacity="0.7" stroke-width="1.5"/>
<path d="M-116 271L176 -21" stroke="white" stroke-opacity="0.7" stroke-width="1.5"/>
<path d="M-137 271L155 -21" stroke="white" stroke-opacity="0.7" stroke-width="1.5"/>
<path d="M-137 249L155 -43" stroke="white" stroke-opacity="0.7" stroke-width="1.5"/>
<path d="M-137 229L155 -63" stroke="white" stroke-opacity="0.7" stroke-width="1.5"/>
<path d="M-137 229L155 -63" stroke="white" stroke-opacity="0.7" stroke-width="1.5"/>
<path d="M-170 239L122 -53" stroke="white" stroke-opacity="0.7" stroke-width="1.5"/>
<path d="M-192 239L100 -53" stroke="white" stroke-opacity="0.7" stroke-width="1.5"/>
<path d="M-213 239L79 -53" stroke="white" stroke-opacity="0.7" stroke-width="1.5"/>
<path d="M-12 330L333 -14" stroke="white" stroke-opacity="0.7" stroke-width="1.5"/>
<path d="M-10 353L346 -2" stroke="white" stroke-opacity="0.7" stroke-width="1.5"/>
</g>
</svg>
