<svg width="286" height="320" viewBox="0 0 286 320" fill="none" xmlns="http://www.w3.org/2000/svg">
<g opacity="0.34">
<path d="M693.5 -82C693.5 126.259 542.154 289.5 362 289.5C181.846 289.5 30.5 126.259 30.5 -82C30.5 -290.259 181.846 -453.5 362 -453.5C542.154 -453.5 693.5 -290.259 693.5 -82Z" stroke="#65A442" stroke-opacity="0.2" stroke-width="61"/>
<path d="M596.5 -82C596.5 66.5838 488.608 181.5 362 181.5C235.392 181.5 127.5 66.5838 127.5 -82C127.5 -230.584 235.392 -345.5 362 -345.5C488.608 -345.5 596.5 -230.584 596.5 -82Z" stroke="#4D7B34" stroke-opacity="0.2" stroke-width="61"/>
<path d="M486.5 -62C486.5 19.2117 427.851 79.5 362 79.5C296.149 79.5 237.5 19.2117 237.5 -62C237.5 -143.212 296.149 -203.5 362 -203.5C427.851 -203.5 486.5 -143.212 486.5 -62Z" stroke="#65A442" stroke-opacity="0.2" stroke-width="61"/>
</g>
</svg>
