<svg width="493" height="228" viewBox="0 0 493 228" fill="none" xmlns="http://www.w3.org/2000/svg">
<path d="M476.76 33.0098L476.482 185.127" stroke="url(#paint0_linear_630_1448)" stroke-width="32.0629" stroke-linecap="round"/>
<path d="M476.119 33.0098L476.119 185.127" stroke="url(#paint1_linear_630_1448)" stroke-width="32.0629" stroke-linecap="round"/>
<path d="M400.18 33.0098L399.902 185.127" stroke="#E8F6EC" stroke-width="32.0629" stroke-linecap="round"/>
<path d="M400.5 58.0488L400.5 185.126" stroke="url(#paint2_linear_630_1448)" stroke-width="32.0629" stroke-linecap="round"/>
<path d="M323.6 33.0098L323.322 185.127" stroke="#E8F6EC" stroke-width="32.0629" stroke-linecap="round"/>
<path d="M323.6 84.9688L323.6 185.128" stroke="url(#paint3_linear_630_1448)" stroke-width="32.0629" stroke-linecap="round"/>
<path d="M247.018 33.0098L246.74 185.127" stroke="#E8F6EC" stroke-width="32.0629" stroke-linecap="round"/>
<path d="M246.697 117.523L246.697 185.131" stroke="url(#paint4_linear_630_1448)" stroke-width="32.0629" stroke-linecap="round"/>
<path d="M170.438 33.0098L170.16 185.127" stroke="#E8F6EC" stroke-width="32.0629" stroke-linecap="round"/>
<path d="M169.796 93.1045L169.796 185.126" stroke="url(#paint5_linear_630_1448)" stroke-width="32.0629" stroke-linecap="round"/>
<path d="M93.8555 33.0098L93.5778 185.127" stroke="#E8F6EC" stroke-width="32.0629" stroke-linecap="round"/>
<path d="M94.1758 62.4316L93.5349 185.127" stroke="url(#paint6_linear_630_1448)" stroke-width="32.0629" stroke-linecap="round"/>
<path d="M17.2754 33.0098L16.7047 185.127" stroke="#E8F6EC" stroke-width="32.0629" stroke-linecap="round"/>
<path d="M17.2754 97.4883L16.7047 185.128" stroke="url(#paint7_linear_630_1448)" stroke-width="32.0629" stroke-linecap="round"/>
<path d="M10.5027 6.32274H6.27809V9.27766C6.47047 9.00833 6.75134 8.78902 7.12071 8.61972C7.49007 8.44274 7.89021 8.35424 8.32114 8.35424C8.95214 8.35424 9.46771 8.48506 9.86785 8.74669C10.268 9.00063 10.5566 9.33537 10.7335 9.7509C10.9105 10.1587 10.999 10.5974 10.999 11.0668C10.999 11.6054 10.8951 12.0941 10.6874 12.5327C10.4873 12.9636 10.1757 13.306 9.75243 13.56C9.33689 13.8139 8.81747 13.9409 8.19417 13.9409C7.40158 13.9409 6.75904 13.737 6.26655 13.3291C5.77407 12.9136 5.47396 12.3557 5.36623 11.6554H6.16267C6.2627 12.1633 6.49356 12.5558 6.85522 12.8328C7.21689 13.1098 7.66321 13.2483 8.19417 13.2483C8.86364 13.2483 9.36767 13.0521 9.70625 12.6596C10.0525 12.2595 10.2257 11.7324 10.2257 11.0783C10.2257 10.4396 10.0525 9.94328 9.70625 9.58931C9.35998 9.22764 8.86364 9.0468 8.21726 9.0468C7.77094 9.0468 7.37849 9.15069 7.03991 9.35845C6.70132 9.56622 6.45123 9.84709 6.28964 10.2011H5.52782V5.61864H10.5027V6.32274ZM17.165 7.65014C16.9957 6.64978 16.4147 6.1496 15.422 6.1496C14.6679 6.1496 14.1023 6.44202 13.7253 7.02684C13.3482 7.61167 13.1751 8.56971 13.2058 9.90096C13.3597 9.43925 13.6522 9.07758 14.0831 8.81595C14.5217 8.54662 15.0219 8.41196 15.5836 8.41196C16.3916 8.41196 17.0303 8.66205 17.4997 9.16223C17.9768 9.65471 18.2153 10.3357 18.2153 11.2053C18.2153 11.7132 18.1153 12.1749 17.9152 12.5904C17.7229 12.9982 17.4227 13.3253 17.0149 13.5715C16.6148 13.8178 16.1146 13.9409 15.5144 13.9409C14.3678 13.9409 13.5752 13.5754 13.1366 12.8443C12.7057 12.1133 12.4902 11.0783 12.4902 9.73936C12.4902 6.89218 13.4675 5.46859 15.422 5.46859C16.1607 5.46859 16.7417 5.67251 17.165 6.08035C17.5882 6.48049 17.8383 7.00376 17.9152 7.65014H17.165ZM15.4336 9.10452C15.0719 9.10452 14.7295 9.17762 14.4063 9.32383C14.0831 9.47003 13.8176 9.69319 13.6098 9.9933C13.4098 10.2857 13.3097 10.6474 13.3097 11.0783C13.3097 11.7016 13.4944 12.221 13.8638 12.6366C14.2331 13.0521 14.7718 13.2599 15.4797 13.2599C16.0723 13.2599 16.5455 13.079 16.8995 12.7174C17.2535 12.3557 17.4304 11.8632 17.4304 11.2399C17.4304 10.5704 17.2573 10.0472 16.911 9.6701C16.5647 9.29305 16.0723 9.10452 15.4336 9.10452ZM19.4147 7.36158C19.4147 6.86909 19.5647 6.4728 19.8649 6.17269C20.1727 5.86488 20.5613 5.71098 21.0307 5.71098C21.5078 5.71098 21.8964 5.86488 22.1965 6.17269C22.5043 6.4728 22.6582 6.86909 22.6582 7.36158C22.6582 7.86176 22.5043 8.26575 22.1965 8.57355C21.8964 8.87366 21.5078 9.02372 21.0307 9.02372C20.5613 9.02372 20.1727 8.87366 19.8649 8.57355C19.5647 8.26575 19.4147 7.86176 19.4147 7.36158ZM25.8786 5.82641L21.1461 13.9062H20.3266L25.0706 5.82641H25.8786ZM21.0307 6.2304C20.7382 6.2304 20.5035 6.33044 20.3266 6.53051C20.1573 6.72289 20.0726 6.99991 20.0726 7.36158C20.0726 7.72325 20.1573 8.00412 20.3266 8.20419C20.5035 8.40426 20.7382 8.5043 21.0307 8.5043C21.3231 8.5043 21.5578 8.40426 21.7348 8.20419C21.9117 8.00412 22.0002 7.72325 22.0002 7.36158C22.0002 7.0076 21.9117 6.73058 21.7348 6.53051C21.5578 6.33044 21.3231 6.2304 21.0307 6.2304ZM23.57 12.3711C23.57 11.8709 23.7201 11.4708 24.0202 11.1706C24.328 10.8628 24.7166 10.7089 25.186 10.7089C25.6554 10.7089 26.0402 10.8628 26.3403 11.1706C26.6481 11.4708 26.802 11.8709 26.802 12.3711C26.802 12.8713 26.6481 13.2753 26.3403 13.5831C26.0402 13.8832 25.6554 14.0332 25.186 14.0332C24.7166 14.0332 24.328 13.8832 24.0202 13.5831C23.7201 13.2753 23.57 12.8713 23.57 12.3711ZM25.186 11.2399C24.8936 11.2399 24.6589 11.3399 24.4819 11.54C24.3049 11.7401 24.2164 12.0171 24.2164 12.3711C24.2164 12.7251 24.3049 13.0021 24.4819 13.2021C24.6589 13.4022 24.8936 13.5023 25.186 13.5023C25.4784 13.5023 25.7093 13.4061 25.8786 13.2137C26.0555 13.0136 26.144 12.7327 26.144 12.3711C26.144 12.0094 26.0555 11.7324 25.8786 11.54C25.7093 11.3399 25.4784 11.2399 25.186 11.2399Z" fill="white"/>
<path d="M84.4328 9.61239C83.9557 9.45849 83.5902 9.21609 83.3363 8.88521C83.09 8.55432 82.9669 8.15417 82.9669 7.68477C82.9669 7.26924 83.0708 6.89987 83.2786 6.57668C83.494 6.24579 83.8057 5.98801 84.2135 5.80332C84.6214 5.61095 85.11 5.51476 85.6794 5.51476C86.2489 5.51476 86.7375 5.61095 87.1453 5.80332C87.5532 5.98801 87.861 6.24579 88.0688 6.57668C88.2842 6.89987 88.3919 7.26924 88.3919 7.68477C88.3919 8.14648 88.265 8.54662 88.011 8.88521C87.7648 9.22379 87.4031 9.46618 86.926 9.61239C87.4493 9.74321 87.861 9.9933 88.1611 10.3627C88.4612 10.732 88.6113 11.1822 88.6113 11.7132C88.6113 12.2056 88.4881 12.6366 88.2419 13.0059C88.0033 13.3676 87.6609 13.6485 87.2146 13.8485C86.776 14.0486 86.2643 14.1486 85.6794 14.1486C85.0946 14.1486 84.579 14.0486 84.1327 13.8485C83.6941 13.6485 83.3517 13.3676 83.1054 13.0059C82.8669 12.6366 82.7476 12.2056 82.7476 11.7132C82.7476 11.1822 82.8977 10.732 83.1978 10.3627C83.4979 9.9933 83.9096 9.74321 84.4328 9.61239ZM87.607 7.77711C87.607 7.26924 87.4339 6.87679 87.0876 6.59976C86.7413 6.32274 86.2719 6.18423 85.6794 6.18423C85.0869 6.18423 84.6175 6.32274 84.2712 6.59976C83.9249 6.86909 83.7518 7.26154 83.7518 7.77711C83.7518 8.25421 83.9288 8.63512 84.2828 8.91983C84.6367 9.20455 85.1023 9.34691 85.6794 9.34691C86.2566 9.34691 86.7221 9.20455 87.0761 8.91983C87.4301 8.63512 87.607 8.25421 87.607 7.77711ZM85.6794 9.97021C85.0484 9.97021 84.5329 10.1126 84.1327 10.3973C83.7326 10.682 83.5325 11.1129 83.5325 11.6901C83.5325 12.2441 83.7249 12.6789 84.1096 12.9944C84.4944 13.3099 85.0176 13.4676 85.6794 13.4676C86.3335 13.4676 86.8529 13.3099 87.2377 12.9944C87.6224 12.6712 87.8148 12.2364 87.8148 11.6901C87.8148 11.1206 87.6147 10.6936 87.2146 10.4088C86.8221 10.1164 86.3104 9.97021 85.6794 9.97021ZM89.8697 13.2714C91.2856 12.2095 92.3783 11.2591 93.1478 10.4204C93.925 9.57392 94.3136 8.74669 94.3136 7.93871C94.3136 7.40775 94.1789 6.98452 93.9096 6.66902C93.648 6.34583 93.217 6.18423 92.6168 6.18423C92.032 6.18423 91.578 6.36891 91.2548 6.73828C90.9393 7.09995 90.7623 7.58474 90.7238 8.19265H89.9389C89.9851 7.33849 90.2467 6.67672 90.7238 6.20732C91.2086 5.73022 91.8396 5.49167 92.6168 5.49167C93.3632 5.49167 93.9673 5.70329 94.429 6.12652C94.8907 6.54205 95.1216 7.13457 95.1216 7.90408C95.1216 8.83519 94.733 9.73936 93.9558 10.6166C93.1863 11.4861 92.2359 12.3365 91.1047 13.1675H95.3755V13.8485H89.8697V13.2714ZM96.3828 7.36158C96.3828 6.86909 96.5328 6.4728 96.8329 6.17269C97.1407 5.86488 97.5293 5.71098 97.9987 5.71098C98.4758 5.71098 98.8644 5.86488 99.1646 6.17269C99.4724 6.4728 99.6263 6.86909 99.6263 7.36158C99.6263 7.86176 99.4724 8.26575 99.1646 8.57355C98.8644 8.87366 98.4758 9.02372 97.9987 9.02372C97.5293 9.02372 97.1407 8.87366 96.8329 8.57355C96.5328 8.26575 96.3828 7.86176 96.3828 7.36158ZM102.847 5.82641L98.1142 13.9062H97.2946L102.039 5.82641H102.847ZM97.9987 6.2304C97.7063 6.2304 97.4716 6.33044 97.2946 6.53051C97.1254 6.72289 97.0407 6.99991 97.0407 7.36158C97.0407 7.72325 97.1254 8.00412 97.2946 8.20419C97.4716 8.40426 97.7063 8.5043 97.9987 8.5043C98.2912 8.5043 98.5259 8.40426 98.7028 8.20419C98.8798 8.00412 98.9683 7.72325 98.9683 7.36158C98.9683 7.0076 98.8798 6.73058 98.7028 6.53051C98.5259 6.33044 98.2912 6.2304 97.9987 6.2304ZM100.538 12.3711C100.538 11.8709 100.688 11.4708 100.988 11.1706C101.296 10.8628 101.685 10.7089 102.154 10.7089C102.623 10.7089 103.008 10.8628 103.308 11.1706C103.616 11.4708 103.77 11.8709 103.77 12.3711C103.77 12.8713 103.616 13.2753 103.308 13.5831C103.008 13.8832 102.623 14.0332 102.154 14.0332C101.685 14.0332 101.296 13.8832 100.988 13.5831C100.688 13.2753 100.538 12.8713 100.538 12.3711ZM102.154 11.2399C101.862 11.2399 101.627 11.3399 101.45 11.54C101.273 11.7401 101.185 12.0171 101.185 12.3711C101.185 12.7251 101.273 13.0021 101.45 13.2021C101.627 13.4022 101.862 13.5023 102.154 13.5023C102.447 13.5023 102.677 13.4061 102.847 13.2137C103.024 13.0136 103.112 12.7327 103.112 12.3711C103.112 12.0094 103.024 11.7324 102.847 11.54C102.677 11.3399 102.447 11.2399 102.154 11.2399Z" fill="white"/>
<path d="M163.665 6.32274H159.44V9.27766C159.633 9.00833 159.913 8.78902 160.283 8.61972C160.652 8.44274 161.052 8.35424 161.483 8.35424C162.114 8.35424 162.63 8.48506 163.03 8.74669C163.43 9.00063 163.719 9.33537 163.896 9.7509C164.073 10.1587 164.161 10.5974 164.161 11.0668C164.161 11.6054 164.057 12.0941 163.849 12.5327C163.649 12.9636 163.338 13.306 162.915 13.56C162.499 13.8139 161.98 13.9409 161.356 13.9409C160.564 13.9409 159.921 13.737 159.429 13.3291C158.936 12.9136 158.636 12.3557 158.528 11.6554H159.325C159.425 12.1633 159.656 12.5558 160.017 12.8328C160.379 13.1098 160.825 13.2483 161.356 13.2483C162.026 13.2483 162.53 13.0521 162.868 12.6596C163.215 12.2595 163.388 11.7324 163.388 11.0783C163.388 10.4396 163.215 9.94328 162.868 9.58931C162.522 9.22764 162.026 9.0468 161.379 9.0468C160.933 9.0468 160.541 9.15069 160.202 9.35845C159.863 9.56622 159.613 9.84709 159.452 10.2011H158.69V5.61864H163.665V6.32274ZM166.645 11.7016C166.73 12.2018 166.922 12.5865 167.222 12.8559C167.522 13.1252 167.934 13.2599 168.457 13.2599C169.18 13.2599 169.715 12.979 170.062 12.4173C170.416 11.8478 170.577 10.909 170.546 9.60085C170.4 10.0241 170.119 10.3588 169.704 10.6051C169.296 10.8436 168.827 10.9629 168.296 10.9629C167.488 10.9629 166.837 10.7205 166.345 10.2357C165.86 9.7509 165.618 9.07758 165.618 8.21573C165.618 7.70016 165.718 7.23461 165.918 6.81907C166.118 6.40354 166.422 6.0765 166.83 5.83795C167.237 5.5994 167.738 5.48013 168.33 5.48013C169.423 5.48013 170.185 5.83795 170.616 6.55359C171.047 7.26154 171.262 8.28114 171.262 9.61239C171.262 11.0514 171.047 12.1325 170.616 12.8559C170.192 13.5792 169.461 13.9409 168.423 13.9409C167.661 13.9409 167.068 13.737 166.645 13.3291C166.222 12.9136 165.972 12.3711 165.895 11.7016H166.645ZM168.423 10.2703C168.784 10.2703 169.115 10.1972 169.415 10.051C169.723 9.89711 169.969 9.67395 170.154 9.38154C170.339 9.08913 170.431 8.739 170.431 8.33116C170.431 7.70016 170.25 7.18074 169.888 6.7729C169.534 6.36506 169.023 6.16115 168.353 6.16115C167.761 6.16115 167.284 6.34583 166.922 6.71519C166.568 7.08456 166.391 7.57704 166.391 8.19265C166.391 8.83904 166.568 9.34691 166.922 9.71628C167.276 10.0856 167.776 10.2703 168.423 10.2703ZM172.532 7.36158C172.532 6.86909 172.682 6.4728 172.982 6.17269C173.29 5.86488 173.678 5.71098 174.148 5.71098C174.625 5.71098 175.013 5.86488 175.313 6.17269C175.621 6.4728 175.775 6.86909 175.775 7.36158C175.775 7.86176 175.621 8.26575 175.313 8.57355C175.013 8.87366 174.625 9.02372 174.148 9.02372C173.678 9.02372 173.29 8.87366 172.982 8.57355C172.682 8.26575 172.532 7.86176 172.532 7.36158ZM178.996 5.82641L174.263 13.9062H173.444L178.188 5.82641H178.996ZM174.148 6.2304C173.855 6.2304 173.621 6.33044 173.444 6.53051C173.274 6.72289 173.19 6.99991 173.19 7.36158C173.19 7.72325 173.274 8.00412 173.444 8.20419C173.621 8.40426 173.855 8.5043 174.148 8.5043C174.44 8.5043 174.675 8.40426 174.852 8.20419C175.029 8.00412 175.117 7.72325 175.117 7.36158C175.117 7.0076 175.029 6.73058 174.852 6.53051C174.675 6.33044 174.44 6.2304 174.148 6.2304ZM176.687 12.3711C176.687 11.8709 176.837 11.4708 177.137 11.1706C177.445 10.8628 177.834 10.7089 178.303 10.7089C178.772 10.7089 179.157 10.8628 179.457 11.1706C179.765 11.4708 179.919 11.8709 179.919 12.3711C179.919 12.8713 179.765 13.2753 179.457 13.5831C179.157 13.8832 178.772 14.0332 178.303 14.0332C177.834 14.0332 177.445 13.8832 177.137 13.5831C176.837 13.2753 176.687 12.8713 176.687 12.3711ZM178.303 11.2399C178.011 11.2399 177.776 11.3399 177.599 11.54C177.422 11.7401 177.333 12.0171 177.333 12.3711C177.333 12.7251 177.422 13.0021 177.599 13.2021C177.776 13.4022 178.011 13.5023 178.303 13.5023C178.595 13.5023 178.826 13.4061 178.996 13.2137C179.173 13.0136 179.261 12.7327 179.261 12.3711C179.261 12.0094 179.173 11.7324 178.996 11.54C178.826 11.3399 178.595 11.2399 178.303 11.2399Z" fill="white"/>
<path d="M234.99 11.944V11.3322L239.192 5.67635H240.15V11.2399H241.385V11.944H240.15V13.9062H239.353V11.944H234.99ZM239.388 6.56514L235.925 11.2399H239.388V6.56514ZM242.069 11.944V11.3322L246.271 5.67635H247.229V11.2399H248.464V11.944H247.229V13.9062H246.432V11.944H242.069ZM246.467 6.56514L243.004 11.2399H246.467V6.56514ZM249.252 7.36158C249.252 6.86909 249.402 6.4728 249.702 6.17269C250.01 5.86488 250.398 5.71098 250.868 5.71098C251.345 5.71098 251.733 5.86488 252.034 6.17269C252.341 6.4728 252.495 6.86909 252.495 7.36158C252.495 7.86176 252.341 8.26575 252.034 8.57355C251.733 8.87366 251.345 9.02372 250.868 9.02372C250.398 9.02372 250.01 8.87366 249.702 8.57355C249.402 8.26575 249.252 7.86176 249.252 7.36158ZM255.716 5.82641L250.983 13.9062H250.164L254.908 5.82641H255.716ZM250.868 6.2304C250.575 6.2304 250.341 6.33044 250.164 6.53051C249.994 6.72289 249.91 6.99991 249.91 7.36158C249.91 7.72325 249.994 8.00412 250.164 8.20419C250.341 8.40426 250.575 8.5043 250.868 8.5043C251.16 8.5043 251.395 8.40426 251.572 8.20419C251.749 8.00412 251.837 7.72325 251.837 7.36158C251.837 7.0076 251.749 6.73058 251.572 6.53051C251.395 6.33044 251.16 6.2304 250.868 6.2304ZM253.407 12.3711C253.407 11.8709 253.557 11.4708 253.857 11.1706C254.165 10.8628 254.554 10.7089 255.023 10.7089C255.492 10.7089 255.877 10.8628 256.177 11.1706C256.485 11.4708 256.639 11.8709 256.639 12.3711C256.639 12.8713 256.485 13.2753 256.177 13.5831C255.877 13.8832 255.492 14.0332 255.023 14.0332C254.554 14.0332 254.165 13.8832 253.857 13.5831C253.557 13.2753 253.407 12.8713 253.407 12.3711ZM255.023 11.2399C254.731 11.2399 254.496 11.3399 254.319 11.54C254.142 11.7401 254.053 12.0171 254.053 12.3711C254.053 12.7251 254.142 13.0021 254.319 13.2021C254.496 13.4022 254.731 13.5023 255.023 13.5023C255.315 13.5023 255.546 13.4061 255.716 13.2137C255.893 13.0136 255.981 12.7327 255.981 12.3711C255.981 12.0094 255.893 11.7324 255.716 11.54C255.546 11.3399 255.315 11.2399 255.023 11.2399Z" fill="white"/>
<path d="M317.006 7.65014C316.837 6.64978 316.256 6.1496 315.263 6.1496C314.509 6.1496 313.943 6.44202 313.566 7.02684C313.189 7.61167 313.016 8.56971 313.047 9.90096C313.201 9.43925 313.493 9.07758 313.924 8.81595C314.363 8.54662 314.863 8.41196 315.424 8.41196C316.232 8.41196 316.871 8.66205 317.341 9.16223C317.818 9.65471 318.056 10.3357 318.056 11.2053C318.056 11.7132 317.956 12.1749 317.756 12.5904C317.564 12.9982 317.264 13.3253 316.856 13.5715C316.456 13.8178 315.955 13.9409 315.355 13.9409C314.209 13.9409 313.416 13.5754 312.977 12.8443C312.547 12.1133 312.331 11.0783 312.331 9.73936C312.331 6.89218 313.308 5.46859 315.263 5.46859C316.002 5.46859 316.583 5.67251 317.006 6.08035C317.429 6.48049 317.679 7.00376 317.756 7.65014H317.006ZM315.274 9.10452C314.913 9.10452 314.57 9.17762 314.247 9.32383C313.924 9.47003 313.658 9.69319 313.451 9.9933C313.251 10.2857 313.151 10.6474 313.151 11.0783C313.151 11.7016 313.335 12.221 313.705 12.6366C314.074 13.0521 314.613 13.2599 315.321 13.2599C315.913 13.2599 316.386 13.079 316.74 12.7174C317.094 12.3557 317.271 11.8632 317.271 11.2399C317.271 10.5704 317.098 10.0472 316.752 9.6701C316.406 9.29305 315.913 9.10452 315.274 9.10452ZM324.461 6.26503L321.241 13.9062H320.421L323.676 6.33428H319.059V5.64173H324.461V6.26503ZM325.41 7.36158C325.41 6.86909 325.56 6.4728 325.86 6.17269C326.168 5.86488 326.557 5.71098 327.026 5.71098C327.503 5.71098 327.892 5.86488 328.192 6.17269C328.5 6.4728 328.654 6.86909 328.654 7.36158C328.654 7.86176 328.5 8.26575 328.192 8.57355C327.892 8.87366 327.503 9.02372 327.026 9.02372C326.557 9.02372 326.168 8.87366 325.86 8.57355C325.56 8.26575 325.41 7.86176 325.41 7.36158ZM331.874 5.82641L327.142 13.9062H326.322L331.066 5.82641H331.874ZM327.026 6.2304C326.734 6.2304 326.499 6.33044 326.322 6.53051C326.153 6.72289 326.068 6.99991 326.068 7.36158C326.068 7.72325 326.153 8.00412 326.322 8.20419C326.499 8.40426 326.734 8.5043 327.026 8.5043C327.319 8.5043 327.553 8.40426 327.73 8.20419C327.907 8.00412 327.996 7.72325 327.996 7.36158C327.996 7.0076 327.907 6.73058 327.73 6.53051C327.553 6.33044 327.319 6.2304 327.026 6.2304ZM329.565 12.3711C329.565 11.8709 329.716 11.4708 330.016 11.1706C330.323 10.8628 330.712 10.7089 331.181 10.7089C331.651 10.7089 332.036 10.8628 332.336 11.1706C332.644 11.4708 332.797 11.8709 332.797 12.3711C332.797 12.8713 332.644 13.2753 332.336 13.5831C332.036 13.8832 331.651 14.0332 331.181 14.0332C330.712 14.0332 330.323 13.8832 330.016 13.5831C329.716 13.2753 329.565 12.8713 329.565 12.3711ZM331.181 11.2399C330.889 11.2399 330.654 11.3399 330.477 11.54C330.3 11.7401 330.212 12.0171 330.212 12.3711C330.212 12.7251 330.3 13.0021 330.477 13.2021C330.654 13.4022 330.889 13.5023 331.181 13.5023C331.474 13.5023 331.705 13.4061 331.874 13.2137C332.051 13.0136 332.139 12.7327 332.139 12.3711C332.139 12.0094 332.051 11.7324 331.874 11.54C331.705 11.3399 331.474 11.2399 331.181 11.2399Z" fill="white"/>
<path d="M390.114 9.61239C389.637 9.45849 389.272 9.21609 389.018 8.88521C388.772 8.55432 388.649 8.15417 388.649 7.68477C388.649 7.26924 388.752 6.89987 388.96 6.57668C389.176 6.24579 389.487 5.98801 389.895 5.80332C390.303 5.61095 390.792 5.51476 391.361 5.51476C391.931 5.51476 392.419 5.61095 392.827 5.80332C393.235 5.98801 393.543 6.24579 393.75 6.57668C393.966 6.89987 394.074 7.26924 394.074 7.68477C394.074 8.14648 393.947 8.54662 393.693 8.88521C393.446 9.22379 393.085 9.46618 392.608 9.61239C393.131 9.74321 393.543 9.9933 393.843 10.3627C394.143 10.732 394.293 11.1822 394.293 11.7132C394.293 12.2056 394.17 12.6366 393.924 13.0059C393.685 13.3676 393.343 13.6485 392.896 13.8485C392.458 14.0486 391.946 14.1486 391.361 14.1486C390.776 14.1486 390.261 14.0486 389.814 13.8485C389.376 13.6485 389.033 13.3676 388.787 13.0059C388.549 12.6366 388.429 12.2056 388.429 11.7132C388.429 11.1822 388.579 10.732 388.879 10.3627C389.18 9.9933 389.591 9.74321 390.114 9.61239ZM393.289 7.77711C393.289 7.26924 393.116 6.87679 392.769 6.59976C392.423 6.32274 391.954 6.18423 391.361 6.18423C390.769 6.18423 390.299 6.32274 389.953 6.59976C389.607 6.86909 389.433 7.26154 389.433 7.77711C389.433 8.25421 389.61 8.63512 389.964 8.91983C390.318 9.20455 390.784 9.34691 391.361 9.34691C391.938 9.34691 392.404 9.20455 392.758 8.91983C393.112 8.63512 393.289 8.25421 393.289 7.77711ZM391.361 9.97021C390.73 9.97021 390.214 10.1126 389.814 10.3973C389.414 10.682 389.214 11.1129 389.214 11.6901C389.214 12.2441 389.407 12.6789 389.791 12.9944C390.176 13.3099 390.699 13.4676 391.361 13.4676C392.015 13.4676 392.535 13.3099 392.919 12.9944C393.304 12.6712 393.496 12.2364 393.496 11.6901C393.496 11.1206 393.296 10.6936 392.896 10.4088C392.504 10.1164 391.992 9.97021 391.361 9.97021ZM400.665 6.26503L397.444 13.9062H396.625L399.88 6.33428H395.263V5.64173H400.665V6.26503ZM401.614 7.36158C401.614 6.86909 401.764 6.4728 402.064 6.17269C402.372 5.86488 402.76 5.71098 403.23 5.71098C403.707 5.71098 404.095 5.86488 404.395 6.17269C404.703 6.4728 404.857 6.86909 404.857 7.36158C404.857 7.86176 404.703 8.26575 404.395 8.57355C404.095 8.87366 403.707 9.02372 403.23 9.02372C402.76 9.02372 402.372 8.87366 402.064 8.57355C401.764 8.26575 401.614 7.86176 401.614 7.36158ZM408.077 5.82641L403.345 13.9062H402.525L407.269 5.82641H408.077ZM403.23 6.2304C402.937 6.2304 402.702 6.33044 402.525 6.53051C402.356 6.72289 402.271 6.99991 402.271 7.36158C402.271 7.72325 402.356 8.00412 402.525 8.20419C402.702 8.40426 402.937 8.5043 403.23 8.5043C403.522 8.5043 403.757 8.40426 403.934 8.20419C404.111 8.00412 404.199 7.72325 404.199 7.36158C404.199 7.0076 404.111 6.73058 403.934 6.53051C403.757 6.33044 403.522 6.2304 403.23 6.2304ZM405.769 12.3711C405.769 11.8709 405.919 11.4708 406.219 11.1706C406.527 10.8628 406.915 10.7089 407.385 10.7089C407.854 10.7089 408.239 10.8628 408.539 11.1706C408.847 11.4708 409.001 11.8709 409.001 12.3711C409.001 12.8713 408.847 13.2753 408.539 13.5831C408.239 13.8832 407.854 14.0332 407.385 14.0332C406.915 14.0332 406.527 13.8832 406.219 13.5831C405.919 13.2753 405.769 12.8713 405.769 12.3711ZM407.385 11.2399C407.092 11.2399 406.858 11.3399 406.681 11.54C406.504 11.7401 406.415 12.0171 406.415 12.3711C406.415 12.7251 406.504 13.0021 406.681 13.2021C406.858 13.4022 407.092 13.5023 407.385 13.5023C407.677 13.5023 407.908 13.4061 408.077 13.2137C408.254 13.0136 408.343 12.7327 408.343 12.3711C408.343 12.0094 408.254 11.7324 408.077 11.54C407.908 11.3399 407.677 11.2399 407.385 11.2399Z" fill="white"/>
<path d="M461.815 6.35737V5.63018H463.777V13.9062H462.958V6.35737H461.815ZM465.578 9.69319C465.578 8.36964 465.782 7.34234 466.189 6.61131C466.597 5.88027 467.328 5.51476 468.383 5.51476C469.437 5.51476 470.168 5.88027 470.576 6.61131C470.983 7.34234 471.187 8.36964 471.187 9.69319C471.187 11.0398 470.983 12.0825 470.576 12.8212C470.168 13.56 469.437 13.9293 468.383 13.9293C467.321 13.9293 466.586 13.56 466.178 12.8212C465.778 12.0825 465.578 11.0398 465.578 9.69319ZM470.391 9.69319C470.391 8.97755 470.341 8.37348 470.241 7.881C470.141 7.38851 469.945 6.99221 469.652 6.69211C469.36 6.392 468.937 6.24194 468.383 6.24194C467.828 6.24194 467.405 6.392 467.113 6.69211C466.82 6.99221 466.624 7.38851 466.524 7.881C466.424 8.37348 466.374 8.97755 466.374 9.69319C466.374 10.4319 466.424 11.0514 466.524 11.5516C466.624 12.044 466.82 12.4403 467.113 12.7404C467.405 13.0406 467.828 13.1906 468.383 13.1906C468.937 13.1906 469.36 13.0406 469.652 12.7404C469.945 12.4403 470.141 12.044 470.241 11.5516C470.341 11.0514 470.391 10.4319 470.391 9.69319ZM472.69 9.69319C472.69 8.36964 472.894 7.34234 473.302 6.61131C473.71 5.88027 474.441 5.51476 475.495 5.51476C476.549 5.51476 477.28 5.88027 477.688 6.61131C478.096 7.34234 478.3 8.36964 478.3 9.69319C478.3 11.0398 478.096 12.0825 477.688 12.8212C477.28 13.56 476.549 13.9293 475.495 13.9293C474.433 13.9293 473.698 13.56 473.291 12.8212C472.89 12.0825 472.69 11.0398 472.69 9.69319ZM477.504 9.69319C477.504 8.97755 477.454 8.37348 477.354 7.881C477.254 7.38851 477.057 6.99221 476.765 6.69211C476.472 6.392 476.049 6.24194 475.495 6.24194C474.941 6.24194 474.518 6.392 474.226 6.69211C473.933 6.99221 473.737 7.38851 473.637 7.881C473.537 8.37348 473.487 8.97755 473.487 9.69319C473.487 10.4319 473.537 11.0514 473.637 11.5516C473.737 12.044 473.933 12.4403 474.226 12.7404C474.518 13.0406 474.941 13.1906 475.495 13.1906C476.049 13.1906 476.472 13.0406 476.765 12.7404C477.057 12.4403 477.254 12.044 477.354 11.5516C477.454 11.0514 477.504 10.4319 477.504 9.69319ZM479.549 7.36158C479.549 6.86909 479.699 6.4728 479.999 6.17269C480.307 5.86488 480.696 5.71098 481.165 5.71098C481.642 5.71098 482.031 5.86488 482.331 6.17269C482.639 6.4728 482.793 6.86909 482.793 7.36158C482.793 7.86176 482.639 8.26575 482.331 8.57355C482.031 8.87366 481.642 9.02372 481.165 9.02372C480.696 9.02372 480.307 8.87366 479.999 8.57355C479.699 8.26575 479.549 7.86176 479.549 7.36158ZM486.013 5.82641L481.281 13.9062H480.461L485.205 5.82641H486.013ZM481.165 6.2304C480.873 6.2304 480.638 6.33044 480.461 6.53051C480.292 6.72289 480.207 6.99991 480.207 7.36158C480.207 7.72325 480.292 8.00412 480.461 8.20419C480.638 8.40426 480.873 8.5043 481.165 8.5043C481.457 8.5043 481.692 8.40426 481.869 8.20419C482.046 8.00412 482.135 7.72325 482.135 7.36158C482.135 7.0076 482.046 6.73058 481.869 6.53051C481.692 6.33044 481.457 6.2304 481.165 6.2304ZM483.704 12.3711C483.704 11.8709 483.855 11.4708 484.155 11.1706C484.462 10.8628 484.851 10.7089 485.32 10.7089C485.79 10.7089 486.175 10.8628 486.475 11.1706C486.782 11.4708 486.936 11.8709 486.936 12.3711C486.936 12.8713 486.782 13.2753 486.475 13.5831C486.175 13.8832 485.79 14.0332 485.32 14.0332C484.851 14.0332 484.462 13.8832 484.155 13.5831C483.855 13.2753 483.704 12.8713 483.704 12.3711ZM485.32 11.2399C485.028 11.2399 484.793 11.3399 484.616 11.54C484.439 11.7401 484.351 12.0171 484.351 12.3711C484.351 12.7251 484.439 13.0021 484.616 13.2021C484.793 13.4022 485.028 13.5023 485.32 13.5023C485.613 13.5023 485.844 13.4061 486.013 13.2137C486.19 13.0136 486.278 12.7327 486.278 12.3711C486.278 12.0094 486.19 11.7324 486.013 11.54C485.844 11.3399 485.613 11.2399 485.32 11.2399Z" fill="white"/>
<path d="M20.4468 214.565V225.215H19.0463V217.274L15.5065 225.215H14.5215L10.9664 217.258V225.215H9.5659V214.565H11.0741L15.014 223.368L18.9539 214.565H20.4468Z" fill="#161313"/>
<path d="M95.6331 214.488V215.627H92.709V225.215H91.3085V215.627H88.369V214.488H95.6331Z" fill="#161313"/>
<path d="M176.21 214.488L173.101 225.215H171.531L169.038 216.581L166.452 225.215L164.898 225.23L161.897 214.488H163.39L165.729 223.583L168.315 214.488H169.884L172.347 223.553L174.702 214.488H176.21Z" fill="#161313"/>
<path d="M248.795 214.488V215.627H245.871V225.215H244.471V215.627H241.531V214.488H248.795Z" fill="#161313"/>
<path d="M325.157 214.488V215.627H320.494V219.243H324.28V220.382H320.494V225.215H319.093V214.488H325.157Z" fill="#161313"/>
<path d="M398.114 225.323C397.406 225.323 396.77 225.199 396.205 224.953C395.651 224.697 395.215 224.348 394.897 223.907C394.579 223.455 394.415 222.937 394.405 222.352H395.897C395.949 222.855 396.154 223.281 396.513 223.63C396.882 223.968 397.416 224.138 398.114 224.138C398.781 224.138 399.304 223.973 399.683 223.645C400.073 223.306 400.268 222.876 400.268 222.352C400.268 221.942 400.155 221.608 399.93 221.352C399.704 221.095 399.422 220.9 399.083 220.767C398.745 220.634 398.288 220.49 397.713 220.336C397.006 220.151 396.436 219.967 396.005 219.782C395.584 219.597 395.22 219.31 394.912 218.92C394.615 218.52 394.466 217.987 394.466 217.32C394.466 216.735 394.615 216.217 394.912 215.765C395.21 215.314 395.626 214.965 396.159 214.719C396.703 214.473 397.324 214.349 398.021 214.349C399.027 214.349 399.848 214.601 400.484 215.103C401.13 215.606 401.494 216.273 401.576 217.104H400.037C399.986 216.694 399.771 216.335 399.391 216.027C399.011 215.709 398.509 215.55 397.883 215.55C397.298 215.55 396.821 215.704 396.451 216.012C396.082 216.309 395.897 216.73 395.897 217.274C395.897 217.663 396.005 217.981 396.221 218.228C396.446 218.474 396.718 218.664 397.036 218.797C397.365 218.92 397.821 219.064 398.406 219.228C399.114 219.423 399.683 219.618 400.114 219.813C400.545 219.998 400.915 220.29 401.222 220.69C401.53 221.08 401.684 221.614 401.684 222.291C401.684 222.814 401.546 223.306 401.269 223.768C400.992 224.23 400.581 224.604 400.037 224.892C399.494 225.179 398.852 225.323 398.114 225.323Z" fill="#161313"/>
<path d="M475.016 225.323C474.308 225.323 473.672 225.199 473.108 224.953C472.554 224.697 472.117 224.348 471.799 223.907C471.481 223.455 471.317 222.937 471.307 222.352H472.8C472.851 222.855 473.056 223.281 473.415 223.63C473.785 223.968 474.318 224.138 475.016 224.138C475.683 224.138 476.206 223.973 476.586 223.645C476.976 223.306 477.171 222.876 477.171 222.352C477.171 221.942 477.058 221.608 476.832 221.352C476.606 221.095 476.324 220.9 475.986 220.767C475.647 220.634 475.19 220.49 474.616 220.336C473.908 220.151 473.338 219.967 472.908 219.782C472.487 219.597 472.123 219.31 471.815 218.92C471.517 218.52 471.368 217.987 471.368 217.32C471.368 216.735 471.517 216.217 471.815 215.765C472.112 215.314 472.528 214.965 473.061 214.719C473.605 214.473 474.226 214.349 474.924 214.349C475.929 214.349 476.75 214.601 477.386 215.103C478.032 215.606 478.397 216.273 478.479 217.104H476.94C476.888 216.694 476.673 216.335 476.293 216.027C475.914 215.709 475.411 215.55 474.785 215.55C474.2 215.55 473.723 215.704 473.354 216.012C472.984 216.309 472.8 216.73 472.8 217.274C472.8 217.663 472.908 217.981 473.123 218.228C473.349 218.474 473.621 218.664 473.939 218.797C474.267 218.92 474.724 219.064 475.308 219.228C476.016 219.423 476.586 219.618 477.017 219.813C477.448 219.998 477.817 220.29 478.125 220.69C478.433 221.08 478.586 221.614 478.586 222.291C478.586 222.814 478.448 223.306 478.171 223.768C477.894 224.23 477.484 224.604 476.94 224.892C476.396 225.179 475.755 225.323 475.016 225.323Z" fill="#161313"/>
<defs>
<linearGradient id="paint0_linear_630_1448" x1="476.36" y1="181.868" x2="476.752" y2="33.0097" gradientUnits="userSpaceOnUse">
<stop stop-color="#053312"/>
<stop offset="1" stop-color="#05A633"/>
</linearGradient>
<linearGradient id="paint1_linear_630_1448" x1="475.991" y1="181.868" x2="476.142" y2="33.0098" gradientUnits="userSpaceOnUse">
<stop stop-color="#053312"/>
<stop offset="1" stop-color="#05A633"/>
</linearGradient>
<linearGradient id="paint2_linear_630_1448" x1="400.372" y1="182.404" x2="400.477" y2="58.0488" gradientUnits="userSpaceOnUse">
<stop stop-color="#053312"/>
<stop offset="1" stop-color="#05A633"/>
</linearGradient>
<linearGradient id="paint3_linear_630_1448" x1="323.471" y1="182.982" x2="323.537" y2="84.9687" gradientUnits="userSpaceOnUse">
<stop stop-color="#053312"/>
<stop offset="1" stop-color="#05A633"/>
</linearGradient>
<linearGradient id="paint4_linear_630_1448" x1="246.569" y1="183.683" x2="246.599" y2="117.523" gradientUnits="userSpaceOnUse">
<stop stop-color="#053312"/>
<stop offset="1" stop-color="#05A633"/>
</linearGradient>
<linearGradient id="paint5_linear_630_1448" x1="169.739" y1="183.154" x2="170.34" y2="93.1075" gradientUnits="userSpaceOnUse">
<stop stop-color="#053312"/>
<stop offset="1" stop-color="#05A633"/>
</linearGradient>
<linearGradient id="paint6_linear_630_1448" x1="93.4203" y1="182.498" x2="94.1173" y2="62.4313" gradientUnits="userSpaceOnUse">
<stop stop-color="#053312"/>
<stop offset="1" stop-color="#05A633"/>
</linearGradient>
<linearGradient id="paint7_linear_630_1448" x1="16.5886" y1="183.25" x2="17.1717" y2="97.4876" gradientUnits="userSpaceOnUse">
<stop stop-color="#053312"/>
<stop offset="1" stop-color="#05A633"/>
</linearGradient>
</defs>
</svg>
