<svg width="28" height="27" viewBox="0 0 28 27" fill="none" xmlns="http://www.w3.org/2000/svg">
<g clip-path="url(#clip0_549_2781)">
<path d="M25.1908 17.9134V4.52518C25.1908 3.19413 24.1038 2.20693 22.7838 2.31785H22.7173C20.3879 2.51751 16.8496 3.70437 14.8752 4.94668L14.6866 5.0687C14.3649 5.26836 13.8325 5.26836 13.5108 5.0687L13.2335 4.90232C11.2591 3.67109 7.73183 2.49533 5.40249 2.30676C4.08253 2.19584 3.00659 3.19413 3.00659 4.51409V17.9134C3.00659 18.9782 3.87178 19.9765 4.93662 20.1096L5.25829 20.154C7.66528 20.4756 11.3811 21.6958 13.5108 22.8605L13.5552 22.8826C13.8547 23.049 14.3316 23.049 14.62 22.8826C16.7497 21.7069 20.4767 20.4756 22.8948 20.154L23.2608 20.1096C24.3256 19.9765 25.1908 18.9782 25.1908 17.9134Z" stroke="#7E7E7E" stroke-width="1.6134" stroke-linecap="round" stroke-linejoin="round"/>
<path d="M14.0986 5.43457V22.0727" stroke="#7E7E7E" stroke-width="1.6134" stroke-linecap="round" stroke-linejoin="round"/>
<path d="M9.3844 8.76221H6.88867" stroke="#7E7E7E" stroke-width="1.6134" stroke-linecap="round" stroke-linejoin="round"/>
<path d="M10.2163 12.0898H6.88867" stroke="#7E7E7E" stroke-width="1.6134" stroke-linecap="round" stroke-linejoin="round"/>
</g>
<defs>
<clipPath id="clip0_549_2781">
<rect width="26.6494" height="26.6494" fill="white" transform="translate(0.788086)"/>
</clipPath>
</defs>
</svg>
