<svg width="23" height="19" viewBox="0 0 23 19" fill="none" xmlns="http://www.w3.org/2000/svg">
<path d="M22.2658 5.41924C22.5252 5.32701 22.6984 5.08133 22.6981 4.80597C22.6978 4.5306 22.524 4.28536 22.2643 4.19374L11.8201 0.508733C11.6801 0.459329 11.5275 0.459329 11.3875 0.508733L0.943236 4.19374C0.68356 4.28532 0.509777 4.5306 0.50943 4.80597C0.509084 5.08133 0.682303 5.32701 0.941763 5.41924L5.07913 6.8901V11.1305C5.07913 11.8304 5.80923 12.4222 7.24916 12.8896C8.50425 13.297 10.0508 13.5213 11.6038 13.5213C13.1568 13.5213 14.7033 13.297 15.9585 12.8896C17.3984 12.4222 18.1285 11.8304 18.1285 11.1305V6.8901L19.8367 6.28282V12.1587C19.0771 12.4273 18.5312 13.1523 18.5312 14.0027C18.5312 14.8532 19.0771 15.5782 19.8367 15.8468V18.3294C19.8367 18.6884 20.1278 18.9795 20.4868 18.9795C20.8458 18.9795 21.1368 18.6884 21.1368 18.3294V15.8468C21.8965 15.5782 22.4424 14.8532 22.4424 14.0027C22.4424 13.1523 21.8965 12.4273 21.1368 12.1587V5.82058L22.2658 5.41924ZM20.4867 14.6582C20.1253 14.6582 19.8313 14.3641 19.8313 14.0027C19.8313 13.6413 20.1253 13.3472 20.4867 13.3472C20.8482 13.3472 21.1422 13.6413 21.1422 14.0027C21.1422 14.3641 20.8482 14.6582 20.4867 14.6582ZM11.6038 1.81106L20.1009 4.80909L11.6038 7.82983L3.10668 4.80905L11.6038 1.81106ZM16.8283 11.0325C16.7037 11.1581 16.2577 11.4589 15.251 11.7461C14.1771 12.0525 12.8818 12.2212 11.6038 12.2212C10.3258 12.2212 9.03049 12.0525 7.95651 11.7461C6.94982 11.4589 6.5038 11.1582 6.3792 11.0325V7.35229L11.386 9.13224C11.4564 9.15729 11.5301 9.16982 11.6037 9.16982C11.6774 9.16982 11.751 9.15729 11.8215 9.13224L16.8282 7.35229V11.0325H16.8283Z" fill="white"/>
</svg>
