<svg width="19" height="19" viewBox="0 0 19 19" fill="none" xmlns="http://www.w3.org/2000/svg">
<path d="M9.46404 18.9999C7.87118 19.0101 6.30192 18.6148 4.90405 17.8511C4.87604 17.8394 4.84601 17.8334 4.81567 17.8334C4.78534 17.8334 4.7553 17.8394 4.7273 17.8511L1.60777 18.7348C1.41684 18.7955 1.21292 18.8028 1.01816 18.7557C0.823404 18.7087 0.645277 18.6091 0.503147 18.4679C0.361017 18.3267 0.260325 18.1492 0.21202 17.9548C0.163715 17.7603 0.169645 17.5563 0.229167 17.365L1.16591 14.2278C1.18625 14.1737 1.18625 14.114 1.16591 14.0599C0.207872 12.3089 -0.174326 10.3006 0.0735608 8.32014C0.321448 6.33965 1.18683 4.48753 2.54687 3.02668C3.90692 1.56582 5.69254 0.570447 7.65029 0.181822C9.60804 -0.206802 11.6385 0.0310692 13.4534 0.861676C15.2683 1.69228 16.7755 3.07343 17.7611 4.80908C18.7466 6.54473 19.1605 8.54671 18.9439 10.5309C18.7273 12.515 17.8913 14.3806 16.5545 15.8627C15.2176 17.3449 13.448 18.3683 11.4966 18.7878C10.828 18.9268 10.147 18.9979 9.46404 18.9999ZM4.78916 16.4636C5.05152 16.4672 5.30917 16.5339 5.54032 16.658C6.68395 17.2852 7.96106 17.6296 9.26497 17.6625C10.5689 17.6954 11.8617 17.4158 13.0355 16.847C14.2093 16.2782 15.2299 15.4369 16.0122 14.3932C16.7944 13.3494 17.3155 12.1337 17.532 10.8475C17.7485 9.56123 17.6541 8.24187 17.2566 6.99959C16.8591 5.75731 16.1701 4.62819 15.2472 3.70653C14.3243 2.78487 13.1942 2.09745 11.9514 1.70168C10.7085 1.30591 9.38904 1.21329 8.10311 1.43155C6.8147 1.6456 5.59653 2.16592 4.55105 2.94874C3.50557 3.73156 2.66336 4.75399 2.09526 5.93004C1.52715 7.10609 1.24976 8.40136 1.28642 9.70692C1.32308 11.0125 1.67271 12.2901 2.30591 13.4325C2.40547 13.6128 2.46844 13.811 2.49118 14.0158C2.51393 14.2205 2.49602 14.4277 2.43847 14.6255L1.61661 17.3562L4.3473 16.5343C4.49032 16.4892 4.63921 16.4654 4.78916 16.4636Z" fill="#ffffff"/>
<path d="M5.92936 11.0023C6.53944 11.0023 7.03401 10.5077 7.03401 9.89762C7.03401 9.28754 6.53944 8.79297 5.92936 8.79297C5.31928 8.79297 4.82471 9.28754 4.82471 9.89762C4.82471 10.5077 5.31928 11.0023 5.92936 11.0023Z" fill="#ffffff"/>
<path d="M9.46402 11.0023C10.0741 11.0023 10.5687 10.5077 10.5687 9.89762C10.5687 9.28754 10.0741 8.79297 9.46402 8.79297C8.85394 8.79297 8.35938 9.28754 8.35938 9.89762C8.35938 10.5077 8.85394 11.0023 9.46402 11.0023Z" fill="#ffffff"/>
<path d="M12.9992 11.0023C13.6093 11.0023 14.1038 10.5077 14.1038 9.89762C14.1038 9.28754 13.6093 8.79297 12.9992 8.79297C12.3891 8.79297 11.8945 9.28754 11.8945 9.89762C11.8945 10.5077 12.3891 11.0023 12.9992 11.0023Z" fill="#ffffff"/>
</svg>
