<svg width="30" height="29" viewBox="0 0 30 29" fill="none" xmlns="http://www.w3.org/2000/svg">
<path d="M12.698 3.63508L5.52522 8.2356C3.22564 9.71058 3.22564 13.0117 5.52522 14.4867L12.698 19.0872C13.9848 19.9183 16.1056 19.9183 17.3925 19.0872L24.5295 14.4867C26.8171 13.0117 26.8171 9.72228 24.5295 8.24731L17.3925 3.64679C16.1056 2.80394 13.9848 2.80394 12.698 3.63508Z" stroke="#7E7E7E" stroke-width="1.78723" stroke-linecap="round" stroke-linejoin="round"/>
<path d="M7.43159 15.9854L7.41968 21.4755C7.41968 22.9622 8.58734 24.5543 10.0171 25.0225L13.818 26.2634C14.4733 26.4741 15.5576 26.4741 16.2248 26.2634L20.0256 25.0225C21.4554 24.5543 22.6231 22.9622 22.6231 21.4755V16.0439" stroke="#7E7E7E" stroke-width="1.78723" stroke-linecap="round" stroke-linejoin="round"/>
<path d="M26.2212 18.2327V11.209" stroke="#7E7E7E" stroke-width="1.78723" stroke-linecap="round" stroke-linejoin="round"/>
</svg>
