<svg width="56" height="56" viewBox="0 0 56 56" fill="none" xmlns="http://www.w3.org/2000/svg">
<g clip-path="url(#clip0_560_8538)">
<path d="M28 56C43.464 56 56 43.464 56 28C56 12.536 43.464 0 28 0C12.536 0 0 12.536 0 28C0 43.464 12.536 56 28 56Z" fill="#F9C65B"/>
<path d="M48.58 9.0125C43.5925 4.40125 36.925 1.5925 29.5925 1.5925C14.1312 1.5925 1.5925 14.1312 1.5925 29.5925C1.5925 36.9162 4.41 43.5838 9.0125 48.58C3.47375 43.4613 0 36.1375 0 28C0 12.5387 12.5387 0 28 0C36.1375 0 43.4613 3.47375 48.58 9.0125Z" fill="#FFE27B"/>
<path d="M56.0001 28.0001C56.0001 43.4613 43.4613 56.0001 28.0001 56.0001C19.8801 56.0001 12.5651 52.5438 7.45508 47.0226C12.4513 51.6513 19.1363 54.4776 26.4776 54.4776C41.9388 54.4776 54.4776 41.9388 54.4776 26.4776C54.4776 19.1363 51.6513 12.4513 47.0226 7.45508C52.5438 12.5651 56.0001 19.8801 56.0001 28.0001Z" fill="#F6B444"/>
<path d="M50.4878 33.1216C53.3157 20.7016 45.5398 8.34075 33.1199 5.51282C20.6999 2.68488 8.33899 10.4608 5.51106 22.8808C2.68312 35.3008 10.459 47.6616 22.879 50.4896C35.299 53.3175 47.6599 45.5416 50.4878 33.1216Z" fill="#F6B444"/>
<path d="M45.1855 12.618C41.108 8.96055 35.7093 6.73805 29.803 6.73805C17.063 6.7293 6.7293 17.063 6.7293 29.803C6.7293 35.718 8.9518 41.108 12.6093 45.1855C7.9018 40.9593 4.93555 34.8255 4.93555 28.0005C4.93555 15.2605 15.2605 4.93555 28.0005 4.93555C34.8255 4.93555 40.968 7.9018 45.1855 12.618Z" fill="#F09922"/>
<path d="M28.0002 45.6665C37.757 45.6665 45.6665 37.757 45.6665 28.0002C45.6665 18.2434 37.757 10.334 28.0002 10.334C18.2434 10.334 10.334 18.2434 10.334 28.0002C10.334 37.757 18.2434 45.6665 28.0002 45.6665Z" fill="#FFCA5C"/>
<path d="M47.2506 29.5834C47.2506 39.3396 39.3406 47.2496 29.5844 47.2496C24.2994 47.2496 19.5656 44.9309 16.3281 41.2559C19.4431 44.0034 23.5294 45.6659 28.0094 45.6659C37.7656 45.6659 45.6756 37.7559 45.6756 27.9996C45.6756 23.5196 44.0131 19.4334 41.2656 16.3184C44.9319 19.5559 47.2506 24.2984 47.2506 29.5834Z" fill="#F09922"/>
<path d="M29.1809 26.6784V19.8272C29.8109 19.8797 31.2722 20.1509 32.0859 21.5159L32.3309 21.9272L34.5797 20.0022L34.3172 19.6959C33.3459 18.5759 31.8934 17.2809 29.1897 17.1672V15.2422H27.0372V17.2547C24.3859 17.5872 21.5859 19.5472 21.5859 23.1259C21.5859 26.8184 24.6659 28.2709 27.0372 29.0409V36.1984C26.0222 36.0409 24.5259 35.2534 23.4847 33.9497L23.2484 33.6522L20.9297 35.3147L21.1572 35.6384C22.4084 37.4147 24.6484 38.6484 27.0459 38.8847V40.7747H29.1984V38.8234C32.5847 38.4647 34.9297 36.0759 34.9297 32.9784C34.9122 29.3034 32.1734 27.7722 29.1809 26.6784ZM24.4122 23.0559C24.4122 21.4634 25.4797 20.1859 27.0284 19.8972V25.9784C25.6984 25.4359 24.4122 24.6572 24.4122 23.0559ZM32.0859 32.9697C32.0597 35.5072 30.1697 36.0497 29.1809 36.1634V29.6972C30.5634 30.2134 32.1122 31.2022 32.0859 32.9697Z" fill="#F09922"/>
</g>
<defs>
<clipPath id="clip0_560_8538">
<rect width="56" height="56" fill="white"/>
</clipPath>
</defs>
</svg>
