<svg width="37" height="37" viewBox="0 0 37 37" fill="none" xmlns="http://www.w3.org/2000/svg">
<path d="M8.36923 4C5.63131 4 3.46533 6.44312 3.46533 9.38942V20.5739C3.46533 23.5203 5.63131 25.97 8.36923 25.97H21.1034L29.3483 32.9002C29.4556 32.9906 29.5771 33.0325 29.696 33.0356C30.0321 33.0443 30.3482 32.7437 30.2705 32.3548L28.9049 25.6596C31.1964 25.1855 32.9863 23.1826 32.9863 20.5739V9.38942C32.9863 6.44312 30.8225 4 28.0846 4H8.36923ZM8.36923 5.13286H28.0846C30.1436 5.13286 31.8468 6.98975 31.8468 9.38942V20.5739C31.8468 22.9104 30.2245 24.7368 28.2442 24.8305C27.8972 24.8468 27.6462 25.1683 27.7144 25.5089L28.8384 30.9803L21.682 24.9657C21.5793 24.8784 21.4489 24.8304 21.314 24.8305H8.36923C6.31024 24.8305 4.60706 22.9736 4.60706 20.5739V9.38942C4.60706 6.98975 6.31024 5.13286 8.36923 5.13286ZM12.6169 12.2116C12.3017 12.2104 12.0459 12.4662 12.0472 12.7814C12.0459 13.0965 12.3017 13.3523 12.6169 13.3511H24.0542C24.3694 13.3523 24.6252 13.0965 24.6239 12.7814C24.6252 12.4662 24.3694 12.2104 24.0542 12.2116H12.6169ZM12.6169 16.7541C12.3017 16.7529 12.0459 17.0087 12.0472 17.3239C12.0508 17.6356 12.3052 17.886 12.6169 17.8848H24.0542C24.3659 17.886 24.6203 17.6356 24.6239 17.3239C24.6252 17.0087 24.3694 16.7529 24.0542 16.7541H12.6169Z" fill="black"/>
</svg>
