<svg width="23" height="24" viewBox="0 0 23 24" fill="none" xmlns="http://www.w3.org/2000/svg">
<path d="M22.031 13.0425L11.931 23.0963C11.6918 23.3351 11.1842 23.3351 10.945 23.0963L0.844942 13.0425C0.693441 12.8917 0.663773 12.6851 0.768561 12.5106C0.874611 12.3362 1.09618 12.2256 1.33858 12.2256H7.01985V1.1664C7.01985 0.611937 7.58609 0.161022 8.28236 0.161022H14.5949C15.2912 0.161022 15.8574 0.611937 15.8574 1.1664V12.2256H21.5387C21.7811 12.2256 22.0026 12.3362 22.1074 12.5106C22.2128 12.6846 22.1832 12.8917 22.031 13.0425ZM15.2261 13.231C14.8777 13.231 14.5949 13.0058 14.5949 12.7283V1.1664H8.28236V12.7283C8.28236 13.0058 7.99956 13.231 7.6511 13.231H2.65222L11.4386 21.9773L20.225 13.231H15.2261Z" fill="black"/>
</svg>
