<svg width="15" height="15" viewBox="0 0 15 15" fill="none" xmlns="http://www.w3.org/2000/svg">
<path d="M11.1468 14.0976H3.63925C2.83716 14.0976 2.08304 13.7852 1.51581 13.218C0.948604 12.6508 0.63623 11.8967 0.63623 11.0945V10.3438C0.63623 9.92911 0.972338 9.59298 1.38699 9.59298C1.80164 9.59298 2.13775 9.92911 2.13775 10.3438V11.0945C2.13775 11.4956 2.29395 11.8727 2.5775 12.1562C2.86113 12.4398 3.23818 12.5961 3.63925 12.5961H11.1468C11.5478 12.5961 11.9249 12.4398 12.2085 12.1562C12.4921 11.8726 12.6483 11.4956 12.6483 11.0945V10.3438C12.6483 9.92911 12.9844 9.59298 13.399 9.59298C13.8137 9.59298 14.1498 9.92911 14.1498 10.3438V11.0945C14.1498 11.8966 13.8375 12.6507 13.2702 13.218C12.703 13.7852 11.9489 14.0976 11.1468 14.0976ZM7.39302 11.0945C7.28917 11.0945 7.1903 11.0734 7.10034 11.0353C7.01642 10.9999 6.93756 10.9484 6.86856 10.881C6.86853 10.881 6.86853 10.8809 6.86851 10.8809C6.86801 10.8805 6.86751 10.88 6.86701 10.8795C6.86688 10.8794 6.86672 10.8792 6.86659 10.8791C6.86617 10.8787 6.86581 10.8783 6.86541 10.8779C6.86515 10.8776 6.86491 10.8774 6.86465 10.8771C6.86439 10.8769 6.86405 10.8765 6.86381 10.8763C6.86329 10.8758 6.86271 10.8752 6.86219 10.8747L3.85915 7.87163C3.56597 7.57846 3.56597 7.10309 3.85915 6.80989C4.15232 6.51671 4.62771 6.51669 4.92089 6.80989L6.64229 8.53129V1.33474C6.64226 0.920092 6.97837 0.583984 7.39302 0.583984C7.80767 0.583984 8.14381 0.920092 8.14381 1.33474V8.53126L9.86518 6.80989C10.1583 6.51671 10.6338 6.51671 10.9269 6.80989C11.2201 7.10307 11.2201 7.57846 10.9269 7.87163L7.92388 10.8746C7.92335 10.8752 7.92278 10.8757 7.92225 10.8763C7.92196 10.8765 7.92165 10.8769 7.92141 10.8771C7.92115 10.8774 7.92092 10.8776 7.92065 10.8778C7.92029 10.8783 7.91987 10.8786 7.9195 10.879C7.91937 10.8791 7.91918 10.8793 7.91905 10.8794C7.91858 10.8799 7.91808 10.8804 7.91758 10.8809C7.91756 10.8809 7.91756 10.8809 7.91753 10.8809C7.90927 10.889 7.9009 10.8968 7.89236 10.9044C7.82949 10.9605 7.75947 11.0042 7.68543 11.0354C7.68517 11.0355 7.68496 11.0356 7.6847 11.0357C7.68441 11.0358 7.68418 11.036 7.68389 11.0361C7.59441 11.0738 7.49616 11.0945 7.39302 11.0945Z" fill="white"/>
</svg>
