<svg width="20" height="20" viewBox="0 0 20 20" fill="none" xmlns="http://www.w3.org/2000/svg">
<path d="M19.2308 9.22993H13.8462C12.1585 9.22993 10.7692 10.6193 10.7692 12.3071C10.7692 13.995 12.1585 15.3844 13.8462 15.3844H16.9231V17.6923C16.9231 18.1146 16.5762 18.4616 16.1538 18.4616H3.84615C2.58 18.4616 1.53846 17.4199 1.53846 16.1537V4.6141C1.53846 3.34783 2.58 2.30619 3.84615 2.30619H5.38462C5.80692 2.30619 6.15385 1.95923 6.15385 1.53688C6.15385 1.11453 5.80692 0.767578 5.38462 0.767578H3.84615C1.73615 0.767578 0 2.5039 0 4.6141V16.1537C0 18.2639 1.73615 20.0002 3.84615 20.0002H16.1538C17.42 20.0002 18.4615 18.9586 18.4615 17.6923V15.3844H19.2308C19.6531 15.3844 20 15.0374 20 14.6151V9.99924C20 9.57689 19.6531 9.22993 19.2308 9.22993ZM18.4615 13.8458H13.8462C13.0023 13.8458 12.3077 13.1511 12.3077 12.3071C12.3077 11.4632 13.0023 10.7685 13.8462 10.7685H18.4615V13.8458Z" fill="white"/>
<path d="M3.56855 3.89811C2.71009 4.27276 2.99394 5.38287 3.84548 5.38287H16.1532C16.5755 5.38287 16.9224 5.72983 16.9224 6.15218V6.92148C16.9224 7.34383 17.2693 7.69079 17.6916 7.69079C18.1139 7.69079 18.4609 7.34383 18.4609 6.92148V6.15218C18.4601 5.54058 18.217 4.9536 17.7839 4.52125C17.3516 4.08813 16.7647 3.84503 16.1532 3.84426H15.907L14.5609 0.4824C14.4047 0.0939012 13.9586 -0.0999637 13.5686 0.0515893L3.56855 3.89811ZM14.2455 3.84426H7.99163L13.4147 1.75945L14.2455 3.84426Z" fill="white"/>
</svg>
