<svg width="23" height="23" viewBox="0 0 23 23" fill="none" xmlns="http://www.w3.org/2000/svg">
<path d="M16.5419 0.483129L5.54441 4.13797C-1.84814 6.61108 -1.84814 10.6436 5.54441 13.1045L8.80834 14.1888L9.89225 17.4538C12.3524 24.8487 16.3957 24.8487 18.8559 17.4538L22.5217 6.46489C24.1537 1.53085 21.4743 -1.16155 16.5419 0.483129ZM16.9316 7.03748L12.3037 11.6913C12.121 11.8741 11.8896 11.9593 11.6582 11.9593C11.4268 11.9593 11.1954 11.8741 11.0127 11.6913C10.8428 11.5194 10.7476 11.2874 10.7476 11.0456C10.7476 10.8039 10.8428 10.5719 11.0127 10.3999L15.6407 5.7461C15.9938 5.3928 16.5784 5.3928 16.9316 5.7461C17.2848 6.0994 17.2848 6.68418 16.9316 7.03748Z" fill="#05A633"/>
</svg>
