<svg width="13" height="13" viewBox="0 0 13 13" fill="none" xmlns="http://www.w3.org/2000/svg">
<path d="M8.43912 6.5002C8.43912 7.5727 7.57246 8.43937 6.49996 8.43937C5.42746 8.43937 4.56079 7.5727 4.56079 6.5002C4.56079 5.4277 5.42746 4.56104 6.49996 4.56104C7.57246 4.56104 8.43912 5.4277 8.43912 6.5002Z" stroke="#7E7E7E" stroke-linecap="round" stroke-linejoin="round"/>
<path d="M6.49992 10.9797C8.412 10.9797 10.1941 9.85305 11.4345 7.90305C11.922 7.1393 11.922 5.85555 11.4345 5.0918C10.1941 3.1418 8.412 2.01514 6.49992 2.01514C4.58783 2.01514 2.80575 3.1418 1.56533 5.0918C1.07783 5.85555 1.07783 7.1393 1.56533 7.90305C2.80575 9.85305 4.58783 10.9797 6.49992 10.9797Z" stroke="#7E7E7E" stroke-linecap="round" stroke-linejoin="round"/>
</svg>
