<svg width="23" height="22" viewBox="0 0 23 22" fill="none" xmlns="http://www.w3.org/2000/svg">
<path d="M22.4479 10.9271C22.4479 16.3005 18.5109 20.7543 13.3645 21.5617V14.0389H15.873L16.3502 10.9271H13.3645V8.90769C13.3645 8.05613 13.7817 7.22643 15.1189 7.22643H16.4764V4.57713C16.4764 4.57713 15.2443 4.36687 14.0664 4.36687C11.6076 4.36687 10.0003 5.85721 10.0003 8.55529V10.9271H7.26691V14.0389H10.0003V21.5617C4.85394 20.7543 0.916992 16.3005 0.916992 10.9271C0.916992 4.98167 5.73705 0.161621 11.6824 0.161621C17.6278 0.161621 22.4479 4.98167 22.4479 10.9271Z" fill="#1877F2"/>
<path d="M15.8726 14.0388L16.3499 10.9269H13.3642V8.90748C13.3642 8.05613 13.7813 7.22627 15.1186 7.22627H16.4761V4.57696C16.4761 4.57696 15.2441 4.3667 14.0663 4.3667C11.6072 4.3667 10 5.85704 10 8.55512V10.9269H7.2666V14.0388H10V21.5615C10.5481 21.6475 11.1099 21.6923 11.6821 21.6923C12.2544 21.6923 12.8161 21.6475 13.3642 21.5615V14.0388H15.8726Z" fill="white"/>
</svg>
