<svg width="27" height="26" viewBox="0 0 27 26" fill="none" xmlns="http://www.w3.org/2000/svg">
<ellipse cx="13.1722" cy="12.6509" rx="13.1722" ry="12.6509" fill="#65A442"/>
<path d="M11.6227 17.5504H14.4922C16.8834 17.5504 17.8399 16.5939 17.8399 14.2026V11.3331C17.8399 8.94185 16.8834 7.98535 14.4922 7.98535H11.6227C9.23141 7.98535 8.2749 8.94185 8.2749 11.3331V14.2026C8.2749 16.5939 9.23141 17.5504 11.6227 17.5504Z" stroke="white" stroke-width="0.922342" stroke-linecap="round" stroke-linejoin="round"/>
<path d="M11.6225 11.8114C12.1508 11.8114 12.579 11.3832 12.579 10.8549C12.579 10.3267 12.1508 9.89844 11.6225 9.89844C11.0943 9.89844 10.666 10.3267 10.666 10.8549C10.666 11.3832 11.0943 11.8114 11.6225 11.8114Z" stroke="white" stroke-width="0.922342" stroke-linecap="round" stroke-linejoin="round"/>
<path d="M8.59521 16.0907L10.953 14.5077C11.3308 14.2542 11.876 14.2829 12.2156 14.5746L12.3734 14.7133C12.7464 15.0337 13.349 15.0337 13.7221 14.7133L15.7116 13.0059C16.0846 12.6855 16.6872 12.6855 17.0603 13.0059L17.8398 13.6755" stroke="white" stroke-width="0.922342" stroke-linecap="round" stroke-linejoin="round"/>
</svg>
