<svg width="15" height="15" viewBox="0 0 15 15" fill="none" xmlns="http://www.w3.org/2000/svg">
<g clip-path="url(#clip0_571_10945)">
<path d="M14.0217 2.92123H12.9299C13.0739 2.6933 13.1689 2.43745 13.196 2.16687C13.2826 1.30211 12.8272 0.526916 12.0519 0.183234C11.3392 -0.132674 10.5383 -0.00353345 9.96158 0.519533L8.58287 1.76904C8.31436 1.47537 7.92838 1.2908 7.5 1.2908C7.07086 1.2908 6.68426 1.47596 6.41569 1.77054L5.03522 0.519387C4.45758 -0.00367991 3.65701 -0.132323 2.94466 0.18341C2.16952 0.527121 1.71401 1.30258 1.80085 2.16731C1.82801 2.43769 1.92299 2.69342 2.06698 2.92123H0.978252C0.437959 2.92123 0 3.35922 0 3.89948V5.36688C0 5.63699 0.218994 5.85602 0.489141 5.85602H14.5109C14.781 5.85602 15 5.63702 15 5.36688V3.89948C15 3.35922 14.562 2.92123 14.0217 2.92123ZM6.03261 2.7582V2.92123H3.73154C3.12357 2.92123 2.6451 2.35445 2.79694 1.72147C2.86383 1.44271 3.06504 1.20508 3.32528 1.08479C3.68265 0.919611 4.07851 0.972638 4.37865 1.24431L6.03302 2.74378C6.03293 2.74862 6.03261 2.75336 6.03261 2.7582ZM12.2254 2.03699C12.189 2.54538 11.7297 2.92129 11.2201 2.92129H8.96739V2.75825C8.96739 2.75248 8.96704 2.74677 8.96698 2.741C9.34175 2.40127 10.1548 1.6644 10.5957 1.2647C10.8463 1.03756 11.197 0.931535 11.5211 1.02821C11.9863 1.16696 12.2594 1.56253 12.2254 2.03699Z" fill="white"/>
<path d="M0.978271 6.83496V14.0089C0.978271 14.5492 1.41623 14.9871 1.95652 14.9871H6.52174V6.83496H0.978271Z" fill="white"/>
<path d="M8.47827 6.83496V14.9871H13.0435C13.5838 14.9871 14.0217 14.5492 14.0217 14.0089V6.83496H8.47827Z" fill="white"/>
</g>
<defs>
<clipPath id="clip0_571_10945">
<rect width="15" height="15" fill="white"/>
</clipPath>
</defs>
</svg>
