<svg width="19" height="20" viewBox="0 0 19 20" fill="none" xmlns="http://www.w3.org/2000/svg">
<path fill-rule="evenodd" clip-rule="evenodd" d="M18.9055 10.3314C18.9055 9.65746 18.8451 9.00947 18.7327 8.38739H9.78174V12.0637H14.8966C14.6763 13.2517 14.0067 14.2582 13.0001 14.9322V17.3168H16.0716C17.8687 15.6622 18.9055 13.2258 18.9055 10.3314Z" fill="#4285F4"/>
<path fill-rule="evenodd" clip-rule="evenodd" d="M9.78178 19.6194C12.3479 19.6194 14.4992 18.7683 16.0717 17.3168L13.0002 14.9322C12.1491 15.5024 11.0605 15.8394 9.78178 15.8394C7.30643 15.8394 5.21124 14.1675 4.46388 11.9211H1.2887V14.3835C2.85253 17.4896 6.0666 19.6194 9.78178 19.6194Z" fill="#34A853"/>
<path fill-rule="evenodd" clip-rule="evenodd" d="M4.46383 11.9211C4.27376 11.3509 4.16576 10.7418 4.16576 10.1154C4.16576 9.48897 4.27376 8.87986 4.46383 8.30962V5.84723H1.28865C0.64497 7.13026 0.277771 8.58178 0.277771 10.1154C0.277771 11.649 0.64497 13.1005 1.28865 14.3835L4.46383 11.9211Z" fill="#FBBC05"/>
<path fill-rule="evenodd" clip-rule="evenodd" d="M9.78178 4.39141C11.1771 4.39141 12.4299 4.87092 13.4149 5.81268L16.1408 3.08677C14.4949 1.55318 12.3435 0.61142 9.78178 0.61142C6.0666 0.61142 2.85253 2.74117 1.2887 5.84724L4.46388 8.30963C5.21124 6.06324 7.30643 4.39141 9.78178 4.39141Z" fill="#EA4335"/>
</svg>
