<svg width="21" height="21" viewBox="0 0 21 21" fill="none" xmlns="http://www.w3.org/2000/svg">
<path d="M8.54439 2.15089L3.42621 5.49216C1.78534 6.5634 1.78534 8.96096 3.42621 10.0322L8.54439 13.3735C9.4626 13.9771 10.9759 13.9771 11.8942 13.3735L16.9868 10.0322C18.6192 8.96096 18.6192 6.57191 16.9868 5.50066L11.8942 2.15939C10.9759 1.54725 9.4626 1.54725 8.54439 2.15089Z" stroke="white" stroke-width="1.5" stroke-linecap="round" stroke-linejoin="round"/>
<path d="M4.78707 11.1211L4.77856 15.1085C4.77856 16.1883 5.61176 17.3445 6.63199 17.6846L9.34411 18.5858C9.81172 18.7388 10.5854 18.7388 11.0615 18.5858L13.7736 17.6846C14.7939 17.3445 15.6271 16.1883 15.6271 15.1085V11.1636" stroke="white" stroke-width="1.5" stroke-linecap="round" stroke-linejoin="round"/>
<path d="M18.1946 12.7535V7.65234" stroke="white" stroke-width="1.5" stroke-linecap="round" stroke-linejoin="round"/>
</svg>
