<svg width="30" height="29" viewBox="0 0 30 29" fill="none" xmlns="http://www.w3.org/2000/svg">
<path d="M22.9131 20.3749L23.3778 24.074C23.497 25.0456 22.4365 25.7246 21.5906 25.2212L16.5982 22.3064C16.0502 22.3064 15.514 22.2713 14.9897 22.2011C15.8714 21.1826 16.3957 19.8949 16.3957 18.5019C16.3957 15.1773 13.4646 12.485 9.8425 12.485C8.46038 12.485 7.18549 12.8712 6.12506 13.5502C6.08932 13.2575 6.07739 12.9649 6.07739 12.6605C6.07739 7.33421 10.7838 3.01465 16.5982 3.01465C22.4127 3.01465 27.1191 7.33421 27.1191 12.6605C27.1191 15.8212 25.4629 18.619 22.9131 20.3749Z" stroke="#7E7E7E" stroke-width="1.78723" stroke-linecap="round" stroke-linejoin="round"/>
<path d="M16.3956 18.5018C16.3956 19.8948 15.8713 21.1825 14.9896 22.201C13.81 23.6057 11.9394 24.507 9.84238 24.507L6.73259 26.3215C6.20833 26.6375 5.5411 26.2044 5.61259 25.6074L5.91046 23.3013C4.31386 22.2127 3.28918 20.4684 3.28918 18.5018C3.28918 16.4415 4.40919 14.6271 6.12494 13.5501C7.18536 12.8711 8.46025 12.4849 9.84238 12.4849C13.4645 12.4849 16.3956 15.1772 16.3956 18.5018Z" stroke="#7E7E7E" stroke-width="1.78723" stroke-linecap="round" stroke-linejoin="round"/>
</svg>
