<svg width="23" height="23" viewBox="0 0 23 23" fill="none" xmlns="http://www.w3.org/2000/svg">
<g clip-path="url(#clip0_1860_14177)">
<path d="M22.4479 11.469C22.4479 5.52346 17.628 0.703613 11.6824 0.703613C5.73684 0.703613 0.916992 5.52346 0.916992 11.469C0.916992 17.4146 5.73684 22.2345 11.6824 22.2345C17.628 22.2345 22.4479 17.4146 22.4479 11.469Z" fill="url(#paint0_linear_1860_14177)"/>
<path opacity="0.1" d="M19.7849 4.38672C18.2154 7.26789 15.9957 10.2397 13.2222 13.0132C10.4487 15.7867 7.47688 18.0022 4.59996 19.5716C4.4196 19.4149 4.24442 19.2515 4.07444 19.0815C3.04699 18.0884 2.22754 16.9006 1.66388 15.5875C1.10023 14.2744 0.803637 12.8622 0.79141 11.4332C0.779182 10.0043 1.05156 8.58723 1.59267 7.26465C2.13377 5.94207 2.93277 4.74046 3.94308 3.72987C4.95338 2.71928 6.15477 1.91995 7.4772 1.37847C8.79963 0.836999 10.2166 0.564224 11.6456 0.576052C13.0745 0.587881 14.4868 0.884077 15.8001 1.44737C17.1133 2.01066 18.3013 2.82977 19.2948 3.85695C19.4648 4.02693 19.6281 4.20352 19.7849 4.38672Z" fill="white"/>
<path d="M14.2323 5.80322H9.13291C8.30641 5.80322 7.51377 6.13155 6.92935 6.71597C6.34493 7.30039 6.0166 8.09304 6.0166 8.91953V14.0189C6.0166 14.8454 6.34493 15.6381 6.92935 16.2225C7.51377 16.8069 8.30641 17.1353 9.13291 17.1353H14.2323C15.0588 17.1353 15.8515 16.8069 16.4359 16.2225C17.0203 15.6381 17.3486 14.8454 17.3486 14.0189V8.91953C17.3486 8.09304 17.0203 7.30039 16.4359 6.71597C15.8515 6.13155 15.0588 5.80322 14.2323 5.80322ZM16.3571 13.5713C16.3571 14.2536 16.0861 14.9079 15.6037 15.3903C15.1212 15.8727 14.4669 16.1437 13.7847 16.1437H9.58053C8.89829 16.1437 8.244 15.8727 7.76158 15.3903C7.27917 14.9079 7.00815 14.2536 7.00815 13.5713V9.36715C7.00815 8.68491 7.27917 8.03062 7.76158 7.54821C8.244 7.06579 8.89829 6.79478 9.58053 6.79478H13.7847C14.4669 6.79478 15.1212 7.06579 15.6037 7.54821C16.0861 8.03062 16.3571 8.68491 16.3571 9.36715V13.5713Z" fill="white"/>
<path d="M13.7495 9.4235L13.7226 9.39658L13.6999 9.37392C13.1643 8.84019 12.4389 8.54066 11.6828 8.54102C11.301 8.54361 10.9234 8.62141 10.5716 8.76998C10.2199 8.91854 9.90086 9.13496 9.63277 9.40686C9.36469 9.67876 9.1528 10.0008 9.00922 10.3546C8.86564 10.7085 8.79318 11.0871 8.79598 11.4689C8.7954 12.2438 9.10085 12.9876 9.64588 13.5384C9.91285 13.8087 10.231 14.023 10.5817 14.1689C10.9324 14.3148 11.3086 14.3894 11.6885 14.3883C12.2582 14.3764 12.8122 14.1989 13.2829 13.8775C13.7535 13.5561 14.1204 13.1047 14.3389 12.5784C14.5574 12.052 14.618 11.4735 14.5134 10.9133C14.4087 10.3531 14.1433 9.83545 13.7495 9.4235ZM11.6828 13.3897C11.3018 13.395 10.9278 13.287 10.6085 13.0792C10.2891 12.8714 10.0387 12.5733 9.88917 12.2228C9.73966 11.8723 9.69776 11.4853 9.7688 11.111C9.83985 10.7366 10.0206 10.3919 10.2882 10.1205C10.5557 9.84921 10.8979 9.66359 11.2712 9.58726C11.6445 9.51094 12.032 9.54738 12.3846 9.69193C12.7371 9.83649 13.0387 10.0826 13.251 10.3991C13.4633 10.7155 13.5766 11.0879 13.5767 11.4689C13.5785 11.7194 13.531 11.9678 13.4368 12.2C13.3427 12.4321 13.2037 12.6434 13.0278 12.8218C12.8519 13.0002 12.6426 13.1421 12.4118 13.2396C12.181 13.337 11.9333 13.388 11.6828 13.3897Z" fill="white"/>
<path d="M15.4261 8.40649C15.4269 8.49739 15.4097 8.58754 15.3756 8.67178C15.3414 8.75603 15.291 8.83271 15.2272 8.89744C15.1634 8.96218 15.0874 9.01369 15.0037 9.04903C14.9199 9.08438 14.83 9.10285 14.7391 9.10341C14.649 9.10337 14.5598 9.08544 14.4766 9.05067C14.3934 9.0159 14.318 8.96498 14.2547 8.90085C14.1587 8.80348 14.0934 8.68009 14.067 8.54598C14.0405 8.41186 14.0539 8.27292 14.1056 8.14638C14.1574 8.01984 14.2451 7.91127 14.358 7.83412C14.4708 7.75698 14.6039 7.71465 14.7405 7.7124C14.9005 7.71237 15.0554 7.76852 15.1782 7.87105L15.1924 7.88522C15.2153 7.90381 15.2361 7.9247 15.2547 7.94754L15.2703 7.96454C15.3717 8.08945 15.4268 8.2456 15.4261 8.40649Z" fill="white"/>
</g>
<defs>
<linearGradient id="paint0_linear_1860_14177" x1="4.07013" y1="3.85675" x2="19.2947" y2="19.0813" gradientUnits="userSpaceOnUse">
<stop stop-color="#FAE100"/>
<stop offset="0.15" stop-color="#FCB720"/>
<stop offset="0.3" stop-color="#FF7950"/>
<stop offset="0.5" stop-color="#FF1C74"/>
<stop offset="1" stop-color="#6C1CD1"/>
</linearGradient>
<clipPath id="clip0_1860_14177">
<rect width="21.5309" height="21.5309" fill="white" transform="translate(0.916992 0.703613)"/>
</clipPath>
</defs>
</svg>
