<svg width="38" height="36" viewBox="0 0 38 36" fill="none" xmlns="http://www.w3.org/2000/svg">
<path d="M12.1375 28.1544L16.9549 31.6935C17.5766 32.2833 18.9752 32.5782 19.9076 32.5782H25.8129C27.6778 32.5782 29.698 31.2511 30.1642 29.4815L33.8939 18.7169C34.6709 16.6524 33.2723 14.8829 30.9412 14.8829H24.7251C23.7927 14.8829 23.0157 14.1456 23.1711 13.1133L23.9481 8.39459C24.2589 7.06743 23.3265 5.59282 21.9278 5.15044C20.6846 4.70805 19.1306 5.2979 18.509 6.18267L12.1375 15.1778" stroke="#292D32" stroke-width="1.32114" stroke-miterlimit="10"/>
<path d="M4.21167 27.6162V13.165C4.21167 11.1006 5.14409 10.3633 7.31973 10.3633H8.87376C11.0494 10.3633 11.9818 11.1006 11.9818 13.165V27.6162C11.9818 29.6807 11.0494 30.418 8.87376 30.418H7.31973C5.14409 30.418 4.21167 29.6807 4.21167 27.6162Z" stroke="#292D32" stroke-width="1.32114" stroke-linecap="round" stroke-linejoin="round"/>
</svg>
