<svg width="22" height="20" viewBox="0 0 22 20" fill="none" xmlns="http://www.w3.org/2000/svg">
<path d="M10.8314 19.8499C10.5249 19.8499 10.2282 19.8103 9.98107 19.7213C6.20416 18.4261 0.202637 13.8286 0.202637 7.03606C0.202637 3.57554 3.00071 0.767578 6.44145 0.767578C8.11239 0.767578 9.67456 1.42013 10.8314 2.58682C11.9882 1.42013 13.5503 0.767578 15.2213 0.767578C18.662 0.767578 21.4601 3.58543 21.4601 7.03606C21.4601 13.8384 15.4586 18.4261 11.6817 19.7213C11.4345 19.8103 11.1379 19.8499 10.8314 19.8499ZM6.44145 2.25066C3.82135 2.25066 1.68572 4.39618 1.68572 7.03606C1.68572 13.789 8.1816 17.5461 10.4655 18.3272C10.6435 18.3865 11.0291 18.3865 11.2071 18.3272C13.4811 17.5461 19.9869 13.7989 19.9869 7.03606C19.9869 4.39618 17.8513 2.25066 15.2312 2.25066C13.7283 2.25066 12.3342 2.95265 11.4345 4.16877C11.1576 4.54448 10.5249 4.54448 10.248 4.16877C9.32851 2.94276 7.94431 2.25066 6.44145 2.25066Z" fill="white"/>
</svg>
