<svg width="38" height="36" viewBox="0 0 38 36" fill="none" xmlns="http://www.w3.org/2000/svg">
<path d="M11.1931 27.5973L16.0106 31.1363C16.6322 31.7262 18.0308 32.0211 18.9633 32.0211H24.8686C26.7334 32.0211 28.7537 30.6939 29.2199 28.9244L32.9495 18.1597C33.7266 16.0953 32.3279 14.3258 29.9969 14.3258H23.7808C22.8483 14.3258 22.0713 13.5884 22.2267 12.5562L23.0037 7.83746C23.3146 6.51031 22.3821 5.03569 20.9835 4.59331C19.7403 4.15093 18.1863 4.74077 17.5646 5.62554L11.1931 14.6207" fill="#65A442"/>
<path d="M4.26733 27.0591V12.6079C4.26733 10.5435 5.19975 9.80615 7.3754 9.80615H8.92943C11.1051 9.80615 12.0375 10.5435 12.0375 12.6079V27.0591C12.0375 29.1236 11.1051 29.8609 8.92943 29.8609H7.3754C5.19975 29.8609 4.26733 29.1236 4.26733 27.0591Z" fill="#65A442"/>
</svg>
