<svg width="23" height="23" viewBox="0 0 23 23" fill="none" xmlns="http://www.w3.org/2000/svg">
<path d="M11.6824 22.2066C17.628 22.2066 22.4479 17.3868 22.4479 11.4412C22.4479 5.49563 17.628 0.675781 11.6824 0.675781C5.73684 0.675781 0.916992 5.49563 0.916992 11.4412C0.916992 17.3868 5.73684 22.2066 11.6824 22.2066Z" fill="#0B69C7"/>
<path d="M9.27465 7.52751C9.27493 7.81843 9.1889 8.1029 9.02744 8.34491C8.86599 8.58693 8.63637 8.7756 8.36764 8.88706C8.09892 8.99852 7.80316 9.02776 7.51782 8.97107C7.23247 8.91439 6.97035 8.77432 6.76464 8.56861C6.55892 8.36289 6.41886 8.10077 6.36217 7.81543C6.30548 7.53008 6.33472 7.23433 6.44618 6.9656C6.55764 6.69687 6.74632 6.46725 6.98833 6.3058C7.23034 6.14435 7.51481 6.05831 7.80573 6.05859C8.1952 6.05897 8.5686 6.21385 8.844 6.48924C9.11939 6.76464 9.27427 7.13804 9.27465 7.52751Z" fill="white"/>
<path d="M8.57981 9.61035H7.03299C6.83193 9.61035 6.66895 9.77334 6.66895 9.97439V16.4606C6.66895 16.6616 6.83193 16.8246 7.03299 16.8246H8.57981C8.78086 16.8246 8.94385 16.6616 8.94385 16.4606V9.97439C8.94385 9.77334 8.78086 9.61035 8.57981 9.61035Z" fill="white"/>
<path d="M17.0305 13.3492V16.4896C17.0305 16.5783 16.9952 16.6633 16.9326 16.726C16.8699 16.7887 16.7848 16.8239 16.6962 16.8239H15.036C14.9474 16.8239 14.8623 16.7887 14.7996 16.726C14.737 16.6633 14.7017 16.5783 14.7017 16.4896V13.447C14.7017 12.9923 14.8335 11.4639 13.5147 11.4639C12.492 11.4639 12.2838 12.5149 12.2398 12.9866V16.4967C12.238 16.5836 12.2024 16.6664 12.1405 16.7275C12.0786 16.7886 11.9953 16.8232 11.9084 16.8239H10.3021C10.2581 16.8241 10.2146 16.8156 10.1739 16.7988C10.1333 16.7821 10.0964 16.7575 10.0653 16.7264C10.0342 16.6953 10.0096 16.6584 9.99284 16.6178C9.97611 16.5771 9.96759 16.5336 9.96778 16.4896V9.94537C9.96759 9.90135 9.9761 9.85773 9.99282 9.817C10.0095 9.77628 10.0341 9.73926 10.0652 9.70807C10.0962 9.67688 10.1332 9.65213 10.1738 9.63524C10.2145 9.61835 10.2581 9.60966 10.3021 9.60966H11.9084C11.9529 9.6089 11.9972 9.61703 12.0386 9.63357C12.08 9.6501 12.1177 9.67471 12.1494 9.70596C12.1812 9.73721 12.2065 9.77447 12.2237 9.81557C12.2409 9.85668 12.2498 9.9008 12.2498 9.94537V10.512C12.6294 9.94537 13.1932 9.50342 14.3929 9.50342C17.046 9.502 17.0305 11.9851 17.0305 13.3492Z" fill="white"/>
</svg>
