<svg width="20" height="20" viewBox="0 0 20 20" fill="none" xmlns="http://www.w3.org/2000/svg">
<g clip-path="url(#clip0_63_521)">
<path d="M17.9472 0.543488H2.03506C1.66957 0.543488 1.31905 0.688678 1.06061 0.947118C0.802173 1.20556 0.656982 1.55608 0.656982 1.92157V17.8337C0.656982 18.1992 0.802173 18.5497 1.06061 18.8081C1.31905 19.0666 1.66957 19.2117 2.03506 19.2117H17.9472C18.3127 19.2117 18.6632 19.0666 18.9216 18.8081C19.1801 18.5497 19.3252 18.1992 19.3252 17.8337V1.92157C19.3252 1.55608 19.1801 1.20556 18.9216 0.947118C18.6632 0.688678 18.3127 0.543488 17.9472 0.543488ZM6.22116 16.4465H3.41444V7.53112H6.22116V16.4465ZM4.81586 6.29565C4.49748 6.29385 4.18677 6.19779 3.92294 6.01958C3.65911 5.84137 3.45399 5.589 3.33345 5.29432C3.21291 4.99964 3.18237 4.67586 3.24567 4.36383C3.30898 4.05181 3.46329 3.76553 3.68914 3.54113C3.91499 3.31672 4.20225 3.16425 4.51467 3.10295C4.8271 3.04165 5.15068 3.07428 5.44458 3.1967C5.73848 3.31913 5.98952 3.52587 6.16604 3.79084C6.34255 4.05581 6.43662 4.36713 6.43636 4.68551C6.43937 4.89866 6.39943 5.11024 6.31892 5.30763C6.23841 5.50502 6.11899 5.68418 5.96777 5.83444C5.81655 5.98469 5.63662 6.10296 5.43872 6.1822C5.24082 6.26143 5.02899 6.30002 4.81586 6.29565ZM16.5665 16.4543H13.7611V11.5837C13.7611 10.1473 13.1505 9.7039 12.3622 9.7039C11.5299 9.7039 10.7132 10.3314 10.7132 11.62V16.4543H7.90649V7.5376H10.6056V8.77308H10.6419C10.9129 8.2247 11.8618 7.2874 13.3099 7.2874C14.876 7.2874 16.5678 8.21692 16.5678 10.9394L16.5665 16.4543Z" fill="#0A66C2"/>
</g>
<defs>
<clipPath id="clip0_63_521">
<rect width="18.6683" height="18.6683" fill="white" transform="translate(0.656982 0.543488)"/>
</clipPath>
</defs>
</svg>
