<svg width="9" height="9" viewBox="0 0 9 9" fill="none" xmlns="http://www.w3.org/2000/svg">
<path d="M0.18457 1.44765L3.18493 0.15918L5.75666 1.44765L8.45827 0.287469C8.5671 0.240749 8.69307 0.291244 8.7397 0.400258C8.75111 0.426989 8.75702 0.455769 8.75702 0.48485V7.46053L5.75666 8.74901L3.18493 7.46053L0.483303 8.62072C0.37451 8.66745 0.248525 8.61694 0.2019 8.50793C0.190464 8.48122 0.18457 8.4524 0.18457 8.42332V1.44765ZM6.18529 7.6304L7.89978 6.89412V1.46186L6.18529 2.19813V7.6304ZM5.32804 7.57388V2.19328L3.61355 1.3343V6.71489L5.32804 7.57388ZM2.75631 6.71004V1.27779L1.04182 2.01406V7.44632L2.75631 6.71004Z" fill="white"/>
</svg>
