<svg width="25" height="25" viewBox="0 0 25 25" fill="none" xmlns="http://www.w3.org/2000/svg">
<path d="M8.91672 19.6655H8.40482C4.30958 19.6655 2.26196 18.6417 2.26196 13.5226V8.4036C2.26196 4.30836 4.30958 2.26074 8.40482 2.26074H16.5953C20.6905 2.26074 22.7382 4.30836 22.7382 8.4036V13.5226C22.7382 17.6179 20.6905 19.6655 16.5953 19.6655H16.0834C15.766 19.6655 15.4589 19.8191 15.2643 20.075L13.7286 22.1226C13.0529 23.0236 11.9472 23.0236 11.2715 22.1226L9.73577 20.075C9.57196 19.8498 9.19315 19.6655 8.91672 19.6655Z" stroke="#65A442" stroke-width="1.53571" stroke-miterlimit="10" stroke-linecap="round" stroke-linejoin="round"/>
<path d="M16.5917 11.4758H16.6009" stroke="#65A442" stroke-width="3.07143" stroke-linecap="round" stroke-linejoin="round"/>
<path d="M12.4953 11.4758H12.5045" stroke="#65A442" stroke-width="3.07143" stroke-linecap="round" stroke-linejoin="round"/>
<path d="M8.3991 11.4758H8.4083" stroke="#65A442" stroke-width="3.07143" stroke-linecap="round" stroke-linejoin="round"/>
</svg>
