<svg width="53" height="53" viewBox="0 0 53 53" fill="none" xmlns="http://www.w3.org/2000/svg">
<path d="M47.2319 23.4403C47.3321 24.1219 47.3999 24.814 47.4337 25.515L47.1022 25.531C47.1186 25.871 47.1269 26.2132 47.1269 26.5574C47.1269 26.9015 47.1186 27.2437 47.1022 27.5838L47.4337 27.5998C47.3999 28.3008 47.3321 28.9929 47.2319 29.6744L46.9035 29.6262C46.8032 30.3083 46.67 30.9797 46.5056 31.6387L46.8277 31.719C46.6584 32.3975 46.4565 33.0629 46.2238 33.7138L45.9113 33.602C45.6799 34.249 45.4176 34.8813 45.1261 35.4971L45.4261 35.6391C45.1278 36.2693 44.7994 36.8824 44.4427 37.4766L44.1581 37.3058C43.8053 37.8937 43.4245 38.4627 43.0174 39.0111L43.284 39.209C42.8693 39.7676 42.4278 40.3052 41.9615 40.8198L41.7156 40.597C41.256 41.1041 40.772 41.5885 40.2653 42.0484L40.4884 42.2942C39.9741 42.761 39.4369 43.2028 38.8785 43.6179L38.6805 43.3515C38.1324 43.759 37.5636 44.1403 36.9761 44.4935L37.1471 44.778C36.5531 45.1351 35.9402 45.4639 35.3102 45.7626L35.168 45.4627C34.5524 45.7546 33.9203 46.0173 33.2734 46.249L33.3853 46.5614C32.7346 46.7945 32.0692 46.9967 31.3909 47.1662L31.3104 46.8442C30.6515 47.0089 29.9802 47.1422 29.2981 47.2427L29.3464 47.571C28.6649 47.6714 27.9728 47.7393 27.2718 47.7732L27.2558 47.4417C26.9158 47.4581 26.5736 47.4664 26.2294 47.4664C25.8853 47.4664 25.5431 47.4581 25.2031 47.4417L25.187 47.7732C24.486 47.7393 23.794 47.6714 23.1124 47.571L23.1608 47.2427C22.4787 47.1422 21.8073 47.0089 21.1484 46.8442L21.0679 47.1662C20.3896 46.9967 19.7242 46.7945 19.0735 46.5614L19.1854 46.249C18.5386 46.0173 17.9064 45.7546 17.2908 45.4627L17.1486 45.7626C16.5186 45.4639 15.9057 45.1351 15.3117 44.778L15.4828 44.4935C14.8952 44.1403 14.3265 43.759 13.7783 43.3515L13.5803 43.6179C13.022 43.2028 12.4847 42.7609 11.9705 42.2942L12.1936 42.0484C11.6868 41.5885 11.2028 41.1041 10.7433 40.597L10.4973 40.8198C10.031 40.3052 9.58956 39.7676 9.17489 39.209L9.44142 39.0111C9.03435 38.4627 8.6535 37.8937 8.30073 37.3058L8.01612 37.4766C7.65949 36.8824 7.33108 36.2693 7.03276 35.6391L7.33276 35.4971C7.04125 34.8813 6.77892 34.249 6.54757 33.602L6.23502 33.7138C6.00231 33.0629 5.80044 32.3975 5.63117 31.719L5.95322 31.6387C5.7888 30.9797 5.65562 30.3083 5.55536 29.6262L5.22697 29.6744C5.12679 28.9929 5.05897 28.3008 5.02512 27.5998L5.35665 27.5838C5.34023 27.2437 5.33192 26.9015 5.33192 26.5574C5.33192 26.2132 5.34023 25.871 5.35665 25.531L5.02512 25.515C5.05897 24.814 5.12679 24.1219 5.22697 23.4403L5.55536 23.4886C5.65562 22.8065 5.7888 22.1351 5.95322 21.4761L5.63117 21.3957C5.80044 20.7173 6.00231 20.0518 6.23502 19.401L6.54757 19.5128C6.77892 18.8657 7.04125 18.2335 7.33277 17.6177L7.03276 17.4756C7.33109 16.8455 7.65949 16.2324 8.01613 15.6381L8.30073 15.8089C8.65351 15.2211 9.03435 14.6521 9.44142 14.1036L9.17489 13.9058C9.58956 13.3471 10.031 12.8096 10.4973 12.2949L10.7433 12.5178C11.2028 12.0107 11.6868 11.5263 12.1936 11.0664L11.9705 10.8206C12.4847 10.3538 13.022 9.91195 13.5803 9.49687L13.7783 9.76324C14.3265 9.35573 14.8952 8.97445 15.4828 8.62127L15.3117 8.3368C15.9057 7.97972 16.5187 7.65089 17.1486 7.35218L17.2908 7.6521C17.9064 7.36018 18.5386 7.0975 19.1854 6.86582L19.0735 6.55333C19.7242 6.32028 20.3896 6.11811 21.0679 5.94858L21.1484 6.2706C21.8073 6.10592 22.4787 5.97254 23.1608 5.87212L23.1124 5.54374C23.794 5.44341 24.486 5.37548 25.187 5.34156L25.2031 5.6731C25.5431 5.65665 25.8853 5.64833 26.2294 5.64833C26.5736 5.64833 26.9158 5.65665 27.2558 5.6731L27.2718 5.34156C27.9728 5.37548 28.6649 5.44341 29.3464 5.54374L29.2981 5.87212C29.9802 5.97254 30.6515 6.10592 31.3104 6.2706L31.3909 5.94858C32.0692 6.11811 32.7346 6.32028 33.3853 6.55333L33.2734 6.86582C33.9203 7.0975 34.5524 7.36018 35.168 7.6521L35.3103 7.35218C35.9402 7.65089 36.5531 7.97972 37.1471 8.3368L36.9761 8.62128C37.5636 8.97446 38.1324 9.35573 38.6805 9.76324L38.8785 9.49687C39.4369 9.91195 39.9741 10.3538 40.4884 10.8206L40.2653 11.0664C40.772 11.5263 41.256 12.0107 41.7156 12.5178L41.9615 12.2949C42.4278 12.8096 42.8693 13.3471 43.284 13.9058L43.0174 14.1037C43.4245 14.6521 43.8053 15.2211 44.1581 15.8089L44.4427 15.6381C44.7994 16.2324 45.1278 16.8455 45.4261 17.4757L45.1261 17.6177C45.4176 18.2335 45.6799 18.8658 45.9113 19.5128L46.2238 19.401C46.4565 20.0518 46.6584 20.7173 46.8277 21.3957L46.5056 21.4761C46.67 22.1351 46.8032 22.8065 46.9035 23.4886L47.2319 23.4403Z" stroke="#091138" stroke-opacity="0.3" stroke-width="0.663847" stroke-dasharray="1.99 1.99"/>
<g filter="url(#filter0_d_630_1347)">
<ellipse cx="26.2289" cy="26.5592" rx="18.3988" ry="18.4088" fill="white"/>
</g>
<g clip-path="url(#clip0_630_1347)">
<path d="M26.2278 38.5643C32.8547 38.5643 38.227 33.1891 38.227 26.5585C38.227 19.9279 32.8547 14.5527 26.2278 14.5527C19.6008 14.5527 14.2285 19.9279 14.2285 26.5585C14.2285 33.1891 19.6008 38.5643 26.2278 38.5643Z" fill="url(#paint0_linear_630_1347)"/>
<path d="M14.2285 26.5575C14.2285 33.1888 19.6 38.5633 26.2278 38.5633C32.8555 38.5633 38.227 33.1888 38.227 26.5575C38.227 25.3616 38.0489 24.2033 37.7255 23.1152H14.73C14.4066 24.2033 14.2285 25.3616 14.2285 26.5575Z" fill="url(#paint1_linear_630_1347)"/>
<path d="M26.2275 14.5527C24.8588 14.5527 23.5417 14.7825 22.3184 15.2046V37.9124C23.5464 38.3345 24.8588 38.5643 26.2275 38.5643C32.8552 38.5643 38.2267 33.1898 38.2267 26.5585C38.2267 19.9272 32.8552 14.5527 26.2275 14.5527Z" fill="url(#paint2_linear_630_1347)"/>
<path d="M20.0922 17.7081C21.6109 16.9623 23.2795 17.2437 23.8186 18.3365C24.3576 19.4294 23.5608 20.9255 22.0374 21.6713C20.5141 22.417 18.8501 22.1356 18.3111 21.0428C17.7721 19.95 18.5689 18.4585 20.0922 17.7081Z" fill="url(#paint3_linear_630_1347)"/>
<path d="M17.0265 30.0207C16.2812 30.3866 15.714 30.9775 15.3672 31.667C16.3609 33.7729 17.9451 35.5458 19.9091 36.7653C20.031 36.7231 20.1481 36.6715 20.2653 36.6105C22.0839 35.7147 22.8339 33.5149 21.9433 31.6951C21.0481 29.8753 18.8451 29.1249 17.0265 30.0207Z" fill="url(#paint4_linear_630_1347)"/>
<path d="M26.8888 20.6782C28.0138 20.1247 29.2465 20.3358 29.6402 21.1425C30.034 21.9492 29.4481 23.0561 28.3231 23.6049C27.1982 24.1583 25.9655 23.9472 25.5717 23.1405C25.178 22.3338 25.7639 21.2269 26.8888 20.6782Z" fill="url(#paint5_linear_630_1347)"/>
<path d="M17.4104 23.1497C18.2025 22.7604 19.0743 22.9058 19.3556 23.478C19.6368 24.0503 19.2196 24.8288 18.4275 25.2181C17.6354 25.6074 16.7635 25.462 16.4823 24.8898C16.2011 24.3176 16.6182 23.539 17.4104 23.1497Z" fill="url(#paint6_linear_630_1347)"/>
<path d="M24.0904 31.2518C24.8826 30.8625 25.8013 31.1064 26.1387 31.7958C26.4762 32.4853 26.1106 33.3624 25.3185 33.7517C24.5263 34.141 23.6077 33.8971 23.2702 33.2076C22.928 32.5181 23.2983 31.6411 24.0904 31.2518Z" fill="url(#paint7_linear_630_1347)"/>
<path d="M31.2154 32.6758C32.406 32.0895 33.709 32.31 34.1309 33.1683C34.5527 34.0266 33.9293 35.1945 32.7388 35.7761C31.5482 36.3623 30.2452 36.1419 29.8233 35.2836C29.4015 34.4253 30.0249 33.2574 31.2154 32.6758Z" fill="url(#paint8_linear_630_1347)"/>
<path d="M34.8003 25.8277C35.6253 25.4196 36.5346 25.5744 36.8252 26.1701C37.1158 26.7657 36.6846 27.5771 35.8596 27.9805C35.0347 28.3885 34.1254 28.2338 33.8348 27.6381C33.5442 27.0424 33.9754 26.231 34.8003 25.8277Z" fill="url(#paint9_linear_630_1347)"/>
<path d="M30.2722 19.5433C30.9219 19.5433 31.4487 19.0982 31.4487 18.549C31.4487 17.9999 30.9219 17.5547 30.2722 17.5547C29.6224 17.5547 29.0957 17.9999 29.0957 18.549C29.0957 19.0982 29.6224 19.5433 30.2722 19.5433Z" fill="url(#paint10_linear_630_1347)"/>
<path d="M38.2267 26.5595C38.2267 21.8697 35.5409 17.8131 31.6224 15.834L15.5078 31.9621C17.4858 35.878 21.5402 38.5652 26.2274 38.5652C32.8551 38.5652 38.2267 33.1908 38.2267 26.5595Z" fill="url(#paint11_linear_630_1347)"/>
</g>
<defs>
<filter id="filter0_d_630_1347" x="0.441167" y="0.76148" width="51.5747" height="51.5952" filterUnits="userSpaceOnUse" color-interpolation-filters="sRGB">
<feFlood flood-opacity="0" result="BackgroundImageFix"/>
<feColorMatrix in="SourceAlpha" type="matrix" values="0 0 0 0 0 0 0 0 0 0 0 0 0 0 0 0 0 0 127 0" result="hardAlpha"/>
<feOffset/>
<feGaussianBlur stdDeviation="3.69446"/>
<feComposite in2="hardAlpha" operator="out"/>
<feColorMatrix type="matrix" values="0 0 0 0 0.284033 0 0 0 0 0.284033 0 0 0 0 0.284033 0 0 0 0.25 0"/>
<feBlend mode="normal" in2="BackgroundImageFix" result="effect1_dropShadow_630_1347"/>
<feBlend mode="normal" in="SourceGraphic" in2="effect1_dropShadow_630_1347" result="shape"/>
</filter>
<linearGradient id="paint0_linear_630_1347" x1="17.0257" y1="17.3514" x2="35.4884" y2="35.8041" gradientUnits="userSpaceOnUse">
<stop stop-color="#E5E1E5"/>
<stop offset="0.198" stop-color="#E1DCE1"/>
<stop offset="0.4032" stop-color="#D5D0D5"/>
<stop offset="0.6118" stop-color="#C2BBC1"/>
<stop offset="0.8212" stop-color="#A79EA6"/>
<stop offset="1" stop-color="#8B8089"/>
</linearGradient>
<linearGradient id="paint1_linear_630_1347" x1="26.2278" y1="28.9627" x2="26.2278" y2="43.9106" gradientUnits="userSpaceOnUse">
<stop stop-color="#444444" stop-opacity="0"/>
<stop offset="0.2378" stop-color="#444444" stop-opacity="0.061"/>
<stop offset="0.4841" stop-color="#444444" stop-opacity="0.244"/>
<stop offset="0.7343" stop-color="#444444" stop-opacity="0.549"/>
<stop offset="0.9859" stop-color="#444444" stop-opacity="0.973"/>
<stop offset="1" stop-color="#444444"/>
</linearGradient>
<linearGradient id="paint2_linear_630_1347" x1="28.5408" y1="27.0295" x2="44.3389" y2="30.2445" gradientUnits="userSpaceOnUse">
<stop stop-color="#444444" stop-opacity="0"/>
<stop offset="0.2378" stop-color="#444444" stop-opacity="0.061"/>
<stop offset="0.4841" stop-color="#444444" stop-opacity="0.244"/>
<stop offset="0.7343" stop-color="#444444" stop-opacity="0.549"/>
<stop offset="0.9859" stop-color="#444444" stop-opacity="0.973"/>
<stop offset="1" stop-color="#444444"/>
</linearGradient>
<linearGradient id="paint3_linear_630_1347" x1="22.9089" y1="21.3703" x2="16.793" y2="15.8269" gradientUnits="userSpaceOnUse">
<stop stop-color="#E5E1E5"/>
<stop offset="0.198" stop-color="#E1DCE1"/>
<stop offset="0.4032" stop-color="#D5D0D5"/>
<stop offset="0.6118" stop-color="#C2BBC1"/>
<stop offset="0.8212" stop-color="#A79EA6"/>
<stop offset="1" stop-color="#8B8089"/>
</linearGradient>
<linearGradient id="paint4_linear_630_1347" x1="23.6626" y1="37.3572" x2="16.2396" y2="29.4044" gradientUnits="userSpaceOnUse">
<stop stop-color="#E5E1E5"/>
<stop offset="0.198" stop-color="#E1DCE1"/>
<stop offset="0.4032" stop-color="#D5D0D5"/>
<stop offset="0.6118" stop-color="#C2BBC1"/>
<stop offset="0.8212" stop-color="#A79EA6"/>
<stop offset="1" stop-color="#8B8089"/>
</linearGradient>
<linearGradient id="paint5_linear_630_1347" x1="28.9727" y1="23.389" x2="24.4522" y2="19.2918" gradientUnits="userSpaceOnUse">
<stop stop-color="#E5E1E5"/>
<stop offset="0.198" stop-color="#E1DCE1"/>
<stop offset="0.4032" stop-color="#D5D0D5"/>
<stop offset="0.6118" stop-color="#C2BBC1"/>
<stop offset="0.8212" stop-color="#A79EA6"/>
<stop offset="1" stop-color="#8B8089"/>
</linearGradient>
<linearGradient id="paint6_linear_630_1347" x1="18.8788" y1="25.0654" x2="15.6878" y2="22.1732" gradientUnits="userSpaceOnUse">
<stop stop-color="#E5E1E5"/>
<stop offset="0.198" stop-color="#E1DCE1"/>
<stop offset="0.4032" stop-color="#D5D0D5"/>
<stop offset="0.6118" stop-color="#C2BBC1"/>
<stop offset="0.8212" stop-color="#A79EA6"/>
<stop offset="1" stop-color="#8B8089"/>
</linearGradient>
<linearGradient id="paint7_linear_630_1347" x1="29.0617" y1="36.152" x2="23.3115" y2="31.341" gradientUnits="userSpaceOnUse">
<stop stop-color="#E5E1E5"/>
<stop offset="0.198" stop-color="#E1DCE1"/>
<stop offset="0.4032" stop-color="#D5D0D5"/>
<stop offset="0.6118" stop-color="#C2BBC1"/>
<stop offset="0.8212" stop-color="#A79EA6"/>
<stop offset="1" stop-color="#8B8089"/>
</linearGradient>
<linearGradient id="paint8_linear_630_1347" x1="37.6949" y1="39.2483" x2="30.5065" y2="32.9604" gradientUnits="userSpaceOnUse">
<stop stop-color="#E5E1E5"/>
<stop offset="0.198" stop-color="#E1DCE1"/>
<stop offset="0.4032" stop-color="#D5D0D5"/>
<stop offset="0.6118" stop-color="#C2BBC1"/>
<stop offset="0.8212" stop-color="#A79EA6"/>
<stop offset="1" stop-color="#8B8089"/>
</linearGradient>
<linearGradient id="paint9_linear_630_1347" x1="41.3818" y1="32.2137" x2="34.1935" y2="25.9258" gradientUnits="userSpaceOnUse">
<stop stop-color="#E5E1E5"/>
<stop offset="0.198" stop-color="#E1DCE1"/>
<stop offset="0.4032" stop-color="#D5D0D5"/>
<stop offset="0.6118" stop-color="#C2BBC1"/>
<stop offset="0.8212" stop-color="#A79EA6"/>
<stop offset="1" stop-color="#8B8089"/>
</linearGradient>
<linearGradient id="paint10_linear_630_1347" x1="30.8376" y1="19.7022" x2="29.5331" y2="17.0448" gradientUnits="userSpaceOnUse">
<stop stop-color="#E5E1E5"/>
<stop offset="0.198" stop-color="#E1DCE1"/>
<stop offset="0.4032" stop-color="#D5D0D5"/>
<stop offset="0.6118" stop-color="#C2BBC1"/>
<stop offset="0.8212" stop-color="#A79EA6"/>
<stop offset="1" stop-color="#8B8089"/>
</linearGradient>
<linearGradient id="paint11_linear_630_1347" x1="26.8179" y1="27.1511" x2="39.4088" y2="39.735" gradientUnits="userSpaceOnUse">
<stop stop-color="#444444" stop-opacity="0"/>
<stop offset="0.2378" stop-color="#444444" stop-opacity="0.061"/>
<stop offset="0.4841" stop-color="#444444" stop-opacity="0.244"/>
<stop offset="0.7343" stop-color="#444444" stop-opacity="0.549"/>
<stop offset="0.9859" stop-color="#444444" stop-opacity="0.973"/>
<stop offset="1" stop-color="#444444"/>
</linearGradient>
<clipPath id="clip0_630_1347">
<rect width="23.9985" height="24.0115" fill="white" transform="translate(14.2285 14.5547)"/>
</clipPath>
</defs>
</svg>
