<svg width="56" height="57" viewBox="0 0 56 57" fill="none" xmlns="http://www.w3.org/2000/svg">
<path d="M48.9232 25.4218C49.0234 26.1032 49.0912 26.7951 49.1251 27.4959L48.7938 27.5119C48.8102 27.8518 48.8185 28.1939 48.8185 28.538C48.8185 28.8821 48.8102 29.2241 48.7938 29.5641L49.1251 29.5801C49.0912 30.2809 49.0234 30.9728 48.9232 31.6542L48.595 31.6059C48.4947 32.2878 48.3614 32.959 48.1969 33.6178L48.5187 33.6982C48.3494 34.3763 48.1474 35.0416 47.9146 35.6922L47.6023 35.5804C47.3708 36.2272 47.1084 36.8592 46.8168 37.4748L47.1165 37.6168C46.8181 38.2467 46.4896 38.8595 46.1328 39.4535L45.8484 39.2827C45.4956 39.8702 45.1146 40.4389 44.7074 40.9871L44.9737 41.1849C44.5589 41.7432 44.1174 42.2805 43.651 42.7948L43.4053 42.572C42.9457 43.0787 42.4616 43.5628 41.9548 44.0224L42.1776 44.2681C41.6633 44.7346 41.1261 45.1761 40.5677 45.5909L40.3699 45.3246C39.8218 45.7318 39.253 46.1127 38.6655 46.4656L38.8363 46.75C38.2424 47.1067 37.6295 47.4352 36.9996 47.7337L36.8576 47.4339C36.2421 47.7255 35.61 47.988 34.9633 48.2194L35.075 48.5318C34.4244 48.7646 33.7592 48.9665 33.081 49.1359L33.0006 48.8141C32.3418 48.9786 31.6707 49.1118 30.9887 49.2121L31.037 49.5403C30.3556 49.6405 29.6637 49.7084 28.9629 49.7423L28.9469 49.4109C28.607 49.4274 28.2649 49.4357 27.9208 49.4357C27.5768 49.4357 27.2347 49.4274 26.8947 49.4109L26.8787 49.7423C26.1779 49.7084 25.486 49.6405 24.8047 49.5403L24.8529 49.2121C24.171 49.1118 23.4998 48.9786 22.841 48.8141L22.7607 49.1359C22.0825 48.9665 21.4172 48.7646 20.7666 48.5318L20.8784 48.2194C20.2316 47.988 19.5996 47.7255 18.984 47.4339L18.842 47.7337C18.2121 47.4352 17.5993 47.1067 17.0053 46.75L17.1761 46.4656C16.5886 46.1127 16.0199 45.7318 15.4717 45.3246L15.2739 45.5909C14.7156 45.1761 14.1783 44.7346 13.664 44.2681L13.8869 44.0224C13.3801 43.5628 12.896 43.0787 12.4364 42.572L12.1907 42.7948C11.7243 42.2805 11.2827 41.7432 10.8679 41.1849L11.1342 40.9871C10.727 40.4389 10.3461 39.8702 9.9932 39.2827L9.70885 39.4535C9.35209 38.8595 9.02356 38.2467 8.72512 37.6168L9.02489 37.4748C8.73325 36.8592 8.47081 36.2272 8.23936 35.5804L7.92705 35.6922C7.69423 35.0416 7.49226 34.3763 7.32291 33.6982L7.64474 33.6178C7.48023 32.959 7.34698 32.2878 7.24667 31.6059L6.91849 31.6542C6.81827 30.9728 6.75041 30.2809 6.71654 29.5801L7.04786 29.5641C7.03143 29.2241 7.02312 28.8821 7.02312 28.538C7.02312 28.1939 7.03143 27.8518 7.04786 27.5119L6.71654 27.4959C6.75041 26.7951 6.81827 26.1032 6.91849 25.4218L7.24667 25.4701C7.34698 24.7882 7.48023 24.117 7.64474 23.4582L7.32291 23.3778C7.49226 22.6996 7.69423 22.0344 7.92705 21.3838L8.23936 21.4956C8.47081 20.8488 8.73325 20.2167 9.02489 19.6012L8.72512 19.4592C9.02356 18.8293 9.35208 18.2165 9.70884 17.6225L9.9932 17.7933C10.3461 17.2058 10.727 16.637 11.1342 16.0889L10.8679 15.8911C11.2827 15.3328 11.7242 14.7955 12.1907 14.2812L12.4364 14.504C12.896 13.9973 13.3801 13.5131 13.8868 13.0536L13.664 12.8078C14.1783 12.3414 14.7156 11.8999 15.2739 11.4851L15.4717 11.7514C16.0199 11.3442 16.5886 10.9633 17.1761 10.6104L17.0053 10.326C17.5993 9.96926 18.2121 9.64074 18.842 9.3423L18.984 9.64207C19.5996 9.35043 20.2316 9.088 20.8784 8.85654L20.7666 8.54423C21.4172 8.31141 22.0825 8.10944 22.7607 7.94009L22.841 8.26192C23.4998 8.09741 24.171 7.96417 24.8529 7.86386L24.8047 7.53568C25.486 7.43546 26.1779 7.3676 26.8787 7.33372L26.8947 7.66505C27.2347 7.64862 27.5768 7.6403 27.9208 7.6403C28.2649 7.6403 28.607 7.64862 28.9469 7.66505L28.9629 7.33372C29.6637 7.3676 30.3556 7.43546 31.037 7.53568L30.9887 7.86386C31.6707 7.96417 32.3418 8.09742 33.0006 8.26192L33.081 7.94009C33.7592 8.10945 34.4244 8.31141 35.075 8.54423L34.9633 8.85654C35.61 9.088 36.2421 9.35043 36.8576 9.64207L36.9996 9.3423C37.6295 9.64074 38.2424 9.96926 38.8363 10.326L38.6655 10.6104C39.253 10.9633 39.8218 11.3442 40.3699 11.7514L40.5677 11.4851C41.1261 11.8999 41.6633 12.3414 42.1776 12.8078L41.9548 13.0535C42.4616 13.5131 42.9457 13.9972 43.4053 14.504L43.651 14.2812C44.1174 14.7955 44.5589 15.3328 44.9737 15.8911L44.7074 16.0889C45.1146 16.637 45.4956 17.2058 45.8484 17.7933L46.1328 17.6225C46.4896 18.2165 46.8181 18.8293 47.1165 19.4592L46.8168 19.6012C47.1084 20.2167 47.3708 20.8488 47.6023 21.4956L47.9146 21.3838C48.1474 22.0344 48.3494 22.6996 48.5187 23.3778L48.1969 23.4582C48.3614 24.117 48.4947 24.7882 48.595 25.4701L48.9232 25.4218Z" stroke="#F5C27C" stroke-width="0.663419" stroke-dasharray="1.99 1.99"/>
<g filter="url(#filter0_d_630_1348)">
<ellipse cx="27.9203" cy="28.5394" rx="18.3988" ry="18.3988" fill="white"/>
</g>
<g clip-path="url(#clip0_630_1348)">
<path d="M28.3805 46.0716C37.8112 46.0716 45.4564 38.4265 45.4564 28.9957C45.4564 19.565 37.8112 11.9199 28.3805 11.9199C18.9498 11.9199 11.3047 19.565 11.3047 28.9957C11.3047 38.4265 18.9498 46.0716 28.3805 46.0716Z" fill="url(#paint0_radial_630_1348)"/>
<path d="M28.3808 15.4453C28.2986 15.7083 28.256 15.9713 28.2257 16.2342C28.1967 16.4971 28.1833 16.7602 28.1836 17.0231C28.1839 17.286 28.1973 17.549 28.2262 17.812C28.2568 18.0749 28.2991 18.3379 28.3808 18.6009C28.4626 18.3379 28.505 18.0749 28.5355 17.812C28.5644 17.549 28.5778 17.286 28.5781 17.0231C28.5784 16.7602 28.5649 16.4971 28.536 16.2342C28.5056 15.9713 28.4631 15.7083 28.3808 15.4453Z" fill="url(#paint1_radial_630_1348)"/>
<path d="M28.3808 39.3945C28.2986 39.6575 28.256 39.9205 28.2257 40.1834C28.1967 40.4464 28.1833 40.7094 28.1836 40.9723C28.1839 41.2353 28.1973 41.4983 28.2262 41.7612C28.2568 42.0241 28.2991 42.2871 28.3808 42.5501C28.4626 42.2871 28.505 42.0241 28.5355 41.7612C28.5644 41.4983 28.5778 41.2353 28.5781 40.9723C28.5784 40.7094 28.5649 40.4464 28.536 40.1834C28.5056 39.9205 28.4631 39.6575 28.3808 39.3945Z" fill="url(#paint2_radial_630_1348)"/>
<path d="M40.3551 28.8008C40.0922 28.801 39.8292 28.8145 39.5662 28.8434C39.3033 28.874 39.0403 28.9163 38.7773 28.998C39.0403 29.0798 39.3033 29.1222 39.5662 29.1526C39.8292 29.1816 40.0922 29.1951 40.3551 29.1953C40.6181 29.1956 40.8811 29.1821 41.144 29.1532C41.407 29.1228 41.67 29.0803 41.9329 28.998C41.67 28.9157 41.407 28.8732 41.144 28.8428C40.8811 28.814 40.6181 28.8005 40.3551 28.8008Z" fill="url(#paint3_radial_630_1348)"/>
<path d="M16.4079 29.1953C16.6708 29.1957 16.9338 29.1821 17.1967 29.1532C17.4597 29.1228 17.7227 29.0803 17.9856 28.998C17.7227 28.9158 17.4597 28.8733 17.1967 28.8429C16.9338 28.8139 16.6708 28.8005 16.4079 28.8008C16.1449 28.801 15.8819 28.8145 15.619 28.8434C15.356 28.874 15.093 28.9163 14.8301 28.998C15.093 29.0798 15.356 29.1222 15.619 29.1526C15.8819 29.1817 16.1449 29.1951 16.4079 29.1953Z" fill="url(#paint4_radial_630_1348)"/>
<path d="M36.3976 21.1988C36.6041 21.0333 36.7996 20.8569 36.9856 20.6712C37.1718 20.4855 37.3481 20.29 37.5137 20.0836C37.6782 19.8761 37.8341 19.6601 37.9618 19.416C37.7177 19.5438 37.5017 19.6997 37.2942 19.8641C37.0879 20.0297 36.8923 20.206 36.7067 20.3922C36.5208 20.5783 36.3445 20.7737 36.179 20.9802C36.0146 21.1877 35.8586 21.4036 35.7305 21.6474C35.9742 21.5192 36.19 21.3633 36.3976 21.1988Z" fill="url(#paint5_radial_630_1348)"/>
<path d="M20.3626 36.7957C20.1562 36.9613 19.9607 37.1376 19.775 37.3238C19.5893 37.5099 19.4128 37.7053 19.2473 37.9118C19.0829 38.1193 18.927 38.3352 18.7988 38.579C19.0426 38.4508 19.2585 38.2948 19.4661 38.1305C19.6724 37.965 19.868 37.7886 20.054 37.6028C20.2402 37.4171 20.4166 37.2216 20.5821 37.0152C20.7466 36.8078 20.9025 36.5917 21.0302 36.3477C20.7861 36.4753 20.5701 36.6312 20.3626 36.7957Z" fill="url(#paint6_radial_630_1348)"/>
<path d="M36.9857 37.3238C36.7996 37.1379 36.6041 36.9616 36.3977 36.7961C36.1902 36.6317 35.9743 36.4757 35.7305 36.3477C35.8587 36.5914 36.0146 36.8073 36.179 37.0149C36.3445 37.2213 36.5209 37.4168 36.7067 37.6029C36.8924 37.789 37.0879 37.9654 37.2942 38.1309C37.5017 38.2954 37.7177 38.4513 37.9618 38.5791C37.8341 38.335 37.6781 38.1189 37.5137 37.9115C37.3483 37.705 37.1719 37.5095 36.9857 37.3238Z" fill="url(#paint7_radial_630_1348)"/>
<path d="M19.7751 20.6712C19.9609 20.8573 20.1563 21.0337 20.3627 21.1992C20.5701 21.3637 20.7862 21.5196 21.0302 21.6473C20.9025 21.4033 20.7465 21.1872 20.5821 20.9798C20.4166 20.7734 20.2402 20.5778 20.054 20.3922C19.8679 20.2064 19.6725 20.03 19.4661 19.8645C19.2585 19.7001 19.0426 19.5442 18.7988 19.416C18.927 19.6597 19.083 19.8757 19.2473 20.0832C19.413 20.2896 19.5893 20.4851 19.7751 20.6712Z" fill="url(#paint8_radial_630_1348)"/>
<path d="M33.0159 17.954C33.114 17.71 33.1993 17.4609 33.2702 17.206C33.3397 16.9506 33.398 16.6907 33.4195 16.416C33.2454 16.6296 33.1081 16.8579 32.982 17.0907C32.8574 17.3241 32.7471 17.5632 32.6496 17.8074C32.5521 18.0516 32.4668 18.3008 32.3959 18.5556C32.3265 18.8111 32.268 19.071 32.2461 19.3455C32.4197 19.1317 32.5569 18.9033 32.683 18.6706C32.8077 18.4372 32.918 18.1982 33.0159 17.954Z" fill="url(#paint9_radial_630_1348)"/>
<path d="M23.7454 40.0379C23.6478 40.2821 23.5626 40.5312 23.4916 40.7861C23.4222 41.0416 23.3637 41.3014 23.3418 41.5759C23.5155 41.3622 23.6526 41.1338 23.7788 40.901C23.9034 40.6676 24.0137 40.4286 24.1117 40.1845C24.2097 39.9406 24.295 39.6914 24.3659 39.4365C24.4355 39.1811 24.4937 38.9212 24.5152 38.6465C24.3411 38.86 24.2039 39.0883 24.0778 39.3212C23.9533 39.5545 23.8429 39.7936 23.7454 40.0379Z" fill="url(#paint10_radial_630_1348)"/>
<path d="M39.5693 33.2649C39.3251 33.1673 39.0759 33.082 38.8211 33.0111C38.5656 32.9417 38.3057 32.8832 38.0312 32.8613C38.245 33.035 38.4734 33.1721 38.7061 33.2982C38.9395 33.4228 39.1786 33.5332 39.4226 33.6312C39.6666 33.7293 39.9157 33.8145 40.1706 33.8855C40.426 33.955 40.6859 34.0133 40.9606 34.0348C40.747 33.8607 40.5188 33.7234 40.2861 33.5973C40.0526 33.4727 39.8135 33.3623 39.5693 33.2649Z" fill="url(#paint11_radial_630_1348)"/>
<path d="M17.1922 24.7287C17.4362 24.8268 17.6853 24.9121 17.9402 24.983C18.1956 25.0526 18.4555 25.1108 18.7302 25.1323C18.5166 24.9582 18.2884 24.821 18.0555 24.6949C17.8221 24.5703 17.583 24.46 17.3388 24.3625C17.0946 24.2649 16.8455 24.1797 16.5906 24.1088C16.3351 24.0394 16.0753 23.9809 15.8008 23.959C16.0146 24.1327 16.2429 24.2698 16.4756 24.3959C16.7089 24.5205 16.9481 24.6307 17.1922 24.7287Z" fill="url(#paint12_radial_630_1348)"/>
<path d="M38.6019 24.4532C38.3722 24.5847 38.1471 24.7271 37.9375 24.9058C38.2114 24.8774 38.4699 24.813 38.7236 24.7375C38.9767 24.6607 39.2238 24.5695 39.4656 24.4663C39.7075 24.3631 39.9439 24.2472 40.1743 24.1172C40.404 23.9857 40.6291 23.8432 40.8385 23.6641C40.5644 23.6919 40.3059 23.7562 40.0522 23.8318C39.799 23.9087 39.552 23.9998 39.3104 24.1035C39.0687 24.2072 38.8322 24.3231 38.6019 24.4532Z" fill="url(#paint13_radial_630_1348)"/>
<path d="M18.1587 33.541C18.3885 33.4095 18.6135 33.267 18.8229 33.0879C18.5488 33.1158 18.2903 33.1801 18.0365 33.2556C17.7834 33.3326 17.5363 33.4236 17.2947 33.5273C17.0531 33.631 16.8166 33.7469 16.5863 33.8769C16.3566 34.0084 16.1315 34.1509 15.9219 34.3296C16.1958 34.3012 16.4542 34.2368 16.708 34.1613C16.9612 34.0844 17.2082 33.9933 17.45 33.8901C17.6919 33.787 17.9284 33.6711 18.1587 33.541Z" fill="url(#paint14_radial_630_1348)"/>
<path d="M33.2729 39.9256C33.1693 39.6839 33.0533 39.4475 32.9233 39.2172C32.7918 38.9874 32.6494 38.7623 32.4707 38.5527C32.4991 38.8267 32.5635 39.0851 32.639 39.3389C32.7159 39.592 32.807 39.8391 32.9102 40.0809C33.0134 40.3227 33.1293 40.5592 33.2593 40.7896C33.3907 41.0194 33.5333 41.2444 33.7124 41.4538C33.6846 41.1797 33.6203 40.9212 33.5447 40.6675C33.4677 40.4143 33.3767 40.1672 33.2729 39.9256Z" fill="url(#paint15_radial_630_1348)"/>
<path d="M23.8375 18.7739C23.9689 19.0037 24.1115 19.2288 24.2906 19.4381C24.2627 19.164 24.1984 18.9055 24.1227 18.6518C24.0459 18.3986 23.9548 18.1516 23.8511 17.91C23.7474 17.6683 23.6315 17.4319 23.5015 17.2015C23.3699 16.9718 23.2275 16.7467 23.0488 16.5371C23.0772 16.811 23.1416 17.0695 23.2171 17.3232C23.2939 17.5763 23.385 17.8234 23.4883 18.0652C23.5915 18.3071 23.7074 18.5436 23.8375 18.7739Z" fill="url(#paint16_radial_630_1348)"/>
<path d="M30.9294 17.2968C30.9814 17.039 31.0199 16.7786 31.0433 16.515C31.0652 16.2512 31.0753 15.985 31.0464 15.7109C30.914 15.9526 30.8206 16.2021 30.739 16.4539C30.6589 16.7061 30.594 16.9613 30.5426 17.2191C30.4911 17.477 30.4526 17.7375 30.4292 18.001C30.4074 18.2648 30.3972 18.531 30.4256 18.8049C30.5576 18.5632 30.6508 18.3137 30.7325 18.0618C30.8124 17.8098 30.8774 17.5546 30.9294 17.2968Z" fill="url(#paint17_radial_630_1348)"/>
<path d="M26.0281 39.9345C25.948 40.1866 25.8831 40.4418 25.8316 40.6997C25.7801 40.9576 25.7416 41.218 25.7182 41.4816C25.6964 41.7454 25.6862 42.0116 25.7147 42.2855C25.8466 42.0437 25.9398 41.7942 26.0215 41.5423C26.1016 41.2902 26.1665 41.035 26.2186 40.7773C26.2706 40.5195 26.3091 40.259 26.3325 39.9954C26.3544 39.7316 26.3645 39.4654 26.3356 39.1914C26.2031 39.4331 26.1097 39.6826 26.0281 39.9345Z" fill="url(#paint18_radial_630_1348)"/>
<path d="M40.1581 31.1598C39.9002 31.1083 39.6398 31.0698 39.3762 31.0464C39.1124 31.0246 38.8461 31.0143 38.5723 31.0428C38.814 31.1748 39.0635 31.268 39.3154 31.3497C39.5675 31.4298 39.8227 31.4947 40.0805 31.5467C40.3383 31.5987 40.5988 31.6372 40.8623 31.6606C41.1261 31.6825 41.3923 31.6926 41.6663 31.6636C41.4247 31.5312 41.1752 31.4378 40.9234 31.3563C40.6711 31.2762 40.416 31.2113 40.1581 31.1598Z" fill="url(#paint19_radial_630_1348)"/>
<path d="M16.6019 26.8357C16.8597 26.8877 17.1202 26.9262 17.3837 26.9496C17.6475 26.9716 17.9137 26.9816 18.1877 26.9527C17.9461 26.8203 17.6966 26.7269 17.4447 26.6454C17.1926 26.5653 16.9374 26.5004 16.6795 26.4488C16.4217 26.3973 16.1612 26.3588 15.8976 26.3354C15.6338 26.3136 15.3676 26.3034 15.0938 26.3319C15.3355 26.4638 15.585 26.5571 15.8369 26.6387C16.089 26.7188 16.3441 26.7837 16.6019 26.8357Z" fill="url(#paint20_radial_630_1348)"/>
<path d="M37.0332 23.2352C37.2973 23.1575 37.5398 23.047 37.7755 22.9267C38.0105 22.805 38.2369 22.6706 38.4559 22.525C38.675 22.3795 38.8863 22.2225 39.0892 22.0527C39.2913 21.8817 39.4866 21.7005 39.6599 21.4863C39.3955 21.5636 39.1529 21.674 38.9172 21.7944C38.6823 21.916 38.4559 22.0505 38.2372 22.1965C38.0184 22.3425 37.807 22.4994 37.6041 22.6692C37.4021 22.8404 37.2068 23.0214 37.0332 23.2352Z" fill="url(#paint21_radial_630_1348)"/>
<path d="M19.7262 34.7578C19.4617 34.8351 19.2192 34.9454 18.9836 35.0658C18.7486 35.1875 18.5222 35.322 18.3035 35.468C18.0847 35.6139 17.8734 35.7709 17.6705 35.9407C17.4685 36.1118 17.2732 36.2929 17.0996 36.5066C17.3638 36.4289 17.6062 36.3185 17.8419 36.1981C18.0769 36.0765 18.3033 35.942 18.5222 35.7964C18.7413 35.6509 18.9527 35.4939 19.1556 35.3241C19.3576 35.1532 19.5529 34.9721 19.7262 34.7578Z" fill="url(#paint22_radial_630_1348)"/>
<path d="M35.1812 38.8544C35.0353 38.6357 34.8783 38.4243 34.7085 38.2214C34.5373 38.0194 34.3563 37.824 34.1426 37.6504C34.2203 37.9145 34.3307 38.157 34.4511 38.3927C34.5727 38.6276 34.7072 38.854 34.8528 39.0731C34.9983 39.2921 35.1553 39.5035 35.3251 39.7064C35.4961 39.9085 35.6773 40.1038 35.8915 40.2771C35.8141 40.0125 35.7039 39.7701 35.5834 39.5344C35.4618 39.2995 35.3272 39.0732 35.1812 38.8544Z" fill="url(#paint23_radial_630_1348)"/>
<path d="M21.5813 19.1396C21.7268 19.3586 21.8838 19.5701 22.0536 19.7729C22.2246 19.9749 22.4058 20.1702 22.62 20.3435C22.5427 20.0791 22.4323 19.8366 22.3119 19.6009C22.1903 19.3659 22.0558 19.1396 21.9097 18.9208C21.7638 18.7021 21.6068 18.4907 21.437 18.2878C21.2658 18.0858 21.0848 17.8904 20.8711 17.7168C20.9488 17.9809 21.0592 18.2234 21.1796 18.4592C21.3012 18.6942 21.4357 18.9205 21.5813 19.1396Z" fill="url(#paint24_radial_630_1348)"/>
<path d="M34.6294 19.7199C34.7975 19.5156 34.9527 19.3029 35.0968 19.0829C35.2409 18.8629 35.3735 18.6355 35.4932 18.3996C35.6117 18.1628 35.7199 17.9194 35.795 17.6543C35.5823 17.8294 35.4028 18.0262 35.2335 18.2297C35.0654 18.434 34.9101 18.6467 34.7665 18.867C34.6229 19.0873 34.4903 19.3147 34.3706 19.5506C34.2523 19.7874 34.1439 20.0308 34.0684 20.2956C34.2806 20.1202 34.46 19.9233 34.6294 19.7199Z" fill="url(#paint25_radial_630_1348)"/>
<path d="M22.13 38.2746C21.9619 38.4789 21.8067 38.6916 21.6631 38.9119C21.5194 39.1321 21.3868 39.3596 21.2671 39.5955C21.1487 39.8323 21.0404 40.0756 20.9648 40.3405C21.1772 40.1651 21.3566 39.9682 21.526 39.7648C21.6942 39.5606 21.8493 39.3478 21.9933 39.1279C22.1375 38.9079 22.27 38.6804 22.3897 38.4445C22.5082 38.2078 22.6165 37.9644 22.6916 37.6992C22.4788 37.8743 22.2994 38.0712 22.13 38.2746Z" fill="url(#paint26_radial_630_1348)"/>
<path d="M39.148 35.8507C38.9437 35.6826 38.731 35.5274 38.5107 35.3838C38.2905 35.2401 38.063 35.1075 37.827 34.9878C37.5902 34.8695 37.3469 34.7611 37.082 34.6855C37.2574 34.8979 37.4543 35.0772 37.6577 35.2466C37.862 35.4148 38.0748 35.57 38.2947 35.714C38.5147 35.8582 38.7422 35.9908 38.9781 36.1104C39.2148 36.2289 39.4582 36.3372 39.7234 36.4123C39.5483 36.1996 39.3514 36.0201 39.148 35.8507Z" fill="url(#paint27_radial_630_1348)"/>
<path d="M17.6128 22.1431C17.8171 22.3112 18.0298 22.4664 18.2498 22.6104C18.4698 22.7545 18.6973 22.8872 18.9332 23.0069C19.1699 23.1253 19.4133 23.2336 19.6785 23.3087C19.5034 23.096 19.3065 22.9165 19.103 22.7471C18.8987 22.579 18.686 22.4238 18.4657 22.2802C18.2455 22.1365 18.018 22.0039 17.7821 21.8843C17.5453 21.7659 17.302 21.6575 17.0371 21.582C17.2125 21.7942 17.4094 21.9736 17.6128 22.1431Z" fill="url(#paint28_radial_630_1348)"/>
<path d="M39.2971 26.5538C39.046 26.6376 38.7973 26.7329 38.5566 26.8668C38.8308 26.893 39.0969 26.8806 39.3605 26.8565C39.6237 26.8309 39.884 26.7902 40.1414 26.7366C40.3989 26.683 40.6535 26.6158 40.905 26.5336C41.1562 26.45 41.4048 26.3546 41.6453 26.2201C41.371 26.1935 41.1049 26.2057 40.8413 26.2299C40.5781 26.2555 40.3179 26.2961 40.0605 26.3503C39.8032 26.4045 39.5486 26.4715 39.2971 26.5538Z" fill="url(#paint29_radial_630_1348)"/>
<path d="M17.4656 31.4399C17.7168 31.3563 17.9654 31.2607 18.2059 31.1263C17.9317 31.0997 17.6656 31.112 17.4019 31.1361C17.1387 31.1617 16.8785 31.2024 16.6211 31.2566C16.3638 31.3107 16.1091 31.3778 15.8577 31.46C15.6065 31.5438 15.3579 31.6391 15.1172 31.773C15.3913 31.7992 15.6575 31.7867 15.921 31.7627C16.1844 31.7371 16.4445 31.6964 16.702 31.6427C16.9595 31.5892 17.2141 31.5221 17.4656 31.4399Z" fill="url(#paint30_radial_630_1348)"/>
<path d="M31.0272 40.6757C30.9731 40.4184 30.906 40.1637 30.8237 39.9123C30.7399 39.6612 30.6446 39.4125 30.5107 39.1719C30.4845 39.446 30.4969 39.7121 30.521 39.9757C30.5466 40.239 30.5873 40.4992 30.641 40.7567C30.6945 41.0141 30.7616 41.2687 30.8439 41.5202C30.9275 41.7714 31.023 42.02 31.1574 42.2605C31.184 41.9863 31.1717 41.7202 31.1476 41.4566C31.1221 41.1932 31.0814 40.9331 31.0272 40.6757Z" fill="url(#paint31_radial_630_1348)"/>
<path d="M25.9357 18.0827C26.0194 18.3339 26.1148 18.5825 26.2492 18.823C26.2758 18.5488 26.2636 18.2827 26.2394 18.0191C26.2138 17.7558 26.1731 17.4956 26.119 17.2382C26.0649 16.9809 25.9978 16.7262 25.9155 16.4748C25.8317 16.2237 25.7364 15.975 25.6025 15.7344C25.5763 16.0085 25.5887 16.2746 25.6128 16.5382C25.6384 16.8015 25.6791 17.0617 25.7328 17.3192C25.7864 17.5766 25.8535 17.8312 25.9357 18.0827Z" fill="url(#paint32_radial_630_1348)"/>
<path d="M28.3815 39.591C34.2326 39.591 38.9758 34.8478 38.9758 28.9967C38.9758 23.1456 34.2326 18.4023 28.3815 18.4023C22.5304 18.4023 17.7871 23.1456 17.7871 28.9967C17.7871 34.8478 22.5304 39.591 28.3815 39.591Z" fill="url(#paint33_radial_630_1348)"/>
</g>
<defs>
<filter id="filter0_d_630_1348" x="0.291307" y="0.910448" width="55.2572" height="55.2582" filterUnits="userSpaceOnUse" color-interpolation-filters="sRGB">
<feFlood flood-opacity="0" result="BackgroundImageFix"/>
<feColorMatrix in="SourceAlpha" type="matrix" values="0 0 0 0 0 0 0 0 0 0 0 0 0 0 0 0 0 0 127 0" result="hardAlpha"/>
<feOffset/>
<feGaussianBlur stdDeviation="4.61509"/>
<feComposite in2="hardAlpha" operator="out"/>
<feColorMatrix type="matrix" values="0 0 0 0 1 0 0 0 0 0.984314 0 0 0 0 0.662745 0 0 0 1 0"/>
<feBlend mode="normal" in2="BackgroundImageFix" result="effect1_dropShadow_630_1348"/>
<feBlend mode="normal" in="SourceGraphic" in2="effect1_dropShadow_630_1348" result="shape"/>
</filter>
<radialGradient id="paint0_radial_630_1348" cx="0" cy="0" r="1" gradientUnits="userSpaceOnUse" gradientTransform="translate(28.4183 28.9961) scale(16.1233 16.1232)">
<stop stop-color="#FFE000"/>
<stop offset="1" stop-color="#FFE000" stop-opacity="0"/>
</radialGradient>
<radialGradient id="paint1_radial_630_1348" cx="0" cy="0" r="1" gradientUnits="userSpaceOnUse" gradientTransform="translate(29.8804 29.0875) scale(12.968 12.968)">
<stop stop-color="#FF9111"/>
<stop offset="0.168" stop-color="#FF961A" stop-opacity="0.832"/>
<stop offset="0.447" stop-color="#FFA534" stop-opacity="0.553"/>
<stop offset="0.8" stop-color="#FFBD5D" stop-opacity="0.2"/>
<stop offset="1" stop-color="#FFCD77" stop-opacity="0"/>
</radialGradient>
<radialGradient id="paint2_radial_630_1348" cx="0" cy="0" r="1" gradientUnits="userSpaceOnUse" gradientTransform="translate(29.8804 53.0367) scale(12.968 12.968)">
<stop stop-color="#FF9111"/>
<stop offset="0.168" stop-color="#FF961A" stop-opacity="0.832"/>
<stop offset="0.447" stop-color="#FFA534" stop-opacity="0.553"/>
<stop offset="0.8" stop-color="#FFBD5D" stop-opacity="0.2"/>
<stop offset="1" stop-color="#FFCD77" stop-opacity="0"/>
</radialGradient>
<radialGradient id="paint3_radial_630_1348" cx="0" cy="0" r="1" gradientUnits="userSpaceOnUse" gradientTransform="translate(52.3478 30.5071) scale(12.8829 12.8829)">
<stop stop-color="#FF9111"/>
<stop offset="0.168" stop-color="#FF961A" stop-opacity="0.832"/>
<stop offset="0.447" stop-color="#FFA534" stop-opacity="0.553"/>
<stop offset="0.8" stop-color="#FFBD5D" stop-opacity="0.2"/>
<stop offset="1" stop-color="#FFCD77" stop-opacity="0"/>
</radialGradient>
<radialGradient id="paint4_radial_630_1348" cx="0" cy="0" r="1" gradientUnits="userSpaceOnUse" gradientTransform="translate(28.4011 30.5071) scale(12.8829 12.8829)">
<stop stop-color="#FF9111"/>
<stop offset="0.168" stop-color="#FF961A" stop-opacity="0.832"/>
<stop offset="0.447" stop-color="#FFA534" stop-opacity="0.553"/>
<stop offset="0.8" stop-color="#FFBD5D" stop-opacity="0.2"/>
<stop offset="1" stop-color="#FFCD77" stop-opacity="0"/>
</radialGradient>
<radialGradient id="paint5_radial_630_1348" cx="0" cy="0" r="1" gradientUnits="userSpaceOnUse" gradientTransform="translate(45.3261 29.0629) scale(12.826 12.826)">
<stop stop-color="#FF9111"/>
<stop offset="0.168" stop-color="#FF961A" stop-opacity="0.832"/>
<stop offset="0.447" stop-color="#FFA534" stop-opacity="0.553"/>
<stop offset="0.8" stop-color="#FFBD5D" stop-opacity="0.2"/>
<stop offset="1" stop-color="#FFCD77" stop-opacity="0"/>
</radialGradient>
<radialGradient id="paint6_radial_630_1348" cx="0" cy="0" r="1" gradientUnits="userSpaceOnUse" gradientTransform="translate(28.3948 45.9941) scale(12.826 12.826)">
<stop stop-color="#FF9111"/>
<stop offset="0.168" stop-color="#FF961A" stop-opacity="0.832"/>
<stop offset="0.447" stop-color="#FFA534" stop-opacity="0.553"/>
<stop offset="0.8" stop-color="#FFBD5D" stop-opacity="0.2"/>
<stop offset="1" stop-color="#FFCD77" stop-opacity="0"/>
</radialGradient>
<radialGradient id="paint7_radial_630_1348" cx="0" cy="0" r="1" gradientUnits="userSpaceOnUse" gradientTransform="translate(45.3261 45.9941) scale(12.826 12.826)">
<stop stop-color="#FF9111"/>
<stop offset="0.168" stop-color="#FF961A" stop-opacity="0.832"/>
<stop offset="0.447" stop-color="#FFA534" stop-opacity="0.553"/>
<stop offset="0.8" stop-color="#FFBD5D" stop-opacity="0.2"/>
<stop offset="1" stop-color="#FFCD77" stop-opacity="0"/>
</radialGradient>
<radialGradient id="paint8_radial_630_1348" cx="0" cy="0" r="1" gradientUnits="userSpaceOnUse" gradientTransform="translate(28.3949 29.0629) scale(12.826 12.826)">
<stop stop-color="#FF9111"/>
<stop offset="0.168" stop-color="#FF961A" stop-opacity="0.832"/>
<stop offset="0.447" stop-color="#FFA534" stop-opacity="0.553"/>
<stop offset="0.8" stop-color="#FFBD5D" stop-opacity="0.2"/>
<stop offset="1" stop-color="#FFCD77" stop-opacity="0"/>
</radialGradient>
<radialGradient id="paint9_radial_630_1348" cx="0" cy="0" r="1" gradientUnits="userSpaceOnUse" gradientTransform="translate(37.2917 29.0806) scale(12.8568 12.8568)">
<stop stop-color="#FF9111"/>
<stop offset="0.168" stop-color="#FF961A" stop-opacity="0.832"/>
<stop offset="0.447" stop-color="#FFA534" stop-opacity="0.553"/>
<stop offset="0.8" stop-color="#FFBD5D" stop-opacity="0.2"/>
<stop offset="1" stop-color="#FFCD77" stop-opacity="0"/>
</radialGradient>
<radialGradient id="paint10_radial_630_1348" cx="0" cy="0" r="1" gradientUnits="userSpaceOnUse" gradientTransform="translate(28.3877 51.3104) scale(12.8568 12.8568)">
<stop stop-color="#FF9111"/>
<stop offset="0.168" stop-color="#FF961A" stop-opacity="0.832"/>
<stop offset="0.447" stop-color="#FFA534" stop-opacity="0.553"/>
<stop offset="0.8" stop-color="#FFBD5D" stop-opacity="0.2"/>
<stop offset="1" stop-color="#FFCD77" stop-opacity="0"/>
</radialGradient>
<radialGradient id="paint11_radial_630_1348" cx="0" cy="0" r="1" gradientUnits="userSpaceOnUse" gradientTransform="translate(50.6288 37.9337) scale(12.7939 12.7939)">
<stop stop-color="#FF9111"/>
<stop offset="0.168" stop-color="#FF961A" stop-opacity="0.832"/>
<stop offset="0.447" stop-color="#FFA534" stop-opacity="0.553"/>
<stop offset="0.8" stop-color="#FFBD5D" stop-opacity="0.2"/>
<stop offset="1" stop-color="#FFCD77" stop-opacity="0"/>
</radialGradient>
<radialGradient id="paint12_radial_630_1348" cx="0" cy="0" r="1" gradientUnits="userSpaceOnUse" gradientTransform="translate(28.399 29.0316) scale(12.7939 12.7939)">
<stop stop-color="#FF9111"/>
<stop offset="0.168" stop-color="#FF961A" stop-opacity="0.832"/>
<stop offset="0.447" stop-color="#FFA534" stop-opacity="0.553"/>
<stop offset="0.8" stop-color="#FFBD5D" stop-opacity="0.2"/>
<stop offset="1" stop-color="#FFCD77" stop-opacity="0"/>
</radialGradient>
<radialGradient id="paint13_radial_630_1348" cx="0" cy="0" r="1" gradientUnits="userSpaceOnUse" gradientTransform="translate(50.4133 29.0322) scale(12.7959 12.7959)">
<stop stop-color="#FF9111"/>
<stop offset="0.168" stop-color="#FF961A" stop-opacity="0.832"/>
<stop offset="0.447" stop-color="#FFA534" stop-opacity="0.553"/>
<stop offset="0.8" stop-color="#FFBD5D" stop-opacity="0.2"/>
<stop offset="1" stop-color="#FFCD77" stop-opacity="0"/>
</radialGradient>
<radialGradient id="paint14_radial_630_1348" cx="0" cy="0" r="1" gradientUnits="userSpaceOnUse" gradientTransform="translate(28.3978 38.4562) scale(12.7959 12.7959)">
<stop stop-color="#FF9111"/>
<stop offset="0.168" stop-color="#FF961A" stop-opacity="0.832"/>
<stop offset="0.447" stop-color="#FFA534" stop-opacity="0.553"/>
<stop offset="0.8" stop-color="#FFBD5D" stop-opacity="0.2"/>
<stop offset="1" stop-color="#FFCD77" stop-opacity="0"/>
</radialGradient>
<radialGradient id="paint15_radial_630_1348" cx="0" cy="0" r="1" gradientUnits="userSpaceOnUse" gradientTransform="translate(37.8101 51.0942) scale(12.8555 12.8555)">
<stop stop-color="#FF9111"/>
<stop offset="0.168" stop-color="#FF961A" stop-opacity="0.832"/>
<stop offset="0.447" stop-color="#FFA534" stop-opacity="0.553"/>
<stop offset="0.8" stop-color="#FFBD5D" stop-opacity="0.2"/>
<stop offset="1" stop-color="#FFCD77" stop-opacity="0"/>
</radialGradient>
<radialGradient id="paint16_radial_630_1348" cx="0" cy="0" r="1" gradientUnits="userSpaceOnUse" gradientTransform="translate(28.3888 29.0794) scale(12.8555 12.8555)">
<stop stop-color="#FF9111"/>
<stop offset="0.168" stop-color="#FF961A" stop-opacity="0.832"/>
<stop offset="0.447" stop-color="#FFA534" stop-opacity="0.553"/>
<stop offset="0.8" stop-color="#FFBD5D" stop-opacity="0.2"/>
<stop offset="1" stop-color="#FFCD77" stop-opacity="0"/>
</radialGradient>
<radialGradient id="paint17_radial_630_1348" cx="0" cy="0" r="1" gradientUnits="userSpaceOnUse" gradientTransform="translate(33.2289 29.087) scale(12.8943 12.8943)">
<stop stop-color="#FF9111"/>
<stop offset="0.168" stop-color="#FF961A" stop-opacity="0.832"/>
<stop offset="0.447" stop-color="#FFA534" stop-opacity="0.553"/>
<stop offset="0.8" stop-color="#FFBD5D" stop-opacity="0.2"/>
<stop offset="1" stop-color="#FFCD77" stop-opacity="0"/>
</radialGradient>
<radialGradient id="paint18_radial_630_1348" cx="0" cy="0" r="1" gradientUnits="userSpaceOnUse" gradientTransform="translate(28.5182 52.5667) scale(12.8943 12.8943)">
<stop stop-color="#FF9111"/>
<stop offset="0.168" stop-color="#FF961A" stop-opacity="0.832"/>
<stop offset="0.447" stop-color="#FFA534" stop-opacity="0.553"/>
<stop offset="0.8" stop-color="#FFBD5D" stop-opacity="0.2"/>
<stop offset="1" stop-color="#FFCD77" stop-opacity="0"/>
</radialGradient>
<radialGradient id="paint19_radial_630_1348" cx="0" cy="0" r="1" gradientUnits="userSpaceOnUse" gradientTransform="translate(51.8778 33.8616) scale(12.8146 12.8146)">
<stop stop-color="#FF9111"/>
<stop offset="0.168" stop-color="#FF961A" stop-opacity="0.832"/>
<stop offset="0.447" stop-color="#FFA534" stop-opacity="0.553"/>
<stop offset="0.8" stop-color="#FFBD5D" stop-opacity="0.2"/>
<stop offset="1" stop-color="#FFCD77" stop-opacity="0"/>
</radialGradient>
<radialGradient id="paint20_radial_630_1348" cx="0" cy="0" r="1" gradientUnits="userSpaceOnUse" gradientTransform="translate(28.3994 29.1508) scale(12.8146 12.8146)">
<stop stop-color="#FF9111"/>
<stop offset="0.168" stop-color="#FF961A" stop-opacity="0.832"/>
<stop offset="0.447" stop-color="#FFA534" stop-opacity="0.553"/>
<stop offset="0.8" stop-color="#FFBD5D" stop-opacity="0.2"/>
<stop offset="1" stop-color="#FFCD77" stop-opacity="0"/>
</radialGradient>
<radialGradient id="paint21_radial_630_1348" cx="0" cy="0" r="1" gradientUnits="userSpaceOnUse" gradientTransform="translate(48.329 29.047) scale(12.8086 12.8086)">
<stop stop-color="#FF9111"/>
<stop offset="0.168" stop-color="#FF961A" stop-opacity="0.832"/>
<stop offset="0.447" stop-color="#FFA534" stop-opacity="0.553"/>
<stop offset="0.8" stop-color="#FFBD5D" stop-opacity="0.2"/>
<stop offset="1" stop-color="#FFCD77" stop-opacity="0"/>
</radialGradient>
<radialGradient id="paint22_radial_630_1348" cx="0" cy="0" r="1" gradientUnits="userSpaceOnUse" gradientTransform="translate(28.396 42.3179) scale(12.8086 12.8086)">
<stop stop-color="#FF9111"/>
<stop offset="0.168" stop-color="#FF961A" stop-opacity="0.832"/>
<stop offset="0.447" stop-color="#FFA534" stop-opacity="0.553"/>
<stop offset="0.8" stop-color="#FFBD5D" stop-opacity="0.2"/>
<stop offset="1" stop-color="#FFCD77" stop-opacity="0"/>
</radialGradient>
<radialGradient id="paint23_radial_630_1348" cx="0" cy="0" r="1" gradientUnits="userSpaceOnUse" gradientTransform="translate(41.6631 49.0059) scale(12.8421 12.8421)">
<stop stop-color="#FF9111"/>
<stop offset="0.168" stop-color="#FF961A" stop-opacity="0.832"/>
<stop offset="0.447" stop-color="#FFA534" stop-opacity="0.553"/>
<stop offset="0.8" stop-color="#FFBD5D" stop-opacity="0.2"/>
<stop offset="1" stop-color="#FFCD77" stop-opacity="0"/>
</radialGradient>
<radialGradient id="paint24_radial_630_1348" cx="0" cy="0" r="1" gradientUnits="userSpaceOnUse" gradientTransform="translate(28.3921 29.073) scale(12.8421 12.8421)">
<stop stop-color="#FF9111"/>
<stop offset="0.168" stop-color="#FF961A" stop-opacity="0.832"/>
<stop offset="0.447" stop-color="#FFA534" stop-opacity="0.553"/>
<stop offset="0.8" stop-color="#FFBD5D" stop-opacity="0.2"/>
<stop offset="1" stop-color="#FFCD77" stop-opacity="0"/>
</radialGradient>
<radialGradient id="paint25_radial_630_1348" cx="0" cy="0" r="1" gradientUnits="userSpaceOnUse" gradientTransform="translate(41.4935 29.073) scale(12.8428 12.8428)">
<stop stop-color="#FF9111"/>
<stop offset="0.168" stop-color="#FF961A" stop-opacity="0.832"/>
<stop offset="0.447" stop-color="#FFA534" stop-opacity="0.553"/>
<stop offset="0.8" stop-color="#FFBD5D" stop-opacity="0.2"/>
<stop offset="1" stop-color="#FFCD77" stop-opacity="0"/>
</radialGradient>
<radialGradient id="paint26_radial_630_1348" cx="0" cy="0" r="1" gradientUnits="userSpaceOnUse" gradientTransform="translate(28.3903 49.1178) scale(12.8428 12.8428)">
<stop stop-color="#FF9111"/>
<stop offset="0.168" stop-color="#FF961A" stop-opacity="0.832"/>
<stop offset="0.447" stop-color="#FFA534" stop-opacity="0.553"/>
<stop offset="0.8" stop-color="#FFBD5D" stop-opacity="0.2"/>
<stop offset="1" stop-color="#FFCD77" stop-opacity="0"/>
</radialGradient>
<radialGradient id="paint27_radial_630_1348" cx="0" cy="0" r="1" gradientUnits="userSpaceOnUse" gradientTransform="translate(48.441 42.1504) scale(12.8079 12.8079)">
<stop stop-color="#FF9111"/>
<stop offset="0.168" stop-color="#FF961A" stop-opacity="0.832"/>
<stop offset="0.447" stop-color="#FFA534" stop-opacity="0.553"/>
<stop offset="0.8" stop-color="#FFBD5D" stop-opacity="0.2"/>
<stop offset="1" stop-color="#FFCD77" stop-opacity="0"/>
</radialGradient>
<radialGradient id="paint28_radial_630_1348" cx="0" cy="0" r="1" gradientUnits="userSpaceOnUse" gradientTransform="translate(28.3962 29.0469) scale(12.8079 12.8079)">
<stop stop-color="#FF9111"/>
<stop offset="0.168" stop-color="#FF961A" stop-opacity="0.832"/>
<stop offset="0.447" stop-color="#FFA534" stop-opacity="0.553"/>
<stop offset="0.8" stop-color="#FFBD5D" stop-opacity="0.2"/>
<stop offset="1" stop-color="#FFCD77" stop-opacity="0"/>
</radialGradient>
<radialGradient id="paint29_radial_630_1348" cx="0" cy="0" r="1" gradientUnits="userSpaceOnUse" gradientTransform="translate(51.8388 29.129) scale(12.8113 12.8113)">
<stop stop-color="#FF9111"/>
<stop offset="0.168" stop-color="#FF961A" stop-opacity="0.832"/>
<stop offset="0.447" stop-color="#FFA534" stop-opacity="0.553"/>
<stop offset="0.8" stop-color="#FFBD5D" stop-opacity="0.2"/>
<stop offset="1" stop-color="#FFCD77" stop-opacity="0"/>
</radialGradient>
<radialGradient id="paint30_radial_630_1348" cx="0" cy="0" r="1" gradientUnits="userSpaceOnUse" gradientTransform="translate(28.4001 34.0351) scale(12.8113 12.8112)">
<stop stop-color="#FF9111"/>
<stop offset="0.168" stop-color="#FF961A" stop-opacity="0.832"/>
<stop offset="0.447" stop-color="#FFA534" stop-opacity="0.553"/>
<stop offset="0.8" stop-color="#FFBD5D" stop-opacity="0.2"/>
<stop offset="1" stop-color="#FFCD77" stop-opacity="0"/>
</radialGradient>
<radialGradient id="paint31_radial_630_1348" cx="0" cy="0" r="1" gradientUnits="userSpaceOnUse" gradientTransform="translate(33.4041 52.5244) scale(12.8903 12.8903)">
<stop stop-color="#FF9111"/>
<stop offset="0.168" stop-color="#FF961A" stop-opacity="0.832"/>
<stop offset="0.447" stop-color="#FFA534" stop-opacity="0.553"/>
<stop offset="0.8" stop-color="#FFBD5D" stop-opacity="0.2"/>
<stop offset="1" stop-color="#FFCD77" stop-opacity="0"/>
</radialGradient>
<radialGradient id="paint32_radial_630_1348" cx="0" cy="0" r="1" gradientUnits="userSpaceOnUse" gradientTransform="translate(28.4959 29.0876) scale(12.8903 12.8903)">
<stop stop-color="#FF9111"/>
<stop offset="0.168" stop-color="#FF961A" stop-opacity="0.832"/>
<stop offset="0.447" stop-color="#FFA534" stop-opacity="0.553"/>
<stop offset="0.8" stop-color="#FFBD5D" stop-opacity="0.2"/>
<stop offset="1" stop-color="#FFCD77" stop-opacity="0"/>
</radialGradient>
<radialGradient id="paint33_radial_630_1348" cx="0" cy="0" r="1" gradientUnits="userSpaceOnUse" gradientTransform="translate(25.7207 24.4737) scale(17.1163 17.1163)">
<stop stop-color="#FEFFB3"/>
<stop offset="0.196" stop-color="#FEFEB0"/>
<stop offset="0.347" stop-color="#FEF9A6"/>
<stop offset="0.484" stop-color="#FEF296"/>
<stop offset="0.612" stop-color="#FEE87E"/>
<stop offset="0.733" stop-color="#FEDA60"/>
<stop offset="0.85" stop-color="#FFCA3C"/>
<stop offset="0.962" stop-color="#FFB611"/>
<stop offset="1" stop-color="#FFAF00"/>
</radialGradient>
<clipPath id="clip0_630_1348">
<rect width="34.1517" height="34.1516" fill="white" transform="translate(11.3047 11.9199)"/>
</clipPath>
</defs>
</svg>
