<svg width="23" height="23" viewBox="0 0 23 23" fill="none" xmlns="http://www.w3.org/2000/svg">
<path d="M16.2918 12.458H14.3752C13.0147 12.4562 11.6988 12.9424 10.6664 13.8284C9.69658 12.9518 8.43743 12.4639 7.13016 12.458H6.28683C4.87445 12.4605 3.52063 13.0227 2.52193 14.0214C1.52322 15.0201 0.96103 16.374 0.958496 17.7863V18.208C0.958496 18.4622 1.05946 18.7059 1.23919 18.8857C1.41891 19.0654 1.66266 19.1663 1.91683 19.1663H21.0835C21.3377 19.1663 21.5814 19.0654 21.7611 18.8857C21.9409 18.7059 22.0418 18.4622 22.0418 18.208C22.0418 16.683 21.436 15.2205 20.3577 14.1421C19.2794 13.0638 17.8168 12.458 16.2918 12.458ZM6.28683 14.3747H7.13016C7.985 14.3731 8.80802 14.6988 9.43016 15.2851C9.07755 15.8748 8.83711 16.5246 8.721 17.2018V17.2497H2.87516C3.00768 16.4424 3.42429 15.7091 4.04986 15.1819C4.67543 14.6547 5.46878 14.3684 6.28683 14.3747ZM10.6856 17.2497C10.7002 17.1719 10.7194 17.0951 10.7431 17.0197C10.7431 17.0197 10.7431 16.943 10.7431 16.9047C10.8885 16.5113 11.0991 16.1452 11.366 15.8218C11.726 15.3692 12.1836 15.004 12.7047 14.7534C13.2259 14.5028 13.7969 14.3733 14.3752 14.3747H16.2918C17.1412 14.3753 17.9663 14.658 18.6375 15.1784C19.3088 15.6987 19.7882 16.4273 20.0006 17.2497H10.6856ZM15.3335 11.4997C16.0917 11.4997 16.8328 11.2749 17.4632 10.8536C18.0936 10.4324 18.5849 9.83375 18.875 9.1333C19.1652 8.43285 19.2411 7.66209 19.0932 6.9185C18.9453 6.1749 18.5802 5.49187 18.0441 4.95577C17.508 4.41967 16.8249 4.05458 16.0813 3.90667C15.3377 3.75876 14.567 3.83467 13.8665 4.1248C13.1661 4.41494 12.5674 4.90627 12.1462 5.53666C11.725 6.16705 11.5002 6.90818 11.5002 7.66634C11.5002 8.68301 11.904 9.65803 12.6229 10.3769C13.3418 11.0958 14.3168 11.4997 15.3335 11.4997ZM15.3335 5.74968C15.7126 5.74968 16.0831 5.86209 16.3983 6.07269C16.7135 6.2833 16.9592 6.58264 17.1043 6.93287C17.2493 7.28309 17.2873 7.66847 17.2133 8.04027C17.1394 8.41206 16.9568 8.75358 16.6888 9.02163C16.4207 9.28968 16.0792 9.47223 15.7074 9.54618C15.3356 9.62014 14.9502 9.58218 14.6 9.43711C14.2498 9.29204 13.9505 9.04638 13.7398 8.73119C13.5292 8.41599 13.4168 8.04542 13.4168 7.66634C13.4168 7.15801 13.6188 6.6705 13.9782 6.31105C14.3377 5.95161 14.8252 5.74968 15.3335 5.74968ZM6.7085 11.4997C7.46666 11.4997 8.20779 11.2749 8.83818 10.8536C9.46857 10.4324 9.9599 9.83375 10.25 9.1333C10.5402 8.43285 10.6161 7.66209 10.4682 6.9185C10.3203 6.1749 9.95517 5.49187 9.41907 4.95577C8.88297 4.41967 8.19994 4.05458 7.45634 3.90667C6.71275 3.75876 5.94199 3.83467 5.24154 4.1248C4.54109 4.41494 3.94241 4.90627 3.5212 5.53666C3.09998 6.16705 2.87516 6.90818 2.87516 7.66634C2.87516 8.68301 3.27903 9.65803 3.99792 10.3769C4.71681 11.0958 5.69183 11.4997 6.7085 11.4997ZM6.7085 5.74968C7.08758 5.74968 7.45814 5.86209 7.77334 6.07269C8.08853 6.2833 8.3342 6.58264 8.47927 6.93287C8.62433 7.28309 8.66229 7.66847 8.58834 8.04027C8.51438 8.41206 8.33183 8.75358 8.06378 9.02163C7.79573 9.28968 7.45422 9.47223 7.08242 9.54618C6.71062 9.62014 6.32524 9.58218 5.97502 9.43711C5.62479 9.29204 5.32545 9.04638 5.11485 8.73119C4.90424 8.41599 4.79183 8.04542 4.79183 7.66634C4.79183 7.15801 4.99376 6.6705 5.35321 6.31105C5.71265 5.95161 6.20016 5.74968 6.7085 5.74968Z" fill="white"/>
</svg>
