<svg width="34" height="40" viewBox="0 0 34 40" fill="none" xmlns="http://www.w3.org/2000/svg">
<path d="M33.6941 15.1555C33.6941 12.2906 33.6941 10.8582 33.159 9.57107C32.624 8.28396 31.6085 7.27365 29.5776 5.25303L29.1485 4.8261C27.1318 2.81957 26.1234 1.81631 24.8435 1.28804C23.5635 0.759766 22.1411 0.759766 19.2962 0.759766H6.05106C4.73416 0.759766 3.65234 1.76832 3.65234 3.08514V15.3685C3.65234 15.3662 3.73259 15.3492 3.78592 15.3492C4.36195 15.3492 4.82891 14.8823 4.82891 14.3062V3.08514C4.82891 2.42775 5.39367 1.93634 6.05106 1.93634H24.2815C24.441 1.93634 24.5944 1.99704 24.7108 2.10612C24.8373 2.22475 24.909 2.39044 24.909 2.56387V7.12328C24.909 8.43469 25.9755 9.46638 27.2869 9.46638H31.8433C32.0177 9.46638 32.1833 9.54277 32.2965 9.67541C32.3885 9.78325 32.4391 9.92037 32.4391 10.0621V37.2607C32.4391 37.9181 31.9824 38.4884 31.325 38.4884H6.05106C5.39367 38.4884 4.82891 37.918 4.82891 37.2607V33.5701C4.82891 32.9941 4.36195 32.5271 3.78592 32.5271C3.73259 32.5271 3.65234 32.53 3.65234 32.5277V37.2606C3.65234 38.5775 4.73416 39.665 6.05106 39.665H31.3251C32.6419 39.665 33.6941 38.5775 33.6941 37.2607V15.1555ZM27.2869 8.28981C26.6295 8.28981 26.0856 7.78067 26.0856 7.12328V3.60173C26.0856 3.59328 26.0958 3.58903 26.1018 3.59499L28.4461 5.92212C29.3235 6.79305 28.7067 8.28981 27.4705 8.28981H27.2869Z" fill="url(#paint0_linear_530_4485)"/>
<path d="M14.6139 21.9375C14.2781 21.9375 14.0059 22.2097 14.0059 22.5456V25.7046C14.0059 25.9634 14.2156 26.1732 14.4744 26.1732C15.0948 26.1732 15.5498 25.9875 15.8393 25.6272C16.1288 25.2671 16.2736 24.7137 16.2736 23.9727C16.2736 23.2798 16.1365 22.7698 15.8626 22.4355C15.5885 22.1012 15.1723 21.9375 14.6139 21.9375Z" fill="url(#paint1_linear_530_4485)"/>
<path d="M26.2889 16.5254H2.8199C1.50309 16.5254 0.435547 17.5929 0.435547 18.9097V28.8874C0.435547 30.2042 1.50309 31.2717 2.8199 31.2717H26.2889C27.6057 31.2717 28.6732 30.2042 28.6732 28.8874V18.9097C28.6732 17.5929 27.6057 16.5254 26.2889 16.5254ZM10.0249 24.6298C9.52682 25.09 8.81939 25.3104 7.90261 25.3104C7.59083 25.3104 7.33809 25.5632 7.33809 25.875V26.8008C7.33809 27.3639 6.88156 27.8205 6.3184 27.8205C5.75523 27.8205 5.2987 27.3639 5.2987 26.8008V22.8943C5.2987 21.4562 6.46451 20.2904 7.90261 20.2904C8.85728 20.2904 9.57428 20.493 10.0534 20.91C10.5324 21.327 10.772 21.9122 10.772 22.6807C10.772 23.5252 10.523 24.1697 10.0249 24.6298ZM17.351 26.8052C16.6564 27.4876 15.6801 27.8205 14.4221 27.8205C13.0656 27.8205 11.9659 26.7208 11.9659 25.3643V22.9172C11.9659 21.4665 13.142 20.2904 14.5927 20.2904C15.8059 20.2904 16.7426 20.5947 17.4027 21.215C18.0627 21.8354 18.3928 22.7245 18.3928 23.8964C18.3928 25.1578 18.0455 26.1227 17.351 26.8052ZM24.2023 21.114C24.2023 21.5689 23.8335 21.9376 23.3787 21.9376H22.4766C22.0867 21.9376 21.7707 22.2537 21.7707 22.6436C21.7707 23.0334 22.0867 23.3495 22.4766 23.3495H23.2218C23.6766 23.3495 24.0454 23.7182 24.0454 24.1731C24.0454 24.628 23.6766 24.9967 23.2218 24.9967H22.908C22.2799 24.9967 21.7707 25.5059 21.7707 26.134V26.8008C21.7707 27.3639 21.3141 27.8205 20.751 27.8205C20.1878 27.8205 19.7313 27.3639 19.7313 26.8008V22.5259C19.7313 21.2913 20.7321 20.2904 21.9668 20.2904H23.3787C23.8335 20.2904 24.2023 20.6592 24.2023 21.114Z" fill="url(#paint2_linear_530_4485)"/>
<path d="M7.8559 21.9375C7.56981 21.9375 7.33789 22.1694 7.33789 22.4555V23.3003C7.33789 23.5007 7.50035 23.6631 7.70075 23.6631C8.00752 23.6631 8.25138 23.5779 8.43234 23.4055C8.61329 23.2331 8.70373 23.0006 8.70373 22.6973C8.70373 22.1872 8.42112 21.9375 7.8559 21.9375Z" fill="url(#paint3_linear_530_4485)"/>
<defs>
<linearGradient id="paint0_linear_530_4485" x1="3.65234" y1="20.2124" x2="33.6941" y2="20.2124" gradientUnits="userSpaceOnUse">
<stop stop-color="#05A633"/>
<stop offset="1" stop-color="#0D5823"/>
</linearGradient>
<linearGradient id="paint1_linear_530_4485" x1="14.0059" y1="24.0553" x2="16.2736" y2="24.0553" gradientUnits="userSpaceOnUse">
<stop stop-color="#05A633"/>
<stop offset="1" stop-color="#0D5823"/>
</linearGradient>
<linearGradient id="paint2_linear_530_4485" x1="0.435547" y1="23.8986" x2="28.6732" y2="23.8986" gradientUnits="userSpaceOnUse">
<stop stop-color="#05A633"/>
<stop offset="1" stop-color="#0D5823"/>
</linearGradient>
<linearGradient id="paint3_linear_530_4485" x1="7.33789" y1="22.8003" x2="8.70373" y2="22.8003" gradientUnits="userSpaceOnUse">
<stop stop-color="#05A633"/>
<stop offset="1" stop-color="#0D5823"/>
</linearGradient>
</defs>
</svg>
