<svg width="49" height="63" viewBox="0 0 49 63" fill="none" xmlns="http://www.w3.org/2000/svg">
<path d="M34.8894 0.129883H2.3735C1.46823 0.129883 0.734375 0.863737 0.734375 2.28775V61.7512C0.734375 62.1378 1.46823 62.8716 2.3735 62.8716H47.2719C48.1772 62.8716 48.9111 62.1378 48.9111 61.7512V14.6703C48.9111 13.8905 48.8069 13.6395 48.6231 13.4547L35.5863 0.417823C35.4014 0.234079 35.1505 0.129883 34.8894 0.129883Z" fill="#E9E9E0"/>
<path d="M35.4658 0.299805V13.5753H48.7413L35.4658 0.299805Z" fill="#D9D7CA"/>
<path d="M15.3154 37.4663C14.9255 37.4663 14.5513 37.3397 14.2319 37.101C13.0656 36.226 12.9088 35.2524 12.9827 34.5891C13.1866 32.7651 15.442 30.856 19.6882 28.911C21.3733 25.2182 22.9766 20.6683 23.9323 16.8668C22.8141 14.4334 21.7273 11.2761 22.5195 9.4241C22.7973 8.77539 23.1435 8.27794 23.79 8.06282C24.0454 7.97767 24.6908 7.87012 24.9283 7.87012C25.493 7.87012 25.9893 8.59725 26.3411 9.0454C26.6716 9.46667 27.4212 10.3596 25.9232 16.6663C27.4335 19.7854 29.5734 22.9629 31.6237 25.1387C33.0926 24.8731 34.3564 24.7376 35.386 24.7376C37.1405 24.7376 38.2038 25.1465 38.6374 25.989C38.9959 26.6859 38.8491 27.5004 38.2004 28.4091C37.5764 29.2819 36.7159 29.7435 35.7132 29.7435C34.3508 29.7435 32.7643 28.883 30.9952 27.1834C27.8167 27.8478 24.1048 29.0331 21.1044 30.3451C20.1678 32.3327 19.2703 33.9337 18.4345 35.1079C17.2861 36.7156 16.2957 37.4663 15.3154 37.4663ZM18.2978 31.7232C15.9036 33.0688 14.9277 34.1746 14.8571 34.7975C14.8459 34.9006 14.8157 35.1717 15.34 35.5728C15.5069 35.5202 16.4817 35.0754 18.2978 31.7232ZM33.5766 26.7464C34.4897 27.4489 34.7126 27.8041 35.3098 27.8041C35.572 27.8041 36.3193 27.7929 36.6655 27.31C36.8324 27.0758 36.8974 26.9257 36.9232 26.845C36.7854 26.7722 36.6027 26.6243 35.6067 26.6243C35.0409 26.6254 34.3295 26.6501 33.5766 26.7464ZM25.2073 19.372C24.4062 22.1439 23.3485 25.1364 22.2114 27.8466C24.553 26.938 27.0985 26.1448 29.4894 25.5835C27.9769 23.8267 26.4655 21.633 25.2073 19.372ZM24.5272 9.8913C24.4174 9.92827 23.0371 11.8598 24.6348 13.4945C25.698 11.1248 24.5754 9.87561 24.5272 9.8913Z" fill="#CC4B4C"/>
<path d="M47.2719 62.8718H2.3735C1.46823 62.8718 0.734375 62.1379 0.734375 61.2327V43.8252H48.9111V61.2327C48.9111 62.1379 48.1772 62.8718 47.2719 62.8718Z" fill="#CC4B4C"/>
<path d="M12.9304 59.5107H11.0918V48.2217H14.3387C14.8182 48.2217 15.2933 48.2979 15.7627 48.4514C16.2321 48.6049 16.6534 48.8345 17.0265 49.1404C17.3996 49.4463 17.701 49.8171 17.9306 50.2507C18.1603 50.6843 18.2757 51.1717 18.2757 51.7139C18.2757 52.2864 18.1783 52.8041 17.9844 53.269C17.7906 53.734 17.5195 54.125 17.1721 54.441C16.8248 54.7569 16.4058 55.0023 15.9162 55.1759C15.4266 55.3496 14.8843 55.4359 14.2927 55.4359H12.9292L12.9304 59.5107ZM12.9304 49.6154V54.088H14.6154C14.8395 54.088 15.0613 54.0499 15.282 53.9726C15.5016 53.8964 15.7033 53.771 15.8871 53.5973C16.0708 53.4236 16.2187 53.1816 16.3307 52.8702C16.4428 52.5587 16.4988 52.1733 16.4988 51.7139C16.4988 51.5302 16.473 51.3173 16.4226 51.0787C16.3711 50.8389 16.2669 50.6092 16.1089 50.3896C15.9498 50.17 15.728 49.9863 15.4423 49.8384C15.1566 49.6905 14.7779 49.6166 14.3084 49.6166L12.9304 49.6154Z" fill="white"/>
<path d="M29.5509 53.5525C29.5509 54.4813 29.4512 55.2756 29.2517 55.9344C29.0523 56.5932 28.8002 57.1445 28.4932 57.5892C28.1862 58.034 27.8423 58.3836 27.4591 58.6391C27.0759 58.8945 26.7062 59.085 26.3488 59.2138C25.9914 59.3415 25.6643 59.4233 25.3685 59.4592C25.0727 59.4928 24.8531 59.5107 24.7097 59.5107H20.4365V48.2217H23.8369C24.787 48.2217 25.6217 48.3729 26.341 48.6732C27.0603 48.9735 27.6585 49.3757 28.1336 49.8754C28.6086 50.3751 28.9627 50.9453 29.198 51.5828C29.4332 52.2215 29.5509 52.878 29.5509 53.5525ZM24.098 58.1629C25.3438 58.1629 26.2424 57.7651 26.7936 56.9686C27.3448 56.172 27.6205 55.018 27.6205 53.5066C27.6205 53.0371 27.5644 52.5721 27.4524 52.1128C27.3392 51.6534 27.123 51.2378 26.8014 50.8647C26.4799 50.4916 26.0429 50.1902 25.4917 49.9605C24.9405 49.7308 24.2257 49.6154 23.3473 49.6154H22.2751V58.1629H24.098Z" fill="white"/>
<path d="M34.0851 49.6154V53.1693H38.8031V54.4253H34.0851V59.5107H32.2163V48.2217H39.277V49.6154H34.0851Z" fill="white"/>
</svg>
