<svg width="28" height="26" viewBox="0 0 28 26" fill="none" xmlns="http://www.w3.org/2000/svg">
<ellipse cx="14.0464" cy="12.5313" rx="13.3316" ry="12.5069" fill="#65A442"/>
<path d="M8.75586 17.4941H19.3365" stroke="white" stroke-width="0.922333" stroke-miterlimit="10" stroke-linecap="round" stroke-linejoin="round"/>
<path d="M12.8555 8.56097V17.4945H15.2361V8.56097C15.2361 8.01503 14.998 7.56836 14.2839 7.56836H13.8077C13.0935 7.56836 12.8555 8.01503 12.8555 8.56097Z" stroke="white" stroke-width="0.922333" stroke-linecap="round" stroke-linejoin="round"/>
<path d="M9.28516 11.5385V17.4942H11.4013V11.5385C11.4013 10.9926 11.1897 10.5459 10.5548 10.5459H10.1316C9.49677 10.5459 9.28516 10.9926 9.28516 11.5385Z" stroke="white" stroke-width="0.922333" stroke-linecap="round" stroke-linejoin="round"/>
<path d="M16.6895 14.02V17.4941H18.8056V14.02C18.8056 13.474 18.594 13.0273 17.9591 13.0273H17.5359C16.9011 13.0273 16.6895 13.474 16.6895 14.02Z" stroke="white" stroke-width="0.922333" stroke-linecap="round" stroke-linejoin="round"/>
</svg>
