<svg width="30" height="29" viewBox="0 0 30 29" fill="none" xmlns="http://www.w3.org/2000/svg">
<path d="M11.3805 12.961C11.2614 12.9491 11.1184 12.9491 10.9873 12.961C8.15157 12.8656 5.89966 10.5406 5.89966 7.67908C5.89966 4.75794 8.25881 2.38525 11.1899 2.38525C14.109 2.38525 16.4801 4.75794 16.4801 7.67908C16.4682 10.5406 14.2163 12.8656 11.3805 12.961Z" stroke="#7E7E7E" stroke-width="1.78723" stroke-linecap="round" stroke-linejoin="round"/>
<path d="M20.0188 4.77002C22.3303 4.77002 24.189 6.64194 24.189 8.94308C24.189 11.1965 22.4018 13.0327 20.1737 13.1161C20.0784 13.1042 19.9711 13.1042 19.8639 13.1161" stroke="#7E7E7E" stroke-width="1.78723" stroke-linecap="round" stroke-linejoin="round"/>
<path d="M5.42293 17.3606C2.53952 19.2921 2.53952 22.4398 5.42293 24.3594C8.69952 26.5532 14.0731 26.5532 17.3497 24.3594C20.2331 22.4278 20.2331 19.2802 17.3497 17.3606C14.0851 15.1786 8.71144 15.1786 5.42293 17.3606Z" stroke="#7E7E7E" stroke-width="1.78723" stroke-linecap="round" stroke-linejoin="round"/>
<path d="M22.3185 23.8467C23.1764 23.6678 23.9866 23.3221 24.6538 22.8094C26.5125 21.4144 26.5125 19.1132 24.6538 17.7183C23.9985 17.2175 23.2002 16.8836 22.3542 16.6929" stroke="#7E7E7E" stroke-width="1.78723" stroke-linecap="round" stroke-linejoin="round"/>
</svg>
