<svg width="27" height="27" viewBox="0 0 27 27" fill="none" xmlns="http://www.w3.org/2000/svg">
<path d="M13.7015 12.057C13.5906 12.0459 13.4575 12.0459 13.3355 12.057C10.6955 11.9682 8.59912 9.80527 8.59912 7.14316C8.59912 4.42559 10.7954 2.21826 13.524 2.21826C16.2416 2.21826 18.4489 4.42559 18.4489 7.14316C18.4378 9.80527 16.3414 11.9682 13.7015 12.057Z" stroke="#7E7E7E" stroke-width="1.6134" stroke-linecap="round" stroke-linejoin="round"/>
<path d="M8.15604 16.1503C5.47175 17.9472 5.47175 20.8756 8.15604 22.6614C11.2064 24.7023 16.2089 24.7023 19.2593 22.6614C21.9435 20.8645 21.9435 17.9362 19.2593 16.1503C16.22 14.1205 11.2175 14.1205 8.15604 16.1503Z" stroke="#7E7E7E" stroke-width="1.6134" stroke-linecap="round" stroke-linejoin="round"/>
</svg>
