<svg width="21" height="21" viewBox="0 0 21 21" fill="none" xmlns="http://www.w3.org/2000/svg">
<path d="M13.3406 9.11485C13.3406 8.76021 13.0566 8.47266 12.7063 8.47266H5.72992C5.37969 8.47266 5.0957 8.76021 5.0957 9.11485C5.0957 9.46948 5.37969 9.75704 5.72992 9.75704H12.7063C13.0566 9.75704 13.3406 9.46948 13.3406 9.11485Z" fill="white"/>
<path d="M5.72797 11.7188C5.37774 11.7188 5.09375 12.0063 5.09375 12.3609C5.09375 12.7156 5.37774 13.0031 5.72797 13.0031H9.42688C9.77711 13.0031 10.0611 12.7156 10.0611 12.3609C10.0611 12.0063 9.77711 11.7188 9.42688 11.7188H5.72797Z" fill="white"/>
<path d="M17.5186 9.15295C17.1683 9.15295 16.8843 9.44051 16.8843 9.79514V14.989C16.8843 15.9609 16.1035 16.7515 15.1438 16.7515H10.9015C10.7641 16.7515 10.6302 16.7964 10.5203 16.8806L6.85733 19.6699C6.76431 19.7405 6.67693 19.7113 6.63323 19.687C6.58884 19.6642 6.51555 19.6078 6.51837 19.4929L6.58884 17.4165C6.59448 17.2424 6.53035 17.0733 6.41126 16.9484C6.29217 16.8228 6.12727 16.7522 5.95532 16.7522H3.00902C2.04924 16.7522 1.26844 15.9623 1.26844 14.9897V6.49857C1.26844 5.52315 2.04924 4.72969 3.00902 4.72969H10.824C11.1742 4.72969 11.4582 4.44213 11.4582 4.0875C11.4582 3.73287 11.1742 3.44531 10.824 3.44531H3.00902C1.35018 3.44531 0 4.81532 0 6.49928V14.9897C0 16.6694 1.35018 18.0373 3.00902 18.0373H5.29856L5.25064 19.4515C5.23372 20.0324 5.53885 20.5604 6.04834 20.828C6.26609 20.9428 6.50075 20.9992 6.7333 20.9992C7.04548 20.9992 7.35484 20.8972 7.61839 20.6981L11.1129 18.0373H15.1431C16.8019 18.0373 18.1521 16.6701 18.1521 14.9897V9.79586C18.1528 9.44051 17.8688 9.15295 17.5186 9.15295Z" fill="white"/>
<path d="M20.9463 3.03453C20.8314 2.67775 20.5488 2.41089 20.1902 2.32098L18.5694 1.91212L17.6843 0.477896C17.2918 -0.160012 16.2672 -0.158585 15.8754 0.477896L14.9903 1.91212L13.3695 2.32098C13.0108 2.41089 12.7275 2.67775 12.6133 3.03453C12.4992 3.3913 12.5725 3.7759 12.8107 4.06346L13.8846 5.35783L13.7676 7.04464C13.7416 7.41854 13.905 7.77317 14.2045 7.99366C14.3906 8.13066 14.609 8.2013 14.8303 8.2013C14.9649 8.2013 15.1009 8.1749 15.2313 8.12138L16.7802 7.48776L18.3284 8.12138C18.6716 8.26266 19.0549 8.21414 19.3551 7.99437C19.6546 7.77389 19.8181 7.41926 19.7927 7.04464L19.6757 5.35783L20.7497 4.06274C20.9872 3.7759 21.0612 3.3913 20.9463 3.03453ZM18.5391 4.73062C18.4334 4.85835 18.3805 5.02246 18.3925 5.18943L18.5052 6.80918L17.0184 6.20052C16.9422 6.16913 16.8612 6.15343 16.7809 6.15343C16.7005 6.15343 16.6195 6.16913 16.5434 6.20052L15.0572 6.80918L15.1693 5.18943C15.1805 5.02317 15.1277 4.85835 15.0227 4.73062L13.9917 3.48763L15.5477 3.09446C15.7069 3.05379 15.845 2.95318 15.9317 2.8119L16.7816 1.43547L17.6314 2.8119C17.7188 2.95318 17.8562 3.0545 18.0155 3.09446L19.5714 3.48763L18.5391 4.73062Z" fill="white"/>
</svg>
