<svg width="19" height="24" viewBox="0 0 19 24" fill="none" xmlns="http://www.w3.org/2000/svg">
<path d="M15.1311 0H3.78116C2.85896 0.0213608 1.98265 0.416449 1.34437 1.09864C0.706086 1.78084 0.357908 2.69447 0.376172 3.63923V20.7076C0.373845 21.172 0.502117 21.6273 0.745655 22.0191C0.989194 22.4108 1.3377 22.7225 1.74952 22.9167C2.14536 23.0881 2.58056 23.1408 3.0045 23.0687C3.42844 22.9967 3.82371 22.8029 4.14436 22.5098L9.45613 17.5567L14.7679 22.5098C15.172 22.8951 15.7027 23.1109 16.2548 23.1144C16.5673 23.1116 16.8761 23.0444 17.1628 22.9167C17.5746 22.7225 17.9231 22.4108 18.1666 22.0191C18.4102 21.6273 18.5384 21.172 18.5361 20.7076V3.63923C18.5544 2.69447 18.2062 1.78084 17.5679 1.09864C16.9296 0.416449 16.0533 0.0213608 15.1311 0Z" fill="black"/>
</svg>
