<svg width="19" height="24" viewBox="0 0 19 24" fill="none" xmlns="http://www.w3.org/2000/svg">
<path d="M17.6602 20.71C17.662 21.0809 17.5597 21.4437 17.3662 21.7549C17.1748 22.0628 16.9032 22.307 16.584 22.46C16.3607 22.5594 16.1205 22.6107 15.8779 22.6133C15.4565 22.6095 15.0493 22.4449 14.7373 22.1475L14.7334 22.1445L9.42188 17.1914L9.08105 16.873L8.73926 17.1914L3.43164 22.1406C3.1811 22.3696 2.87317 22.5204 2.54492 22.5762C2.21848 22.6316 1.8831 22.5914 1.57715 22.46C1.25798 22.307 0.986312 22.0627 0.794922 21.7549C0.601494 21.4437 0.499118 21.0809 0.500977 20.71V3.62988C0.485198 2.81367 0.785846 2.02633 1.33398 1.44043C1.81343 0.928005 2.44736 0.606042 3.125 0.521484L3.41699 0.5H14.7441L15.0371 0.521484C15.7144 0.606197 16.3479 0.928208 16.8271 1.44043C17.3753 2.02634 17.6769 2.81364 17.6611 3.62988H17.6602V20.71Z" stroke="black"/>
</svg>
