<svg width="18" height="18" viewBox="0 0 18 18" fill="none" xmlns="http://www.w3.org/2000/svg">
<path d="M13.6092 12.4786L17.0354 15.9048L15.904 17.0361L12.4779 13.61C11.2459 14.5956 9.68362 15.1852 7.98442 15.1852C4.01002 15.1852 0.784424 11.9596 0.784424 7.98516C0.784424 4.01076 4.01002 0.785156 7.98442 0.785156C11.9588 0.785156 15.1844 4.01076 15.1844 7.98516C15.1844 9.68436 14.5948 11.2467 13.6092 12.4786ZM12.0042 11.885C12.9824 10.8768 13.5844 9.50164 13.5844 7.98516C13.5844 4.89116 11.0784 2.38516 7.98442 2.38516C4.89042 2.38516 2.38442 4.89116 2.38442 7.98516C2.38442 11.0792 4.89042 13.5852 7.98442 13.5852C9.5009 13.5852 10.8761 12.9832 11.8843 12.0049L12.0042 11.885Z" fill="#2B2B2B"/>
</svg>
