<svg width="26" height="26" viewBox="0 0 26 26" fill="none" xmlns="http://www.w3.org/2000/svg">
<path d="M13.8975 2.55273C13.8977 1.98934 14.5111 1.66309 14.9717 1.9375L15.0615 2L23.8262 9.13867C24.1541 9.40615 24.1746 9.89243 23.8877 10.1875L23.8271 10.2441L15.0625 17.4082C14.5967 17.789 13.8975 17.4571 13.8975 16.8555V14.6963C13.8973 13.7892 13.1731 13.0038 12.2412 13.0322L12.0518 13.0488C7.50809 13.7139 3.52568 16.5285 1.42773 20.7236L1.4209 20.7363L1.41504 20.75C1.21015 21.2261 0.500064 21.08 0.5 20.5615V20.0713L0.503906 19.75C0.657327 13.236 5.45886 7.83538 11.6982 6.70117L12.3164 6.60352C13.1787 6.4876 13.8975 5.7707 13.8975 4.84961V2.55273Z" stroke="black"/>
</svg>
