<svg width="152" height="152" viewBox="0 0 152 152" fill="none" xmlns="http://www.w3.org/2000/svg">
<circle cx="76" cy="76" r="76" fill="#F2FDF4"/>
<circle cx="76" cy="76" r="70" fill="#E2F7E6"/>
<path d="M107.642 59.3762C107.023 58.1917 105.831 57.8811 105.778 57.8677C97.8957 56.1646 83.5054 51.2182 75.6865 37.2263C75.649 37.1575 75.537 37.1529 75.4935 37.2255C67.6753 51.217 53.2863 56.1639 45.4035 57.8677C45.3539 57.8795 44.1787 58.1686 43.5461 59.3597C43.0078 60.3729 43.0426 61.707 43.6514 63.3301C45.745 67.9657 48.2407 76.4259 48.2407 90.4058C48.2407 98.7415 52.9712 105.553 61.9205 110.105C66.3227 112.343 71.6745 113.94 75.5882 114.509C79.2341 114.01 84.755 112.396 89.2596 110.105C98.2089 105.553 102.939 98.7413 102.939 90.4058C102.939 76.4265 105.435 67.9664 107.53 63.3255C108.134 61.7162 108.172 60.3874 107.642 59.3762Z" fill="#3BBC56"/>
<path d="M71.7558 88.5749L64.5192 81.2655C63.4968 80.2329 63.5052 78.5669 64.5377 77.5445C65.5704 76.5216 67.2363 76.5305 68.2587 77.563L73.6026 82.9606L84.2834 71.9064C85.2931 70.8614 86.9588 70.8328 88.0039 71.8425C89.0491 72.8522 89.0775 74.5179 88.0678 75.5629L75.5178 88.5518C74.4892 89.6165 72.7885 89.6179 71.7558 88.5749Z" fill="#F2F2F2"/>
<path d="M58.176 89.0191C58.176 72.6572 55.5964 62.0278 53.0885 55.5615C45.8401 58.2845 44.6127 57.2606 43.5363 59.2879C43.0102 60.2779 43.0463 61.5877 43.6437 63.1809C45.7414 67.8249 48.2411 76.2974 48.2411 90.2929C48.2411 98.5935 52.9549 105.378 61.8726 109.913C66.566 112.3 71.2043 113.476 73.6769 113.982C63.5216 107.902 58.176 99.3282 58.176 89.0191Z" fill="#31AA3F"/>
<path d="M75.5901 119.683C75.3582 119.683 75.121 119.667 74.8842 119.636C74.5607 119.592 67.0863 118.537 59.575 114.718C49.5351 109.611 43.0666 101.425 43.0666 90.4064C43.0666 77.3474 40.8206 69.633 38.9364 65.4614C38.8908 65.361 38.8465 65.2542 38.8061 65.1464C36.2836 58.4209 40.1258 53.8142 44.1959 52.8365C55.5389 50.1642 65.3465 44.7777 70.9769 34.7018C72.9896 31.1018 78.1877 31.0972 80.2029 34.701C87.0307 46.92 99.8402 51.2914 106.868 52.8093C106.942 52.8257 107.002 52.8401 107.062 52.8554C112.01 54.105 114.805 59.8031 112.242 65.4662C110.36 69.633 108.114 77.3474 108.114 90.4063C108.114 95.6041 106.667 100.348 103.814 104.506C101.016 108.585 96.9083 112.02 91.6055 114.717C84.094 118.537 76.6197 119.592 76.3051 119.635C76.0592 119.667 75.8218 119.683 75.5901 119.683ZM75.5704 37.2688C67.7352 51.2906 53.3194 56.2471 45.4236 57.9537C45.3748 57.9651 44.2351 58.2501 43.6237 59.4013C43.0979 60.3913 43.1341 61.7011 43.7314 63.2943C45.829 67.9383 48.3286 76.4108 48.3286 90.4063C48.3286 98.7069 53.0423 105.491 61.9603 110.027C68.0212 113.109 74.9146 114.421 75.5882 114.421C75.893 114.379 82.503 113.442 89.2197 110.027C98.1377 105.491 102.851 98.7066 102.851 90.4063C102.851 76.4108 105.351 67.9383 107.448 63.295C108.043 61.7097 108.082 60.4052 107.564 59.4172C106.964 58.2698 105.808 57.9663 105.759 57.954C97.861 56.2474 83.4456 51.2921 75.6091 37.2686C75.6014 37.2542 75.5795 37.2539 75.5704 37.2688Z" fill="#8DD83D"/>
</svg>
