<svg width="21" height="21" viewBox="0 0 21 21" fill="none" xmlns="http://www.w3.org/2000/svg">
<path d="M10.3355 9.23969C10.2505 9.23119 10.1485 9.23119 10.055 9.23969C8.03204 9.17169 6.42554 7.5142 6.42554 5.4742C6.42554 3.3917 8.10854 1.7002 10.1995 1.7002C12.282 1.7002 13.9735 3.3917 13.9735 5.4742C13.965 7.5142 12.3585 9.17169 10.3355 9.23969Z" stroke="white" stroke-width="1.5" stroke-linecap="round" stroke-linejoin="round"/>
<path d="M6.08547 12.3756C4.02847 13.7526 4.02847 15.9966 6.08547 17.3651C8.42297 18.9291 12.2565 18.9291 14.594 17.3651C16.651 15.9881 16.651 13.7441 14.594 12.3756C12.265 10.8201 8.43147 10.8201 6.08547 12.3756Z" stroke="white" stroke-width="1.5" stroke-linecap="round" stroke-linejoin="round"/>
</svg>
