<svg width="315" height="893" viewBox="0 0 315 893" fill="none" xmlns="http://www.w3.org/2000/svg">
<g opacity="0.3">
<path d="M183.617 457.919C183.617 634.3 32.2942 779.601 -157.306 779.601C-346.906 779.601 -498.229 634.3 -498.229 457.919C-498.229 281.538 -346.906 136.237 -157.306 136.237C32.2942 136.237 183.617 281.538 183.617 457.919Z" stroke="#05A633" stroke-opacity="0.12" stroke-width="51"/>
<path d="M288.888 446.5C288.888 677.711 90.4572 867.5 -157.306 867.5C-405.069 867.5 -603.5 677.711 -603.5 446.5C-603.5 215.289 -405.069 25.5 -157.306 25.5C90.4572 25.5 288.888 215.289 288.888 446.5Z" stroke="#05A633" stroke-opacity="0.12" stroke-width="51"/>
<path d="M73.5 446.5C73.5 569.431 -32.3568 671.5 -166 671.5C-299.643 671.5 -405.5 569.431 -405.5 446.5C-405.5 323.569 -299.643 221.5 -166 221.5C-32.3568 221.5 73.5 323.569 73.5 446.5Z" stroke="#05A633" stroke-opacity="0.12" stroke-width="51"/>
</g>
</svg>
