<svg width="284" height="893" viewBox="0 0 284 893" fill="none" xmlns="http://www.w3.org/2000/svg">
<g opacity="0.3">
<path d="M812.617 457.919C812.617 634.3 661.294 779.601 471.694 779.601C282.094 779.601 130.771 634.3 130.771 457.919C130.771 281.538 282.094 136.237 471.694 136.237C661.294 136.237 812.617 281.538 812.617 457.919Z" stroke="#05A633" stroke-opacity="0.12" stroke-width="51"/>
<path d="M917.888 446.5C917.888 677.711 719.457 867.5 471.694 867.5C223.931 867.5 25.5 677.711 25.5 446.5C25.5 215.289 223.931 25.5 471.694 25.5C719.457 25.5 917.888 215.289 917.888 446.5Z" stroke="#05A633" stroke-opacity="0.12" stroke-width="51"/>
<path d="M710.5 458C710.5 580.095 605.323 681.5 472.5 681.5C339.677 681.5 234.5 580.095 234.5 458C234.5 335.905 339.677 234.5 472.5 234.5C605.323 234.5 710.5 335.905 710.5 458Z" stroke="#05A633" stroke-opacity="0.12" stroke-width="51"/>
</g>
</svg>
