<svg width="138" height="138" viewBox="0 0 138 138" fill="none" xmlns="http://www.w3.org/2000/svg">
<g clip-path="url(#clip0_625_8015)">
<path d="M133.828 34.9986C130.205 21.6649 116.338 7.79484 103.001 4.17234C94.8238 2.13469 83.87 0.0350391 69 0C54.13 0.0350391 43.1762 2.13469 34.9986 4.17234C21.6649 7.79484 7.79484 21.6622 4.17234 34.9986C2.13469 43.1762 0.0350391 54.13 0 69C0.0350391 83.87 2.13469 94.8238 4.17234 103.001C7.79484 116.338 21.6649 130.205 34.9986 133.828C43.1762 135.865 54.1353 137.965 69 138C83.8673 137.965 94.8238 135.865 103.001 133.828C116.338 130.205 130.205 116.338 133.828 103.001C135.865 94.8238 137.965 83.8646 138 69C137.965 54.13 135.865 43.1762 133.828 34.9986Z" fill="#E5F4D9"/>
<path d="M69 23.1797C59.9376 23.1797 51.0787 25.867 43.5436 30.9018C36.0085 35.9366 30.1356 43.0928 26.6676 51.4653C23.1995 59.8379 22.2921 69.0508 24.0601 77.9391C25.8281 86.8274 30.1921 94.9918 36.6002 101.4C43.0083 107.808 51.1726 112.172 60.0609 113.94C68.9492 115.708 78.1621 114.8 86.5347 111.332C94.9073 107.864 102.063 101.992 107.098 94.4564C112.133 86.9213 114.82 78.0624 114.82 69C114.82 56.8477 109.993 45.1931 101.4 36.6001C92.8069 28.0072 81.1523 23.1797 69 23.1797Z" fill="url(#paint0_linear_625_8015)"/>
<path d="M91.4008 61.6491L68.5973 85.5732C67.9763 86.2249 67.23 86.7446 66.4033 87.1012C65.5765 87.4578 64.6863 87.644 63.7858 87.6486H63.7568C62.8616 87.6486 61.9755 87.469 61.151 87.1205C60.3264 86.7721 59.5802 86.2618 58.9566 85.62L46.8599 73.1653C46.2021 72.5459 45.6766 71.7998 45.3152 70.9719C44.9538 70.144 44.7639 69.2515 44.757 68.3483C44.7502 67.4451 44.9265 66.5498 45.2753 65.7165C45.6241 64.8833 46.1382 64.1293 46.7866 63.5C47.4349 62.8707 48.2041 62.3792 49.0478 62.0551C49.8914 61.731 50.792 61.5811 51.6952 61.6144C52.5984 61.6477 53.4855 61.8634 54.3029 62.2487C55.1204 62.634 55.8513 63.1807 56.4516 63.856L63.7011 71.3217L81.6999 52.4312C82.3055 51.7946 83.0307 51.2835 83.834 50.927C84.6373 50.5705 85.5029 50.3756 86.3816 50.3534C87.2602 50.3313 88.1347 50.4823 88.9549 50.7979C89.7752 51.1135 90.5252 51.5874 91.1622 52.1927C91.7991 52.7979 92.3106 53.5226 92.6673 54.3254C93.024 55.1282 93.219 55.9934 93.2412 56.8715C93.2634 57.7496 93.1122 58.6234 92.7965 59.4432C92.4807 60.2629 92.0065 61.0125 91.4008 61.6491Z" fill="url(#paint1_linear_625_8015)"/>
</g>
<defs>
<linearGradient id="paint0_linear_625_8015" x1="44.7568" y1="31.7027" x2="94.1757" y2="109.095" gradientUnits="userSpaceOnUse">
<stop stop-color="#609F3E"/>
<stop offset="0.52" stop-color="#518E2E"/>
<stop offset="1" stop-color="#387417"/>
</linearGradient>
<linearGradient id="paint1_linear_625_8015" x1="80.1675" y1="74.0146" x2="58.4458" y2="52.2773" gradientUnits="userSpaceOnUse">
<stop stop-color="#CBF4B4"/>
<stop offset="0.57" stop-color="white"/>
<stop offset="1" stop-color="white"/>
</linearGradient>
<clipPath id="clip0_625_8015">
<rect width="138" height="138" fill="white"/>
</clipPath>
</defs>
</svg>
