<svg width="27" height="27" viewBox="0 0 27 27" fill="none" xmlns="http://www.w3.org/2000/svg">
<path d="M22.8163 5.82324H18.6567V4.99133C18.6567 4.32942 18.3938 3.69463 17.9257 3.22659C17.4577 2.75855 16.8229 2.49561 16.161 2.49561H11.1696C10.5076 2.49561 9.87285 2.75855 9.40481 3.22659C8.93677 3.69463 8.67382 4.32942 8.67382 4.99133V5.82324H4.51428C3.85237 5.82324 3.21758 6.08618 2.74954 6.55422C2.2815 7.02226 2.01855 7.65706 2.01855 8.31897V21.6295C2.01855 22.2914 2.2815 22.9262 2.74954 23.3943C3.21758 23.8623 3.85237 24.1252 4.51428 24.1252H22.8163C23.4782 24.1252 24.113 23.8623 24.581 23.3943C25.0491 22.9262 25.312 22.2914 25.312 21.6295V8.31897C25.312 7.65706 25.0491 7.02226 24.581 6.55422C24.113 6.08618 23.4782 5.82324 22.8163 5.82324ZM10.3376 4.99133C10.3376 4.7707 10.4253 4.5591 10.5813 4.40308C10.7373 4.24707 10.9489 4.15942 11.1696 4.15942H16.161C16.3816 4.15942 16.5932 4.24707 16.7493 4.40308C16.9053 4.5591 16.9929 4.7707 16.9929 4.99133V5.82324H10.3376V4.99133ZM4.51428 22.4614C4.29365 22.4614 4.08205 22.3738 3.92603 22.2178C3.77002 22.0617 3.68237 21.8501 3.68237 21.6295V8.31897C3.68237 8.09833 3.77002 7.88673 3.92603 7.73072C4.08205 7.57471 4.29365 7.48706 4.51428 7.48706H7.01001V22.4614H4.51428ZM8.67382 22.4614V7.48706H18.6567V22.4614H8.67382ZM23.6482 21.6295C23.6482 21.8501 23.5605 22.0617 23.4045 22.2178C23.2485 22.3738 23.0369 22.4614 22.8163 22.4614H20.3205V7.48706H22.8163C23.0369 7.48706 23.2485 7.57471 23.4045 7.73072C23.5605 7.88673 23.6482 8.09833 23.6482 8.31897V21.6295Z" fill="#7E7E7E"/>
</svg>
