<svg width="25" height="28" viewBox="0 0 25 28" fill="none" xmlns="http://www.w3.org/2000/svg">
<path d="M4.84763 9.56355L11.7129 2.67729V21.4037C11.7129 21.6121 11.7957 21.8119 11.943 21.9592C12.0903 22.1065 12.2901 22.1892 12.4985 22.1892C12.7068 22.1892 12.9066 22.1065 13.0539 21.9592C13.2012 21.8119 13.284 21.6121 13.284 21.4037V2.67729L20.1493 9.56355C20.2232 9.63645 20.3108 9.69407 20.407 9.73313C20.5031 9.77218 20.6061 9.79191 20.7099 9.79118C20.8137 9.79045 20.9164 9.76928 21.012 9.72887C21.1077 9.68847 21.1944 9.62963 21.2673 9.5557C21.3402 9.48177 21.3978 9.39421 21.4369 9.29801C21.4759 9.20182 21.4957 9.09887 21.4949 8.99505C21.4942 8.89123 21.473 8.78858 21.4326 8.69294C21.3922 8.5973 21.3334 8.51056 21.2594 8.43766L13.0535 0.247466C12.9836 0.165794 12.8958 0.101293 12.7969 0.0589445C12.6539 0.000371702 12.4967 -0.014972 12.345 0.0148116C12.1933 0.0445951 12.0537 0.118199 11.9434 0.226519L3.73745 8.43766C3.58815 8.58488 3.50345 8.78538 3.50197 8.99505C3.5005 9.20473 3.58238 9.4064 3.7296 9.5557C3.87682 9.705 4.07732 9.78971 4.28699 9.79118C4.49666 9.79265 4.69833 9.71077 4.84763 9.56355Z" fill="#65A442"/>
<path d="M24.2145 22.4043C24.0062 22.4043 23.8064 22.4871 23.6591 22.6344C23.5117 22.7817 23.429 22.9815 23.429 23.1898V25.761H1.57101V23.1898C1.57101 22.9815 1.48825 22.7817 1.34094 22.6344C1.19363 22.4871 0.993834 22.4043 0.785505 22.4043C0.577176 22.4043 0.37738 22.4871 0.230069 22.6344C0.0827582 22.7817 0 22.9815 0 23.1898V26.5465C0 26.7549 0.0827582 26.9547 0.230069 27.102C0.37738 27.2493 0.577176 27.332 0.785505 27.332H24.2145C24.4228 27.332 24.6226 27.2493 24.7699 27.102C24.9172 26.9547 25 26.7549 25 26.5465V23.1898C25 22.9815 24.9172 22.7817 24.7699 22.6344C24.6226 22.4871 24.4228 22.4043 24.2145 22.4043Z" fill="#65A442"/>
</svg>
