<svg width="38" height="39" viewBox="0 0 38 39" fill="none" xmlns="http://www.w3.org/2000/svg">
<g clip-path="url(#clip0_530_4446)">
<path d="M31.6624 14.6393C29.906 7.64206 22.8098 3.39362 15.8126 5.15008C10.3445 6.52276 6.37398 11.2488 5.96488 16.8717C2.08227 17.512 -0.54619 21.1785 0.0940958 25.0611C0.66328 28.5128 3.65415 31.0406 7.15239 31.0267H13.0899V28.6517H7.15239C4.52904 28.6517 2.40238 26.5251 2.40238 23.9017C2.40238 21.2784 4.52904 19.1517 7.15239 19.1517C7.80826 19.1517 8.33989 18.6201 8.33989 17.9642C8.33395 12.0616 13.1142 7.27185 19.0167 7.26599C24.1262 7.26087 28.5247 10.8731 29.5131 15.8861C29.6106 16.3866 30.0168 16.769 30.5224 16.8361C33.7689 17.2984 36.0258 20.3049 35.5636 23.5513C35.1485 26.4665 32.6595 28.637 29.7149 28.6517H24.9649V31.0267H29.7149C34.3058 31.0128 38.0162 27.2799 38.0022 22.689C37.9906 18.8675 35.3749 15.5461 31.6624 14.6393Z" fill="#05A633"/>
<path d="M18.1836 19.4957L13.4336 24.2457L15.108 25.9201L17.8392 23.2007V34.5889H20.2142V23.2007L22.9336 25.9201L24.608 24.2457L19.858 19.4957C19.3948 19.0353 18.6468 19.0353 18.1836 19.4957Z" fill="#05A633"/>
</g>
<defs>
<clipPath id="clip0_530_4446">
<rect width="38.0042" height="38.0042" fill="white" transform="translate(-0.00195312 0.669922)"/>
</clipPath>
</defs>
</svg>
