<svg width="22" height="24" viewBox="0 0 22 24" fill="none" xmlns="http://www.w3.org/2000/svg">
<path d="M21.7879 10.7432L11.6878 0.689338C11.4486 0.450559 10.9411 0.450559 10.7018 0.689338L0.601778 10.7432C0.450277 10.894 0.420609 11.1006 0.525396 11.275C0.631447 11.4494 0.853016 11.56 1.09542 11.56H6.77669V22.6192C6.77669 23.1737 7.34292 23.6246 8.03919 23.6246H14.3517C15.048 23.6246 15.6142 23.1737 15.6142 22.6192V11.56H21.2955C21.5379 11.56 21.7595 11.4494 21.8643 11.275C21.9697 11.1011 21.94 10.894 21.7879 10.7432ZM14.983 10.5547C14.6345 10.5547 14.3517 10.7799 14.3517 11.0573V22.6192H8.03919V11.0573C8.03919 10.7799 7.75639 10.5547 7.40794 10.5547H2.40905L11.1955 1.80833L19.9819 10.5547H14.983Z" fill="#65A442"/>
</svg>
