<svg width="27" height="26" viewBox="0 0 27 26" fill="none" xmlns="http://www.w3.org/2000/svg">
<ellipse cx="13.2367" cy="13.0444" rx="12.9945" ry="12.8208" fill="#65A442"/>
<path d="M11.8443 17.6235H14.6289C16.9493 17.6235 17.8775 16.7078 17.8775 14.4183V11.671C17.8775 9.38159 16.9493 8.46582 14.6289 8.46582H11.8443C9.52388 8.46582 8.5957 9.38159 8.5957 11.671V14.4183C8.5957 16.7078 9.52388 17.6235 11.8443 17.6235Z" stroke="white" stroke-width="0.921955" stroke-linecap="round" stroke-linejoin="round"/>
<path d="M11.8926 13.0447V12.367C11.8926 11.4925 12.5191 11.1399 13.2848 11.5749L13.8789 11.9137L14.4729 12.2526C15.2387 12.6876 15.2387 13.4019 14.4729 13.8368L13.8789 14.1757L13.2848 14.5145C12.5191 14.9495 11.8926 14.5924 11.8926 13.7224V13.0447Z" stroke="white" stroke-width="0.921955" stroke-miterlimit="10" stroke-linecap="round" stroke-linejoin="round"/>
</svg>
