<svg width="33" height="30" viewBox="0 0 33 30" fill="none" xmlns="http://www.w3.org/2000/svg">
<g clip-path="url(#clip0_694_5280)">
<path d="M16.6808 1.86133C8.79648 1.86133 2.38293 8.16312 2.38293 15.9087C2.38293 23.6543 8.79648 29.9561 16.6808 29.9561C24.5651 29.9561 30.9787 23.6543 30.9787 15.9087C30.9787 8.16312 24.5651 1.86133 16.6808 1.86133ZM16.6808 28.7855C9.4539 28.7855 3.57441 23.009 3.57441 15.9087C3.57441 8.80842 9.4539 3.03193 16.6808 3.03193C23.9077 3.03193 29.7872 8.80842 29.7872 15.9087C29.7872 23.009 23.9077 28.7855 16.6808 28.7855Z" fill="#7E7E7E" stroke="#7E7E7E" stroke-width="0.595745"/>
<path d="M21.9903 16.0063L13.2872 10.5094C13.0966 10.3872 12.8501 10.3806 12.6534 10.4868C12.4531 10.5941 12.3292 10.7993 12.3292 11.023V22.0166C12.3292 22.2403 12.4531 22.4455 12.6534 22.5528C12.7457 22.6024 12.8489 22.6274 12.9509 22.6274C13.0674 22.6274 13.1852 22.5951 13.2872 22.5302L21.9903 17.0334C22.1675 16.9212 22.2756 16.7274 22.2756 16.5198C22.2756 16.3122 22.1675 16.1184 21.9903 16.0063ZM13.5725 20.8977V12.1419L20.5041 16.5198L13.5725 20.8977Z" fill="#7E7E7E"/>
</g>
<defs>
<clipPath id="clip0_694_5280">
<rect width="32.1702" height="29.2654" fill="white" transform="translate(0 0.690918)"/>
</clipPath>
</defs>
</svg>
