<svg width="25" height="24" viewBox="0 0 25 24" fill="none" xmlns="http://www.w3.org/2000/svg">
<g clip-path="url(#clip0_549_2785)">
<path d="M22.1258 10.402V8.27753C22.1258 6.84498 21.0711 5.65431 19.6975 5.44076L18.6198 2.49236C18.3983 1.88646 17.9526 1.40239 17.3647 1.12919C16.7767 0.855994 16.1193 0.827524 15.5134 1.04906L3.52954 5.4295C2.11438 5.60583 1.01538 6.8153 1.01538 8.27753V20.1667C1.01538 21.7498 2.30329 23.0377 3.88637 23.0377H19.2548C20.8379 23.0377 22.1258 21.7498 22.1258 20.1667V18.0422C22.9585 17.7061 23.5479 16.8901 23.5479 15.9384V12.5058C23.5479 11.5541 22.9585 10.7381 22.1258 10.402ZM22.052 15.9384C22.052 16.3641 21.7057 16.7105 21.2799 16.7105H16.0329C15.6071 16.7105 15.2607 16.3642 15.2607 15.9384V12.5058C15.2607 12.0801 15.6071 11.7337 16.0329 11.7337H21.2799C21.7056 11.7337 22.052 12.08 22.052 12.5058V15.9384ZM16.0271 2.45403C16.2577 2.36979 16.5089 2.38106 16.7344 2.48582C16.9599 2.59058 17.1306 2.77528 17.2148 3.00594L18.0923 5.40654H7.94975L16.0271 2.45403ZM19.2548 21.5417H3.88637C3.12816 21.5417 2.51132 20.9249 2.51132 20.1667V8.27753C2.51132 7.51932 3.12816 6.90248 3.88637 6.90248H19.2548C20.013 6.90248 20.6298 7.51932 20.6298 8.27753V10.2378H16.0329C14.7823 10.2378 13.7648 11.2552 13.7648 12.5058V15.9384C13.7648 17.189 14.7823 18.2065 16.0329 18.2065H20.6298V20.1667C20.6298 20.9249 20.013 21.5417 19.2548 21.5417Z" fill="#7E7E7E"/>
</g>
<defs>
<clipPath id="clip0_549_2785">
<rect width="23.935" height="23.935" fill="white" transform="translate(0.314209)"/>
</clipPath>
</defs>
</svg>
