<svg width="26" height="27" viewBox="0 0 26 27" fill="none" xmlns="http://www.w3.org/2000/svg">
<g clip-path="url(#clip0_462_15713)">
<path d="M24.3068 5.24363H22.4193C22.6683 4.84963 22.8326 4.40735 22.8794 3.93961C23.0291 2.44476 22.2418 1.10472 20.9016 0.510621C19.6696 -0.0354711 18.2851 0.187767 17.2882 1.09196L14.9049 3.25192C14.4408 2.74426 13.7736 2.42521 13.033 2.42521C12.2912 2.42521 11.6229 2.74528 11.1587 3.2545L8.77233 1.09171C7.77379 0.187513 6.38989 -0.0348634 5.15849 0.510924C3.81856 1.10508 3.03115 2.44557 3.18126 3.94037C3.2282 4.40776 3.39239 4.84983 3.64131 5.24363H1.75928C0.825311 5.24363 0.0682373 6.00076 0.0682373 6.93468V9.47127C0.0682373 9.93821 0.446799 10.3168 0.913785 10.3168H25.1523C25.6193 10.3168 25.9979 9.93826 25.9979 9.47127V6.93468C25.9978 6.00076 25.2408 5.24363 24.3068 5.24363ZM10.4964 4.9618V5.24363H6.51873C5.46777 5.24363 4.64066 4.26388 4.90315 3.16967C5.01876 2.6878 5.36659 2.27702 5.81645 2.06908C6.43421 1.78355 7.11851 1.87522 7.63735 2.34484L10.4972 4.93688C10.497 4.94524 10.4964 4.95345 10.4964 4.9618ZM21.2016 3.7151C21.1386 4.59392 20.3447 5.24374 19.4637 5.24374H15.5696V4.9619C15.5696 4.95193 15.569 4.94205 15.5689 4.93207C16.2168 4.34481 17.6222 3.07102 18.3844 2.38008C18.8176 1.98744 19.4238 1.80416 19.9841 1.97129C20.7882 2.21114 21.2604 2.89493 21.2016 3.7151Z" fill="white"/>
<path d="M1.75928 12.0088V24.4099C1.75928 25.3439 2.51635 26.101 3.45032 26.101H11.3419V12.0088H1.75928Z" fill="white"/>
<path d="M14.724 12.0088V26.101H22.6156C23.5496 26.101 24.3067 25.3439 24.3067 24.4099V12.0088H14.724Z" fill="white"/>
</g>
<defs>
<clipPath id="clip0_462_15713">
<rect width="25.9296" height="25.9296" fill="white" transform="translate(0.0682373 0.193359)"/>
</clipPath>
</defs>
</svg>
