<svg width="28" height="33" viewBox="0 0 28 33" fill="none" xmlns="http://www.w3.org/2000/svg">
<g filter="url(#filter0_d_462_15686)">
<path d="M20.6954 1.23535H7.09162C5.89272 1.23535 4.87451 2.09541 4.87451 3.20738V21.0993C4.87804 22.5106 6.81615 23.1729 7.918 22.1822L13.1034 17.5713C13.5189 17.1857 14.2681 17.1857 14.6836 17.5713L19.869 22.1822C20.9713 23.1733 22.9092 22.51 22.9125 21.0993V3.20738C22.9125 2.09541 21.8943 1.23535 20.6954 1.23535ZM21.5013 21.0993C21.4996 21.3981 21.082 21.4967 20.8659 21.2938C19.8293 20.3704 16.8731 17.7418 15.6824 16.6846C14.7457 15.8132 13.0427 15.813 12.1064 16.6829C11.2839 17.4131 9.67384 18.8448 8.40463 19.9734L6.92806 21.2862C6.7153 21.4869 6.29247 21.4199 6.28564 21.1107V3.20738C6.28564 2.80647 6.651 2.49054 7.09162 2.49054H20.6953C21.1353 2.49054 21.5013 2.80597 21.5013 3.20738V21.0993Z" fill="white"/>
<path d="M20.6958 1.06641C21.9659 1.0666 23.0813 1.98153 23.0815 3.20703V21.0996L23.0747 21.2461C23.0104 21.964 22.4894 22.4801 21.8589 22.7012C21.1869 22.9367 20.3601 22.8504 19.7563 22.3076L14.5708 17.6973L14.5688 17.6953C14.3977 17.5365 14.1495 17.4512 13.8931 17.4512C13.6368 17.4513 13.3893 17.5366 13.2183 17.6953L13.2153 17.6973L8.03076 22.3086L8.02979 22.3076C7.42633 22.8498 6.60002 22.9365 5.92822 22.7012C5.25562 22.4655 4.70755 21.894 4.70557 21.0996V3.20703C4.70578 1.98149 5.82112 1.06655 7.09131 1.06641H20.6958ZM7.09131 2.65918C6.72376 2.65932 6.45481 2.91912 6.45459 3.20703V21.1074L6.46143 21.1475C6.47489 21.1844 6.50845 21.2112 6.56689 21.2246C6.65153 21.2439 6.75124 21.2204 6.81201 21.1631L6.81592 21.1602L8.29248 19.8467C9.56037 18.7193 11.1684 17.2895 11.9917 16.5586L12.1899 16.3945C12.6723 16.0366 13.2867 15.8612 13.894 15.8613C14.5883 15.8616 15.2922 16.0907 15.7974 16.5605H15.7964L20.978 21.168L20.9819 21.1709C21.0406 21.2257 21.135 21.2447 21.2183 21.2217C21.2977 21.1996 21.3317 21.153 21.3325 21.0996V3.20703C21.3323 2.91881 21.0628 2.65939 20.6958 2.65918H7.09131Z" stroke="white" stroke-width="0.338212"/>
</g>
<defs>
<filter id="filter0_d_462_15686" x="0.0267587" y="0.897461" width="27.7335" height="31.1147" filterUnits="userSpaceOnUse" color-interpolation-filters="sRGB">
<feFlood flood-opacity="0" result="BackgroundImageFix"/>
<feColorMatrix in="SourceAlpha" type="matrix" values="0 0 0 0 0 0 0 0 0 0 0 0 0 0 0 0 0 0 127 0" result="hardAlpha"/>
<feOffset dy="4.5095"/>
<feGaussianBlur stdDeviation="2.25475"/>
<feComposite in2="hardAlpha" operator="out"/>
<feColorMatrix type="matrix" values="0 0 0 0 0 0 0 0 0 0 0 0 0 0 0 0 0 0 0.25 0"/>
<feBlend mode="normal" in2="BackgroundImageFix" result="effect1_dropShadow_462_15686"/>
<feBlend mode="normal" in="SourceGraphic" in2="effect1_dropShadow_462_15686" result="shape"/>
</filter>
</defs>
</svg>
