<svg width="30" height="30" viewBox="0 0 30 30" fill="none" xmlns="http://www.w3.org/2000/svg">
<g filter="url(#filter0_d_462_15695)">
<path d="M20.6544 2.62988H9.38064C6.26909 2.62988 3.74377 5.14393 3.74377 8.24421V14.9859V16.1133C3.74377 19.2136 6.26909 21.7276 9.38064 21.7276H11.0717C11.3761 21.7276 11.782 21.9305 11.9736 22.1785L13.6647 24.422C14.4087 25.4141 15.6263 25.4141 16.3704 24.422L18.0614 22.1785C18.2756 21.8967 18.6138 21.7276 18.9633 21.7276H20.6544C23.7659 21.7276 26.2913 19.2136 26.2913 16.1133V8.24421C26.2913 5.14393 23.7659 2.62988 20.6544 2.62988ZM16.1449 15.8765H9.38064C8.91842 15.8765 8.53511 15.4932 8.53511 15.031C8.53511 14.5688 8.91842 14.1855 9.38064 14.1855H16.1449C16.6071 14.1855 16.9904 14.5688 16.9904 15.031C16.9904 15.4932 16.6071 15.8765 16.1449 15.8765ZM20.6544 10.2397H9.38064C8.91842 10.2397 8.53511 9.85635 8.53511 9.39413C8.53511 8.9319 8.91842 8.5486 9.38064 8.5486H20.6544C21.1166 8.5486 21.4999 8.9319 21.4999 9.39413C21.4999 9.85635 21.1166 10.2397 20.6544 10.2397Z" fill="white"/>
<path d="M9.38049 3.47559H20.6539C23.3018 3.47559 25.4459 5.61417 25.4459 8.24414V16.1133C25.4459 18.7433 23.3018 20.8818 20.6539 20.8818H18.9635C18.3458 20.8818 17.76 21.178 17.3883 21.667L17.3864 21.6699L15.6949 23.9131L15.694 23.915C15.4582 24.2293 15.2046 24.3203 15.0172 24.3203C14.8299 24.3202 14.577 24.229 14.3414 23.915L14.3395 23.9131L12.649 21.6699L12.6422 21.6611C12.4486 21.4108 12.1865 21.2253 11.943 21.1035C11.7009 20.9825 11.3925 20.8819 11.0719 20.8818H9.38049C6.73267 20.8818 4.58948 18.7432 4.58948 16.1133V8.24414C4.58951 5.61422 6.73269 3.47567 9.38049 3.47559ZM9.38049 13.3398C8.45136 13.3399 7.69006 14.1021 7.69006 15.0312C7.6902 15.9603 8.45145 16.7216 9.38049 16.7217H16.1451C17.0741 16.7215 17.8354 15.9602 17.8356 15.0312C17.8356 14.1021 17.0742 13.34 16.1451 13.3398H9.38049ZM9.38049 7.70312C8.45136 7.70321 7.69006 8.46538 7.69006 9.39453C7.69028 10.3235 8.4515 11.0849 9.38049 11.085H20.6539C21.583 11.085 22.3451 10.3235 22.3453 9.39453C22.3453 8.46533 21.5831 7.70312 20.6539 7.70312H9.38049Z" stroke="white" stroke-width="1.69106"/>
</g>
<defs>
<filter id="filter0_d_462_15695" x="0.361652" y="0.375135" width="29.3117" height="29.3004" filterUnits="userSpaceOnUse" color-interpolation-filters="sRGB">
<feFlood flood-opacity="0" result="BackgroundImageFix"/>
<feColorMatrix in="SourceAlpha" type="matrix" values="0 0 0 0 0 0 0 0 0 0 0 0 0 0 0 0 0 0 127 0" result="hardAlpha"/>
<feOffset dy="1.12737"/>
<feGaussianBlur stdDeviation="1.69106"/>
<feComposite in2="hardAlpha" operator="out"/>
<feColorMatrix type="matrix" values="0 0 0 0 0 0 0 0 0 0 0 0 0 0 0 0 0 0 0.4 0"/>
<feBlend mode="normal" in2="BackgroundImageFix" result="effect1_dropShadow_462_15695"/>
<feBlend mode="normal" in="SourceGraphic" in2="effect1_dropShadow_462_15695" result="shape"/>
</filter>
</defs>
</svg>
