<svg width="21" height="19" viewBox="0 0 21 19" fill="none" xmlns="http://www.w3.org/2000/svg">
<path d="M15.225 0C18.4145 0 21 2.56757 21 6.16216C21 13.3514 13.125 17.4595 10.5 19C7.875 17.4595 0 13.3514 0 6.16216C0 2.56757 2.625 0 5.775 0C7.72797 0 9.45 1.02703 10.5 2.05405C11.55 1.02703 13.272 0 15.225 0ZM11.4806 16.0255C12.4063 15.4552 13.2405 14.8873 14.0226 14.2787C17.1504 11.8447 18.9 9.18522 18.9 6.16216C18.9 3.73916 17.2861 2.05405 15.225 2.05405C14.0953 2.05405 12.8723 2.63855 11.9849 3.50649L10.5 4.95893L9.01509 3.50649C8.12771 2.63855 6.90469 2.05405 5.775 2.05405C3.73701 2.05405 2.1 3.75532 2.1 6.16216C2.1 9.18522 3.84958 11.8447 6.9774 14.2787C7.7595 14.8873 8.59372 15.4552 9.5194 16.0255C9.83283 16.2187 10.1442 16.4046 10.5 16.6124C10.8558 16.4046 11.1672 16.2187 11.4806 16.0255Z" fill="#2B2B2B"/>
</svg>
