<svg width="23" height="22" viewBox="0 0 23 22" fill="none" xmlns="http://www.w3.org/2000/svg">
<g clip-path="url(#clip0_1860_14167)">
<path d="M11.6824 21.7203C17.628 21.7203 22.4479 16.9005 22.4479 10.9549C22.4479 5.0093 17.628 0.189453 11.6824 0.189453C5.73684 0.189453 0.916992 5.0093 0.916992 10.9549C0.916992 16.9005 5.73684 21.7203 11.6824 21.7203Z" fill="#FF0000"/>
<path d="M15.2055 6.90479H8.15977C7.87821 6.90479 7.5994 6.96027 7.33929 7.06806C7.07918 7.17585 6.84285 7.33384 6.64382 7.53301C6.44479 7.73217 6.28696 7.9686 6.17933 8.22878C6.07171 8.48897 6.01642 8.76781 6.0166 9.04937V12.8598C6.01642 13.1413 6.07171 13.4202 6.17933 13.6804C6.28696 13.9405 6.44479 14.177 6.64382 14.3761C6.84285 14.5753 7.07918 14.7333 7.33929 14.8411C7.5994 14.9489 7.87821 15.0044 8.15977 15.0044H15.2055C15.487 15.0044 15.7658 14.9489 16.0259 14.8411C16.2861 14.7333 16.5224 14.5753 16.7214 14.3761C16.9204 14.177 17.0783 13.9405 17.1859 13.6804C17.2935 13.4202 17.3488 13.1413 17.3486 12.8598V9.04937C17.3488 8.76781 17.2935 8.48897 17.1859 8.22878C17.0783 7.9686 16.9204 7.73217 16.7214 7.53301C16.5224 7.33384 16.2861 7.17585 16.0259 7.06806C15.7658 6.96027 15.487 6.90479 15.2055 6.90479ZM10.1896 12.6912V9.21794L13.1756 10.9546L10.1896 12.6912Z" fill="white"/>
</g>
<defs>
<clipPath id="clip0_1860_14167">
<rect width="21.5309" height="21.5309" fill="white" transform="translate(0.916992 0.189453)"/>
</clipPath>
</defs>
</svg>
