<svg width="13" height="12" viewBox="0 0 13 12" fill="none" xmlns="http://www.w3.org/2000/svg">
<path d="M4.85508 10.774H7.72459C10.1158 10.774 11.0724 9.81751 11.0724 7.42625V4.55674C11.0724 2.16549 10.1158 1.20898 7.72459 1.20898H4.85508C2.46383 1.20898 1.50732 2.16549 1.50732 4.55674V7.42625C1.50732 9.81751 2.46383 10.774 4.85508 10.774Z" stroke="white" stroke-width="0.922342" stroke-linecap="round" stroke-linejoin="round"/>
<path d="M4.85506 5.03508C5.38332 5.03508 5.81157 4.60684 5.81157 4.07857C5.81157 3.55031 5.38332 3.12207 4.85506 3.12207C4.3268 3.12207 3.89856 3.55031 3.89856 4.07857C3.89856 4.60684 4.3268 5.03508 4.85506 5.03508Z" stroke="white" stroke-width="0.922342" stroke-linecap="round" stroke-linejoin="round"/>
<path d="M1.82776 9.3143L4.18554 7.73129C4.56336 7.47782 5.10856 7.50651 5.44812 7.79824L5.60594 7.93694C5.97898 8.25737 6.58158 8.25737 6.95461 7.93694L8.94414 6.22958C9.31718 5.90915 9.91977 5.90915 10.2928 6.22958L11.0724 6.89913" stroke="white" stroke-width="0.922342" stroke-linecap="round" stroke-linejoin="round"/>
</svg>
