<svg width="22" height="22" viewBox="0 0 22 22" fill="none" xmlns="http://www.w3.org/2000/svg">
<path d="M11.0049 0.856445C12.9826 0.854749 14.9175 1.4321 16.5713 2.5166C21.2521 5.58607 22.5586 11.8689 19.4893 16.5498C16.4345 21.2083 10.1981 22.5228 5.52441 19.5098L1.72559 21.0967L1.72363 21.0977C1.57245 21.1581 1.40312 21.1581 1.25195 21.0977C0.927182 20.9675 0.769375 20.5983 0.899414 20.2734L0.900391 20.2715L2.48633 16.4736C1.41813 14.8491 0.847568 12.9474 0.849609 11.002C0.860427 5.39979 5.40272 0.861831 11.0049 0.856445ZM10.9951 2.10547C6.08692 2.1108 2.11192 6.09374 2.11719 11.002L2.12402 11.3398C2.18817 13.0275 2.74295 14.6627 3.72461 16.043L3.72559 16.0439C3.84974 16.2225 3.87367 16.4531 3.78906 16.6533L2.66406 19.3291L5.35352 18.1787L5.36719 18.1729L5.38281 18.1699C5.45336 18.156 5.52571 18.1563 5.59668 18.167H5.59766C5.72442 18.1686 5.8481 18.2079 5.95215 18.2803C7.39435 19.2848 9.09967 19.8403 10.8545 19.8838V19.8789H11.0146C15.9227 19.8734 19.8969 15.8906 19.8916 10.9824C19.8862 6.07428 15.9032 2.10021 10.9951 2.10547Z" fill="#7E7E7E" stroke="#7E7E7E" stroke-width="0.3"/>
<path d="M11.0049 5.60742C12.6245 5.5714 14.0139 6.75507 14.2344 8.36035C14.4678 10.0613 13.3135 11.6324 11.6387 11.9316V13.5264C11.6387 13.8764 11.3549 14.1602 11.0049 14.1602C10.6549 14.1601 10.3711 13.8763 10.3711 13.5264V11.3594C10.3711 11.0094 10.6549 10.7257 11.0049 10.7256C12.0514 10.7254 12.9051 9.8871 12.9248 8.84082C12.9446 7.78039 12.1014 6.90482 11.041 6.88477C9.98047 6.86495 9.10386 7.70808 9.08398 8.76855C9.08254 9.11735 8.79933 9.39941 8.4502 9.39941C8.10035 9.3992 7.81641 9.11552 7.81641 8.76562V8.76465C7.82772 7.01445 9.25216 5.60371 11.002 5.60742V5.60645C11.0033 5.60642 11.0046 5.60647 11.0059 5.60645L11.0049 5.60742Z" fill="#7E7E7E" stroke="#7E7E7E" stroke-width="0.3"/>
<path d="M10.9648 15.0684C11.3401 15.0684 11.6444 15.3729 11.6445 15.748C11.6445 16.1233 11.3401 16.4277 10.9648 16.4277C10.5897 16.4276 10.2852 16.1233 10.2852 15.748C10.2853 15.3729 10.5897 15.0685 10.9648 15.0684Z" fill="#7E7E7E" stroke="#7E7E7E" stroke-width="0.3"/>
</svg>
